<svg width="49" height="95" viewBox="0 0 49 95" fill="none" xmlns="http://www.w3.org/2000/svg">
<path d="M24.3281 11.9889C13.7863 11.9889 5.15834 20.5234 5.15834 30.9507V33.5405H12.8354V30.9507C12.8354 24.6273 17.9355 19.5827 24.3281 19.5827C30.7208 19.5827 35.8209 24.6273 35.8209 30.9507V41.3395C32.439 39.3407 28.4922 38.1888 24.2846 38.1888C11.8458 38.1888 1.67969 48.2444 1.67969 60.548C1.67969 72.8516 11.8458 82.9073 24.2846 82.9073C36.7235 82.9073 46.8896 72.8518 46.8896 60.548C46.8896 56.2468 45.6459 52.221 43.4981 48.8029V30.9507C43.4981 20.5234 34.87 11.9889 24.3281 11.9889ZM24.2846 45.7826C32.5743 45.7826 39.2123 52.3485 39.2123 60.548C39.2123 68.7478 32.5743 75.3135 24.2846 75.3135C15.995 75.3135 9.35695 68.7478 9.35695 60.548C9.35695 52.3485 15.995 45.7826 24.2846 45.7826ZM24.3584 54.3506C20.8603 54.3506 18.0247 57.1554 18.0247 60.6154C18.0247 64.0755 20.8603 66.8803 24.3584 66.8803C27.8563 66.8803 30.6921 64.0755 30.6921 60.6154C30.6921 57.1554 27.8563 54.3506 24.3584 54.3506Z" fill="#699BF7"/>
</svg>
