<svg width="551" height="417" viewBox="0 0 551 417" fill="none" xmlns="http://www.w3.org/2000/svg">
<g filter="url(#filter0_d_275_7877)">
<path d="M493.555 237.261C519.316 229.1 539.756 206.043 544.771 179.49C549.786 152.937 539.161 124.014 518.151 107.021C492.498 86.2736 450.869 81.9432 438.232 51.4681C431.253 34.6411 419.191 -6.37302 357.448 2.15258C336.541 5.0395 321.746 23.2766 305.753 37.0462C285.248 54.7007 258.836 67.3804 231.872 65.128C202.948 62.7122 177.024 43.6848 148.003 43.1912C118.659 42.6918 90.291 63.8178 82.3608 92.0739C77.8512 108.143 79.234 126.119 70.7407 140.487C65.102 150.026 55.8018 156.703 47.9842 164.556C39.6006 172.978 32.7887 182.959 27.9991 193.835C22.992 205.207 20.2099 218.124 23.5012 230.106C27.2411 243.721 38.1346 254.095 49.2514 262.798C60.3828 271.514 72.2253 279.321 84.6229 286.117" stroke="white" stroke-width="1.1337" stroke-miterlimit="10" stroke-linecap="round" stroke-dasharray="4.53 5.67"/>
<path fill-rule="evenodd" clip-rule="evenodd" d="M102.393 160.009C125.779 160.503 149.193 159.694 172.489 157.587C178.924 157.005 187.561 153.199 185.496 147.077C184.77 144.926 182.76 143.439 180.653 142.591C171.065 138.734 158.172 145.097 150.738 137.918C145.761 133.112 145.748 123.952 139.551 120.876C133.93 118.086 126.971 122.347 120.992 120.443C117.108 119.205 114.51 115.661 112.004 112.446C107.31 106.424 101.791 100.714 94.7341 97.8017C87.6774 94.8893 78.7944 95.3604 73.2712 100.632C67.6443 106.003 66.8501 114.507 64.6448 121.966C62.4385 129.427 56.5011 137.442 48.8118 136.26C44.2934 135.565 39.6154 131.777 35.7071 134.15C31.6294 136.625 32.6478 143.716 28.5368 146.137C26.5547 147.304 24.0782 146.923 21.7788 146.874C14.9052 146.727 8.05128 150.121 4 155.676C4.36429 160.234 10.4329 161.422 15.0042 161.346C43.1858 160.88 71.3685 160.414 99.5502 159.948" fill="#F7F1E6"/>
<path d="M300.676 67.7409C294.967 68.2148 290.725 73.2268 291.199 78.935C291.673 84.6432 296.685 88.8854 302.393 88.4115C308.101 87.9375 312.344 82.9256 311.87 77.2173C311.396 71.5091 306.384 67.2669 300.676 67.7409Z" stroke="#1D262D" stroke-width="0.9209" stroke-miterlimit="10"/>
<path d="M116.036 118.1C117.124 109.329 110.896 101.336 102.125 100.248C93.3533 99.1599 85.3604 105.388 84.2724 114.16C83.1844 122.931 89.4127 130.924 98.1841 132.012C106.955 133.101 114.948 126.872 116.036 118.1Z" fill="#ED4C1F"/>
<path d="M361.943 206.87C363.451 208.203 365.754 208.06 367.086 206.552C368.419 205.043 368.276 202.74 366.768 201.408C365.26 200.076 362.957 200.219 361.625 201.727C360.293 203.235 360.435 205.538 361.943 206.87Z" fill="#F7F1E6"/>
<path d="M136.725 93.3196C136.973 91.3179 135.551 89.4935 133.55 89.2458C131.548 88.997 129.724 90.4189 129.476 92.4206C129.227 94.4222 130.649 96.2466 132.651 96.4954C134.652 96.7431 136.477 95.3212 136.725 93.3196Z" stroke="#1D262D" stroke-width="0.8776" stroke-miterlimit="10"/>
<path d="M196.585 165.956C196.585 162.433 193.728 159.577 190.206 159.577C186.683 159.577 183.827 162.433 183.827 165.956C183.827 169.48 186.682 172.335 190.206 172.335C193.729 172.335 196.585 169.479 196.585 165.956Z" stroke="#168AC4" stroke-width="1.2318" stroke-miterlimit="10"/>
<path d="M363.607 186.254C371.294 186.254 377.525 180.023 377.525 172.336C377.525 164.649 371.294 158.417 363.607 158.417C355.92 158.417 349.688 164.649 349.688 172.336C349.688 180.023 355.92 186.254 363.607 186.254Z" stroke="#1C89C1" stroke-width="1.1844" stroke-miterlimit="10"/>
<path d="M450.639 98.4224C417.645 98.3549 384.651 98.2863 351.658 98.2188C346.72 98.209 340.315 97.0221 339.564 92.1414C338.843 87.4575 344.409 84.2396 349.14 83.9565C353.871 83.6735 358.97 84.7635 363.119 82.4739C371.822 77.6715 369.796 62.0031 379.025 58.3102C387.957 54.7368 396.144 66.4549 405.762 66.6713C414.304 66.8642 419.991 58.369 425.186 51.5855C429.763 45.609 435.486 40.0956 442.688 37.907C449.891 35.7183 458.761 37.7189 462.766 44.0931C466.031 49.2911 465.467 55.9129 466.586 61.9492C467.703 67.9855 472.323 74.6084 478.38 73.6075C482.335 72.9534 486.085 69.1313 489.724 70.8107C493.333 72.4755 492.875 77.6666 494.439 81.3193C497.262 87.9089 506.113 88.6013 513.279 88.8128C520.444 89.0243 529.5 91.5244 530.249 98.6536C519.509 101.924 508.005 98.7632 496.818 99.7102C482.002 100.965 469.021 98.8004 449.551 98.8004" fill="#F7F1E6"/>
<path d="M478.697 99.6397C478.867 97.3159 477.12 95.2937 474.795 95.1243C472.47 94.9549 470.449 96.7019 470.279 99.0267C470.11 101.352 471.857 103.373 474.182 103.542C476.506 103.712 478.528 101.965 478.697 99.6397Z" stroke="#1D262D" stroke-width="1.0139" stroke-miterlimit="10"/>
<path d="M448.891 141.552C456.528 139.339 460.925 131.354 458.712 123.718C456.499 116.081 448.515 111.684 440.878 113.896C433.241 116.109 428.844 124.094 431.057 131.731C433.27 139.367 441.254 143.765 448.891 141.552Z" fill="#FFB22E"/>
<path d="M251.203 170.689C263.743 168.067 271.782 155.775 269.16 143.236C266.537 130.696 254.246 122.656 241.706 125.279C229.166 127.901 221.126 140.193 223.749 152.732C226.371 165.272 238.663 173.312 251.203 170.689Z" fill="#1C89C1"/>
<path d="M79.8235 261.455L79.6385 406.052H74.4111L69.7712 260.681L79.8235 261.455Z" fill="#0B1C30"/>
<path d="M79.8236 261.455L68.9977 259.907L70.5449 286.198L79.8236 261.455Z" fill="#0B1C30"/>
<path d="M296.822 265.824L300.741 347.688C300.741 347.688 274.708 344.795 272.365 353.461H334.187C334.187 353.461 329.669 347.688 307.25 347.688L312.448 265.824H296.822Z" fill="#FFB22E"/>
<path d="M296.822 265.824L300.741 347.688C300.741 347.688 274.708 344.795 272.365 353.461H334.187C334.187 353.461 329.669 347.688 307.25 347.688L312.448 265.824H296.822Z" fill="url(#paint0_linear_275_7877)"/>
<path d="M311.226 285.954L304.591 284.948L298.559 309.678L299.464 322.947L310.321 299.123L311.226 285.954Z" fill="#0B1C30"/>
<path d="M344.259 207.711C316.65 176.305 321.712 144.487 298.18 133.73C279.997 125.418 255.184 130.748 245.06 169.797C231.107 223.616 240.731 274.562 299.58 283.481C325.524 287.413 349.847 277.088 356.91 263.227C363.973 249.368 368.226 234.975 344.259 207.711Z" fill="#ED4C1F"/>
<path d="M320.071 329.163L310.197 325.439L307.015 337.775L310.866 339.282L311.408 337.113L315.105 342.255L336.664 350.164C336.664 350.164 333.366 344.306 327.156 340.295C323.272 337.786 320.735 333.681 320.071 329.163Z" fill="#ED4C1F"/>
<path d="M284.984 328.747L276.569 325.969L272.138 338.346L275.613 339.823L277.239 337.926L282.477 342.953L303.092 349.315C303.092 349.315 299.368 343.453 292.746 339.692C288.686 337.386 285.917 333.365 285.004 328.844L284.984 328.747Z" fill="#ED4C1F"/>
<path d="M259.704 229.997C260.703 256.725 293.167 242.141 272.737 327.903C272.737 327.903 281.959 335.588 291.987 334.411C291.987 334.411 320.448 258.923 303.093 247.353C303.093 247.353 330.113 253.932 307.023 326.958C307.023 326.958 316.877 333.447 327.22 332.03C327.22 332.03 342.336 301.371 344.311 275.555C346.021 253.209 258.705 203.27 259.704 229.997Z" fill="#0B1C30"/>
<path d="M277.398 329.897C283.324 312.528 286.419 293.918 286.014 275.555C286.006 275.2 285.453 275.198 285.46 275.555C285.865 293.875 282.776 312.421 276.864 329.75C276.749 330.088 277.283 330.232 277.398 329.897Z" fill="#EEEFF2"/>
<path d="M470.755 281.679L466.836 363.543C466.836 363.543 492.869 360.65 495.211 369.316H433.389C433.389 369.316 437.908 363.543 460.326 363.543L455.128 281.679H470.755Z" fill="#FFB22E"/>
<path d="M470.755 281.679L466.836 363.543C466.836 363.543 492.869 360.65 495.211 369.316H433.389C433.389 369.316 437.908 363.543 460.326 363.543L455.128 281.679H470.755Z" fill="url(#paint1_linear_275_7877)"/>
<path d="M468.648 299.224L457.792 318.122L455.781 295.203L468.648 299.224Z" fill="#0B1C30"/>
<path d="M423.318 223.565C450.927 192.159 445.865 160.341 469.397 149.584C487.581 141.272 512.394 146.601 522.517 185.651C536.47 239.469 526.847 290.416 467.998 299.334C442.054 303.266 417.731 292.941 410.667 279.081C403.604 265.222 399.351 250.83 423.318 223.565Z" fill="#0B1C30"/>
<path d="M419.253 127.991C420.892 124.284 426.228 123.265 429.769 123.783C433.311 124.301 437.489 126.773 439.228 129.598C440.419 131.533 441.002 133.875 442.984 135.238C444.731 136.441 447.209 136.592 448.79 137.964C452.583 141.251 447.571 147.286 450.786 151.012C451.949 152.358 454.02 153.107 454.711 154.666C455.659 156.805 453.414 158.84 453.368 161.079C453.297 164.608 458.557 167.312 458.229 170.816C457.928 174.031 453.374 175.091 451.036 177.47C449.959 178.566 449.327 179.998 448.073 180.937C446.395 182.194 443.946 182.327 441.666 182.273C439.698 182.227 437.687 182.075 435.82 181.417C429.332 179.133 426.468 171.589 419.91 169.493C417.043 168.576 413.861 168.867 411.075 167.748C407.287 166.227 405.121 161.971 406.465 158.684C407.185 156.924 408.747 155.467 409.01 153.588C409.368 151.03 407.219 148.44 407.547 145.877C407.957 142.675 413.123 140.583 413.566 137.386C413.833 135.452 413.358 133.593 413.338 131.629C413.299 127.731 416.485 126.631 420.122 128.074" fill="#0B1C30"/>
<path d="M416.95 202.013L410.524 230.447C410.524 230.447 442.551 232.336 458.722 216.23C458.722 216.23 471.309 156.46 433.319 155.324C403.967 154.446 403.561 174.632 416.95 202.013Z" fill="#ED4C1F"/>
<path d="M393.135 377.864L402.663 377.298L403.212 391.735L398.875 391.629L399.112 390L393.431 391.861L370.469 392.094C370.469 392.094 375.538 387.679 382.732 385.979C387.232 384.916 390.997 381.898 393.135 377.864Z" fill="#0B1C30"/>
<path d="M446.615 377.009L454.433 376.429L456.933 391.212L452.493 391.103L451.766 389.435L444.98 391.341L423.407 391.579C423.407 391.579 428.645 387.018 436.063 385.294C440.611 384.238 444.409 381.171 446.569 377.095L446.615 377.009Z" fill="#0B1C30"/>
<path d="M413.736 214.65C413.736 214.65 438.44 227.506 458.644 216.069C458.644 216.069 466.602 234.73 459.868 260.615C453.133 286.499 444.419 331.999 458.5 378.953C458.5 378.953 447.838 384.47 438.299 381.16C438.299 381.16 417.013 331.045 418.237 298.539C418.237 298.539 401.094 328.035 408.441 379.805C408.441 379.805 397.421 384.018 387.625 380.407C387.625 380.407 380.279 356.328 379.667 330.444C379.055 304.56 385.177 275.665 394.36 257.004C403.544 238.342 411.483 220.243 413.736 214.65Z" fill="#168AC4"/>
<path d="M453.875 219.639C456.525 231.901 454.94 244.517 452.516 256.678C450.064 268.977 446.686 281.104 445.042 293.554C442.868 310.032 441.98 326.522 444.217 343.045C445.942 355.78 449.082 368.286 452.742 380.59C452.842 380.931 453.377 380.786 453.275 380.443C447.441 360.827 443.035 340.667 443.389 320.102C443.526 312.139 444.313 304.211 445.256 296.309C446.736 283.913 449.906 271.859 452.467 259.664C455.232 246.505 457.287 232.814 454.408 219.491C454.334 219.143 453.799 219.29 453.875 219.639Z" fill="#EEEFF2"/>
<path d="M406.239 351.029C406.239 351.029 400.883 291.352 426.053 251.686C426.053 251.686 418.734 269.237 417.842 299.427C417.842 299.427 416.017 303.931 414.094 308.554C407.668 323.999 406.239 351.029 406.239 351.029Z" fill="#0B1C30"/>
<path d="M418.339 299.777C417.915 293.243 418.504 286.654 419.458 280.19C420.441 273.526 421.856 266.916 423.683 260.433C424.556 257.331 425.531 254.256 426.667 251.241C426.792 250.907 426.257 250.763 426.133 251.094C423.951 256.883 422.322 262.884 420.985 268.918C419.514 275.556 418.406 282.3 417.904 289.084C417.641 292.642 417.553 296.215 417.785 299.777C417.808 300.131 418.362 300.133 418.339 299.777Z" fill="#EEEFF2"/>
<path d="M441.096 220.833C444.224 225.375 449.468 228.082 454.975 228.076C455.332 228.076 455.333 227.522 454.975 227.523C449.672 227.529 444.59 224.933 441.574 220.554C441.373 220.261 440.893 220.538 441.096 220.833Z" fill="#EEEFF2"/>
<path d="M436.915 221.553C440.546 228.32 447.741 231.725 455.241 231.777C455.597 231.78 455.597 231.226 455.241 231.224C447.928 231.172 440.936 227.874 437.394 221.274C437.224 220.96 436.745 221.239 436.915 221.553Z" fill="#EEEFF2"/>
<path d="M460.227 222.359C459.542 222.871 458.768 223.204 457.917 223.319C457.57 223.366 457.565 223.92 457.917 223.872C458.867 223.745 459.737 223.413 460.507 222.837C460.789 222.626 460.513 222.145 460.227 222.359Z" fill="#EEEFF2"/>
<path d="M458.722 226.802C459.729 226.763 460.677 226.472 461.524 225.925C461.823 225.733 461.544 225.254 461.245 225.448C460.476 225.943 459.637 226.213 458.722 226.249C458.367 226.261 458.365 226.816 458.722 226.802Z" fill="#EEEFF2"/>
<path d="M426.108 219.465C425.056 226.054 425.102 232.735 426.245 239.308C426.306 239.659 426.84 239.51 426.779 239.162C425.654 232.692 425.607 226.098 426.642 219.613C426.699 219.265 426.165 219.114 426.108 219.465Z" fill="#EEEFF2"/>
<path d="M411.858 219.983C414.18 220.097 416.327 219.079 417.793 217.289C418.017 217.016 417.628 216.621 417.402 216.898C416.02 218.585 414.049 219.536 411.858 219.429C411.501 219.412 411.502 219.967 411.858 219.983Z" fill="#EEEFF2"/>
<path d="M453.3 166.001C453.3 166.001 464.966 172.471 481.228 167.344C497.491 162.219 498.691 142.344 497.873 135.33L512.676 130.393C512.676 130.393 517.784 145.559 511.55 162.897C504.319 183.009 481.504 200.024 448.327 186.649L453.3 166.001Z" fill="#FFB22E"/>
<path d="M513.69 134.656C512.882 129.929 510.798 123.65 508.586 123.751C508.125 123.771 507.737 124.046 507.421 124.367C506.903 123.355 506.212 122.49 505.198 122.647C504.443 122.764 503.984 123.354 503.664 124.075C503.118 123.223 502.511 122.476 501.589 122.618C500.79 122.741 500.28 123.309 499.975 124.094C499.41 123.589 498.525 123.152 497.653 123.57C496.473 124.134 496.727 125.636 497.103 128.131C497.421 130.244 497.897 134.233 498.053 137.436" fill="#FFB22E"/>
<path d="M501.195 128.53C501.04 126.986 500.701 125.496 500.165 124.038C500.081 123.809 499.712 123.908 499.797 124.14C500.32 125.564 500.662 127.021 500.813 128.531C500.836 128.772 501.219 128.775 501.195 128.53Z" fill="#0B1C30"/>
<path d="M508.713 128.554C508.558 127.01 508.22 125.519 507.684 124.062C507.6 123.833 507.23 123.932 507.316 124.164C507.839 125.588 508.18 127.045 508.331 128.555C508.355 128.797 508.738 128.799 508.713 128.554Z" fill="#0B1C30"/>
<path d="M504.81 128.384C504.656 126.838 504.332 125.342 503.797 123.883C503.713 123.654 503.344 123.753 503.429 123.985C503.952 125.41 504.278 126.873 504.428 128.384C504.451 128.626 504.833 128.629 504.81 128.384Z" fill="#0B1C30"/>
<path d="M444.612 185.034C465.422 194.637 477.175 190.962 477.175 190.962C473.025 179.014 475.93 168.614 475.93 168.614C464.977 168.945 453.204 156.047 435.125 155.324" fill="#ED4C1F"/>
<path d="M469.673 168.015C467.095 175.538 466.891 183.864 469.769 191.334C469.899 191.669 470.445 191.524 470.314 191.184C467.468 183.797 467.668 175.605 470.218 168.166C470.335 167.82 469.791 167.672 469.673 168.015Z" fill="#EEEFF2"/>
<path d="M410.198 223.117C414.528 223.582 418.832 221.628 421.306 218.042C421.509 217.748 421.029 217.471 420.828 217.762C418.457 221.199 414.33 223.008 410.198 222.564C409.844 222.526 409.847 223.08 410.198 223.117Z" fill="#EEEFF2"/>
<path d="M422.383 156.756L422.959 153.947C422.959 153.947 415.719 154.502 416.495 148.37C417.847 137.687 417.598 134.713 422.402 132.029C427.205 129.346 437.797 135.523 435.948 144.374L433.596 157.282C433.596 157.282 431.769 158.445 428.414 158.344C424.898 158.235 422.383 156.756 422.383 156.756Z" fill="#FFB22E"/>
<path d="M425.073 142.548C425.055 142.981 424.883 143.323 424.688 143.314C424.493 143.306 424.349 142.947 424.366 142.514C424.384 142.082 424.556 141.739 424.751 141.748C424.947 141.757 425.091 142.115 425.073 142.548Z" fill="#0B1C30"/>
<path d="M419.505 142.256C419.487 142.689 419.315 143.032 419.12 143.023C418.925 143.014 418.781 142.655 418.798 142.224C418.816 141.791 418.988 141.448 419.183 141.457C419.379 141.466 419.523 141.823 419.505 142.256Z" fill="#0B1C30"/>
<path d="M422.722 153.932C422.722 153.932 426.414 153.855 429.196 151.544L422.34 156.936L422.722 153.932Z" fill="#0B1C30"/>
<path d="M421.472 147.018C422.169 147.248 422.924 147.046 423.389 146.473C423.561 146.26 423.26 145.955 423.085 146.169C422.71 146.631 422.151 146.792 421.586 146.605C421.324 146.518 421.211 146.932 421.472 147.018Z" fill="#0B1C30"/>
<path d="M432.825 145.698C432.753 143.642 431.003 142.02 428.916 142.076C426.829 142.132 425.197 143.843 425.269 145.899C425.342 147.955 427.092 149.577 429.178 149.521C431.265 149.466 432.898 147.755 432.825 145.698Z" fill="#0B1C30"/>
<path d="M418.543 145.165C418.505 144.079 417.991 143.124 417.215 142.464C417.005 144.127 416.788 146.06 416.495 148.37C416.485 148.446 416.491 148.51 416.484 148.585C417.746 147.954 418.595 146.655 418.543 145.165Z" fill="#FFB22E"/>
<path d="M418.543 145.165C418.505 144.079 417.991 143.124 417.215 142.464C417.005 144.127 416.788 146.06 416.495 148.37C416.485 148.446 416.491 148.51 416.484 148.585C417.746 147.954 418.595 146.655 418.543 145.165Z" fill="#0B1C30"/>
<path d="M421.202 139.513L422.204 139.487L422.4 145.018L419.994 145.081L421.202 139.513Z" fill="#0B1C30"/>
<path d="M425.636 139.168C425.591 139.458 425.137 139.627 424.621 139.546C424.105 139.465 423.723 139.163 423.768 138.873C423.813 138.584 424.267 138.414 424.783 138.495C425.299 138.577 425.681 138.877 425.636 139.168Z" fill="#0B1C30"/>
<path d="M420.109 138.779C420.21 139.056 419.894 139.419 419.402 139.588C418.91 139.759 418.431 139.672 418.33 139.395C418.229 139.117 418.545 138.755 419.037 138.585C419.528 138.414 420.008 138.501 420.109 138.779Z" fill="#0B1C30"/>
<path d="M439.276 145.776C439.212 143.974 437.678 142.553 435.85 142.602C434.022 142.651 432.591 144.15 432.655 145.952C432.718 147.754 434.252 149.175 436.08 149.126C437.908 149.077 439.338 147.576 439.276 145.776Z" fill="#FFB22E"/>
<path d="M436.669 144.282C435.483 144.142 434.397 145.052 434.31 146.236C434.289 146.511 434.718 146.51 434.739 146.236C434.81 145.267 435.731 144.6 436.669 144.711C436.943 144.743 436.94 144.314 436.669 144.282Z" fill="#0B1C30"/>
<path d="M421.103 132.332C421.178 134.117 422.785 135.504 424.46 136.2C426.136 136.896 427.982 137.136 429.623 137.908C431.264 138.68 432.755 140.248 432.577 142.023C432.529 142.508 432.36 143.007 432.525 143.468C432.704 143.972 433.26 144.283 433.8 144.294C434.34 144.305 434.856 144.061 435.281 143.737C436.399 142.886 436.989 141.476 437.036 140.08C437.082 138.685 436.632 137.305 435.971 136.064C434.701 133.683 432.578 131.697 430.001 130.818C427.423 129.939 424.405 130.256 422.235 131.857" fill="#0B1C30"/>
<path d="M506.964 169.006C505.378 167.188 505.771 163.146 507.841 159.975C509.355 157.656 511.764 156.562 513.345 156.791C512.924 159.754 510.022 167.248 508.159 170.053C507.772 169.912 507.268 169.353 506.964 169.006Z" fill="#0B1C30"/>
<path d="M296.389 163.166C296.389 163.166 308.16 165.362 316.479 178.21C324.798 191.058 314.261 205.494 309.682 209.879L317.1 221.762C317.1 221.762 329.308 214.191 334.912 198.63C341.413 180.581 335.361 155.759 304.758 146.036L296.389 163.166Z" fill="#FFB22E"/>
<path d="M320.239 219.392C316.977 222.2 311.944 225.353 310.47 224.017C310.163 223.739 310.051 223.327 310.016 222.924C309.08 223.328 308.106 223.53 307.494 222.843C307.038 222.33 307.059 221.66 307.249 220.978C306.385 221.254 305.537 221.425 304.98 220.799C304.499 220.257 304.47 219.572 304.708 218.854C304.028 218.88 303.167 218.676 302.801 217.889C302.308 216.823 303.342 215.929 305.029 214.418C306.458 213.138 309.069 210.651 311.009 208.524" fill="#FFB22E"/>
<path d="M307.838 216.252C306.873 217.211 305.801 218.032 304.625 218.713C304.434 218.824 304.606 219.121 304.798 219.009C306 218.313 307.096 217.473 308.081 216.494C308.237 216.339 307.995 216.097 307.838 216.252Z" fill="#0B1C30"/>
<path d="M313.053 220.536C312.089 221.495 311.017 222.315 309.84 222.997C309.649 223.108 309.822 223.405 310.014 223.293C311.215 222.596 312.311 221.758 313.296 220.778C313.452 220.623 313.21 220.38 313.053 220.536Z" fill="#0B1C30"/>
<path d="M310.256 218.421C309.291 219.381 308.227 220.213 307.05 220.898C306.859 221.009 307.031 221.305 307.223 221.194C308.425 220.495 309.513 219.644 310.499 218.664C310.654 218.507 310.412 218.266 310.256 218.421Z" fill="#0B1C30"/>
<path d="M293.037 143.386C320.723 144.704 331.695 165.613 331.695 165.613C321.989 171.505 316.534 178.41 316.534 178.41C313.051 173.573 306.992 166.744 295.575 161.924" fill="#F7F1E6"/>
<path d="M314.063 175.026C317.942 169.371 323.18 164.714 329.098 161.278C329.38 161.115 329.125 160.676 328.842 160.841C322.847 164.321 317.553 169.043 313.625 174.77C313.44 175.04 313.88 175.294 314.063 175.026Z" fill="#168AC4"/>
<path d="M335.234 191.782C333.097 192.132 331.057 195.154 330.676 198.53C330.396 201.001 331.437 203.136 332.663 203.882C334.065 201.591 336.344 194.746 336.659 191.741C336.311 191.616 335.642 191.714 335.234 191.782Z" fill="#0B1C30"/>
<path d="M277.438 163.683C277.438 163.683 265.82 166.579 258.284 179.901C250.749 193.224 262.13 207.004 266.963 211.107L260.269 223.413C260.269 223.413 247.63 216.585 241.104 201.389C233.535 183.761 238.093 158.622 268.059 147.086L277.438 163.683Z" fill="#FFB22E"/>
<path d="M256.992 221.234C260.416 223.842 265.629 226.687 267.02 225.267C267.31 224.971 267.398 224.553 267.408 224.149C268.367 224.496 269.35 224.641 269.92 223.917C270.345 223.378 270.283 222.711 270.053 222.041C270.933 222.265 271.79 222.384 272.308 221.726C272.756 221.157 272.743 220.47 272.462 219.769C273.142 219.754 273.991 219.499 274.307 218.692C274.736 217.599 273.65 216.767 271.876 215.36C270.373 214.168 267.618 211.842 265.555 209.834" fill="#FFB22E"/>
<path d="M268.949 217.608C269.992 218.526 271.133 219.299 272.374 219.924C272.571 220.022 272.744 219.727 272.548 219.628C271.331 219.016 270.213 218.266 269.192 217.366C269.026 217.22 268.783 217.462 268.949 217.608Z" fill="#0B1C30"/>
<path d="M263.999 222.197C265.042 223.115 266.183 223.888 267.425 224.513C267.622 224.611 267.795 224.316 267.598 224.217C266.382 223.605 265.264 222.855 264.242 221.955C264.077 221.808 263.833 222.05 263.999 222.197Z" fill="#0B1C30"/>
<path d="M266.666 219.918C267.709 220.837 268.843 221.623 270.086 222.249C270.282 222.348 270.456 222.053 270.259 221.954C269.043 221.341 267.931 220.577 266.909 219.676C266.743 219.53 266.499 219.771 266.666 219.918Z" fill="#0B1C30"/>
<path d="M280.755 143.264C252.848 141.795 242.342 168.236 242.342 168.236C252.382 173.537 258.241 180.104 258.241 180.104C262.292 172.629 265.869 170.878 276.977 165.384" fill="#F7F1E6"/>
<path d="M261.074 175.717C256.531 170.68 250.786 166.652 244.916 163.31C244.632 163.148 244.377 163.586 244.661 163.747C250.499 167.071 256.198 171.065 260.716 176.076C260.935 176.318 261.293 175.959 261.074 175.717Z" fill="#168AC4"/>
<path d="M240.373 194.57C242.527 194.791 244.746 197.686 245.328 201.034C245.754 203.483 244.843 205.677 243.664 206.495C242.126 204.292 239.442 197.596 238.948 194.614C239.288 194.469 239.962 194.527 240.373 194.57Z" fill="#0B1C30"/>
<path d="M310.834 213.261L318.18 215.635C318.18 215.635 285.386 237.107 267.328 223.15C267.328 223.15 246.893 141.41 286.46 142.68C319.35 143.735 314.409 164.249 310.834 213.261Z" fill="#F7F1E6"/>
<path d="M287.046 209.038C284.03 213.417 278.948 216.012 273.644 216.007C273.288 216.007 273.288 216.56 273.644 216.56C279.152 216.566 284.396 213.858 287.524 209.317C287.726 209.023 287.247 208.746 287.046 209.038Z" fill="#EEEFF2"/>
<path d="M291.227 209.758C287.684 216.359 280.692 219.656 273.379 219.707C273.023 219.71 273.022 220.263 273.379 220.261C280.879 220.209 288.073 216.804 291.705 210.038C291.875 209.723 291.397 209.443 291.227 209.758Z" fill="#EEEFF2"/>
<path d="M268.113 211.322C268.884 211.897 269.753 212.229 270.704 212.357C271.055 212.404 271.052 211.849 270.704 211.803C269.853 211.69 269.079 211.356 268.394 210.844C268.107 210.63 267.83 211.11 268.113 211.322Z" fill="#EEEFF2"/>
<path d="M269.898 214.732C268.984 214.697 268.146 214.428 267.376 213.931C267.075 213.737 266.798 214.216 267.097 214.409C267.944 214.956 268.892 215.246 269.898 215.286C270.255 215.3 270.254 214.746 269.898 214.732Z" fill="#EEEFF2"/>
<path d="M301.978 208.097C303.013 214.582 302.965 221.176 301.841 227.645C301.78 227.994 302.314 228.144 302.374 227.792C303.517 221.218 303.563 214.538 302.512 207.949C302.456 207.599 301.922 207.748 301.978 208.097Z" fill="#EEEFF2"/>
<path d="M316.762 207.915C314.57 208.021 312.6 207.07 311.218 205.383C310.992 205.107 310.602 205.501 310.827 205.775C312.293 207.565 314.44 208.582 316.762 208.469C317.117 208.45 317.119 207.897 316.762 207.915Z" fill="#EEEFF2"/>
<path d="M318.422 211.048C314.29 211.493 310.163 209.682 307.792 206.246C307.591 205.954 307.11 206.231 307.314 206.525C309.789 210.111 314.093 212.067 318.422 211.602C318.772 211.564 318.776 211.01 318.422 211.048Z" fill="#EEEFF2"/>
<path d="M280.136 141.487C280.002 140.116 278.185 139.748 276.808 139.8C275.432 139.852 273.641 139.676 273.297 138.342C273.131 137.701 273.403 137.005 273.222 136.37C272.962 135.461 271.937 135.061 271.152 134.535C269.227 133.246 268.475 130.47 269.483 128.385C270.247 126.805 271.837 125.691 272.39 124.026C272.878 122.557 272.462 120.963 272.411 119.416C272.36 117.87 272.915 116.04 274.395 115.589C275.557 115.236 276.762 115.888 277.967 116.043C280.169 116.326 282.223 114.929 283.852 113.421C285.482 111.914 287.032 110.166 289.139 109.465C291.245 108.763 294.102 109.699 294.475 111.887C294.727 113.367 293.782 114.9 294.192 116.345C294.7 118.141 296.87 118.737 298.639 119.331C300.408 119.926 302.389 121.508 301.729 123.253C301.543 123.746 301.164 124.142 300.946 124.622C299.744 127.27 303.904 130.034 302.931 132.773C302.234 134.732 299.502 134.998 298.121 136.553C297.648 137.085 297.356 137.749 296.968 138.347C295.07 141.274 291.284 142.201 287.864 142.89" fill="#0B1C30"/>
<path d="M281.941 141.304L281.828 144.665C281.828 144.665 283.586 145.848 286.869 145.831C290.312 145.813 292.808 144.428 292.808 144.428L292.377 140.951" fill="#FFB22E"/>
<path d="M287.513 142.099C287.513 142.099 296.729 142.386 296.122 136.368C295.063 125.886 295.874 121.884 290.747 120.24C281.411 117.247 275.603 123.277 277.193 131.98C277.193 131.98 275.927 140.95 282.207 141.568" fill="#FFB22E"/>
<path d="M283.468 130.464C283.474 130.887 283.635 131.227 283.826 131.223C284.017 131.219 284.167 130.872 284.161 130.448C284.154 130.025 283.994 129.684 283.803 129.689C283.611 129.694 283.462 130.041 283.468 130.464Z" fill="#0B1C30"/>
<path d="M288.921 130.316C288.928 130.739 289.087 131.08 289.278 131.075C289.469 131.071 289.619 130.724 289.613 130.301C289.607 129.878 289.447 129.537 289.256 129.542C289.065 129.546 288.915 129.893 288.921 130.316Z" fill="#0B1C30"/>
<path d="M287.299 134.365C286.818 134.629 286.244 134.587 285.824 134.227C285.619 134.053 285.321 134.347 285.527 134.524C286.097 135.01 286.854 135.087 287.511 134.727C287.749 134.598 287.537 134.236 287.299 134.365Z" fill="#0B1C30"/>
<path d="M294.196 133.185C294.261 132.124 294.787 131.202 295.563 130.575C295.727 132.208 295.892 134.102 296.121 136.369C296.129 136.445 296.121 136.507 296.127 136.58C294.907 135.933 294.108 134.641 294.196 133.185Z" fill="#FFB22E"/>
<path d="M287.158 127.591L286.179 127.54L285.567 133.078L287.982 133.067L287.158 127.591Z" fill="#0B1C30"/>
<path d="M283.083 127.145C283.121 127.43 283.561 127.606 284.068 127.539C284.575 127.473 284.955 127.188 284.919 126.903C284.881 126.618 284.442 126.442 283.934 126.508C283.428 126.574 283.047 126.86 283.083 127.145Z" fill="#0B1C30"/>
<path d="M288.214 126.682C288.131 126.959 288.461 127.295 288.95 127.433C289.44 127.571 289.904 127.459 289.987 127.182C290.07 126.906 289.74 126.569 289.25 126.431C288.761 126.293 288.297 126.405 288.214 126.682Z" fill="#0B1C30"/>
<path d="M272.265 133.27C272.371 131.509 273.906 130.158 275.693 130.25C277.48 130.343 278.842 131.845 278.736 133.605C278.629 135.366 277.093 136.717 275.307 136.625C273.52 136.533 272.158 135.031 272.265 133.27Z" fill="#FFB22E"/>
<path d="M274.845 132.294C275.767 132.209 276.644 132.89 276.69 133.838C276.703 134.106 277.123 134.108 277.109 133.838C277.053 132.677 276.005 131.767 274.845 131.875C274.579 131.899 274.576 132.319 274.845 132.294Z" fill="#0B1C30"/>
<path d="M301.071 133.27C300.964 131.509 299.43 130.158 297.642 130.25C295.854 130.343 294.492 131.845 294.599 133.605C294.706 135.366 296.241 136.717 298.027 136.625C299.815 136.533 301.178 135.031 301.071 133.27Z" fill="#FFB22E"/>
<path d="M298.491 131.875C297.33 131.767 296.282 132.677 296.226 133.838C296.214 134.108 296.633 134.107 296.646 133.838C296.692 132.89 297.568 132.209 298.491 132.294C298.759 132.319 298.757 131.899 298.491 131.875Z" fill="#0B1C30"/>
<path d="M298.068 144.679C292.366 150.272 283.286 150.775 277.092 145.672C276.819 145.446 276.426 145.836 276.701 146.063C283.126 151.357 292.53 150.887 298.459 145.07C298.714 144.821 298.322 144.429 298.068 144.679Z" fill="#168AC4"/>
<path d="M481.961 250.148H471.326C443.835 239.025 366.115 231.008 274.522 231.008C182.929 231.008 105.207 239.026 77.7191 250.148H67.0831V257.23H67.5189C67.2408 257.824 67.0831 258.422 67.0831 259.025C67.0831 274.499 159.957 287.041 274.523 287.041C389.089 287.041 481.962 274.498 481.962 259.025C481.962 258.422 481.805 257.824 481.527 257.23H481.962V250.148H481.961Z" fill="#0B1C30"/>
<path d="M274.522 280.607C389.088 280.607 481.961 268.064 481.961 252.59C481.961 237.117 389.088 224.573 274.522 224.573C159.956 224.573 67.0822 237.117 67.0822 252.59C67.0822 268.064 159.956 280.607 274.522 280.607Z" fill="#F7F1E6"/>
<path d="M323.784 228.204L382.939 134.105H194.265L250.326 228.978L323.784 228.204Z" fill="url(#paint2_linear_275_7877)"/>
<path d="M256.652 236.604H318.02C322.639 236.604 326.383 232.861 326.383 228.241V196.158C326.383 191.54 322.64 187.795 318.02 187.795H256.652C252.033 187.795 248.289 191.539 248.289 196.158V228.241C248.289 232.861 252.034 236.604 256.652 236.604Z" fill="#0B1C30"/>
<path d="M283.785 212.667C283.785 210.706 285.375 209.115 287.337 209.115C289.298 209.115 290.888 210.706 290.888 212.667C290.888 214.629 289.298 216.219 287.337 216.219C285.375 216.219 283.785 214.629 283.785 212.667Z" fill="white"/>
<path d="M405.388 245.853L371.401 241.514L320.781 245.129L362 253.807L405.388 245.853Z" fill="#98D2E3"/>
<path d="M277.924 134.031C278.023 132.398 279.448 131.142 281.105 131.228C282.764 131.314 284.029 132.709 283.93 134.342C283.831 135.977 282.406 137.231 280.748 137.145C279.089 137.059 277.825 135.665 277.924 134.031Z" fill="#0B1C30"/>
<path d="M289.532 134.188C289.625 132.657 290.959 131.482 292.513 131.562C294.066 131.643 295.251 132.949 295.158 134.48C295.065 136.01 293.731 137.185 292.177 137.105C290.624 137.024 289.439 135.717 289.532 134.188Z" fill="#0B1C30"/>
<path d="M275.388 127.641C275.41 128.808 275.456 130.052 276.131 131.004C276.805 131.956 278.358 132.365 279.136 131.497C280.398 130.089 278.408 127.288 279.915 126.145C281.157 125.202 283.245 126.79 284.411 125.753C285.119 125.125 284.929 123.986 285.246 123.095C285.647 121.966 287.002 121.293 288.156 121.613C289.311 121.933 290.119 123.168 289.995 124.36C289.959 124.705 289.857 125.067 289.986 125.39C290.374 126.367 291.931 125.679 292.878 126.134C294.538 126.932 292.88 130.035 294.346 131.149C295.093 131.717 296.215 131.328 296.874 130.66C298.213 129.304 298.324 127.065 297.558 125.318C296.793 123.572 295.31 122.245 293.751 121.147C292.598 120.335 291.37 119.612 290.04 119.144C286.829 118.013 283.092 118.501 280.279 120.416C277.464 122.333 275.642 125.63 275.518 129.033" fill="#0B1C30"/>
<path d="M420.078 162.62C420.078 162.62 419.972 162.618 419.775 162.625C417.473 162.708 400.572 168.023 396.827 187.288C390.633 219.155 376.24 228.95 367.475 232.814L379.078 244.1C379.078 244.1 402.347 233.941 409.31 211.894C410.734 207.383 412.091 202.229 413.331 196.993C417.303 180.225 420.078 162.62 420.078 162.62Z" fill="#FFB22E"/>
<path d="M371.773 230.748C365.111 233.169 360.123 237.512 360.816 239.411C360.96 239.807 361.305 240.07 361.671 240.257C360.932 240.985 360.368 241.823 360.781 242.663C361.09 243.289 361.728 243.526 362.444 243.608C361.853 244.316 361.368 245.051 361.743 245.814C362.069 246.476 362.704 246.765 363.471 246.815C363.186 247.444 363.048 248.334 363.649 248.98C364.463 249.852 365.701 249.221 367.771 248.211C369.523 247.356 370.848 246.728 373.595 245.717C373.595 245.717 371.211 248.985 373.629 249.237C376.183 249.504 381.712 240.019 381.712 240.019L371.773 230.748Z" fill="#FFB22E"/>
<path d="M366.964 244.554C365.662 245.109 364.46 245.822 363.341 246.687C363.164 246.824 363.413 247.069 363.588 246.934C364.682 246.088 365.868 245.397 367.14 244.856C367.346 244.768 367.167 244.468 366.964 244.554Z" fill="#0B1C30"/>
<path d="M364.928 238.002C363.626 238.556 362.424 239.269 361.306 240.135C361.128 240.272 361.377 240.517 361.552 240.382C362.646 239.536 363.832 238.845 365.104 238.304C365.31 238.216 365.133 237.915 364.928 238.002Z" fill="#0B1C30"/>
<path d="M365.847 241.447C364.56 241.994 363.356 242.684 362.248 243.54C362.073 243.675 362.247 243.979 362.425 243.84C363.532 242.985 364.737 242.295 366.024 241.748C366.229 241.661 366.052 241.36 365.847 241.447Z" fill="#0B1C30"/>
<path d="M402.112 223.241C400.727 221.361 401.428 217.491 403.68 214.598C405.327 212.482 407.739 211.618 409.246 211.966C408.603 214.79 405.203 221.79 403.18 224.347C402.818 224.181 402.376 223.6 402.112 223.241Z" fill="#0B1C30"/>
<path d="M422.327 156.407C422.327 156.407 397.703 153.155 395.804 191.663C395.804 191.663 400.407 196.773 412.908 199.899L422.327 156.407Z" fill="#ED4C1F"/>
<path d="M418.895 159.357C425.505 164.326 434.892 163.573 440.545 157.511C440.788 157.251 440.397 156.858 440.153 157.119C434.654 163.017 425.594 163.704 419.174 158.878C418.89 158.665 418.614 159.145 418.895 159.357Z" fill="#EEEFF2"/>
<path d="M409.82 179.913C410.094 187.553 412.712 195.662 416.808 202.106C416.999 202.405 417.478 202.128 417.286 201.827C413.247 195.473 410.643 187.45 410.373 179.913C410.36 179.558 409.807 179.557 409.82 179.913Z" fill="#EEEFF2"/>
<path d="M396.203 186.756C401.303 190.205 407.146 192.713 413.075 194.341C413.431 194.439 413.582 193.887 413.227 193.79C407.339 192.174 401.556 189.688 396.492 186.263C396.186 186.055 395.899 186.551 396.203 186.756Z" fill="#EEEFF2"/>
<path d="M460.797 190.758L454.289 188.589C454.289 188.589 459.186 197.991 458.808 216.068C458.808 216.068 461.34 206.486 460.797 190.758Z" fill="#0B1C30"/>
<path d="M477.275 261.455L468.971 406.052H463.743L467.172 266.867L477.275 261.455Z" fill="#F7F1E6"/>
<path d="M269.657 286.972H281.255L277.518 406.052H272.879L269.657 286.972Z" fill="#F7F1E6"/>
<path d="M281.255 286.972L270.044 306.303L269.657 286.972H281.255Z" fill="#0B1C30"/>
<path d="M477.276 261.455L467.172 266.867L466.45 285.426L477.276 261.455Z" fill="#0B1C30"/>
<path d="M146.323 243.281L184.213 240.189L225.195 247.921L154.829 254.88L146.323 243.281Z" fill="#98D2E3"/>
<path d="M208.57 239.249L208.183 241.472L240.66 244.13L241.047 242.438L208.57 239.249Z" fill="#ED4C1F"/>
<path d="M307.164 247.334L306.523 249.497L338.472 255.902L339.052 254.267L307.164 247.334Z" fill="#0B1C30"/>
<path d="M411.341 251.36V252.949L425.555 255.193L444.912 250.798L445.006 249.489L429.763 248.273L411.341 251.36Z" fill="#0B1C30"/>
<path d="M413.21 251.36L426.677 253.417L441.827 250.237L427.238 249.021L413.21 251.36Z" fill="#F9DFE2"/>
<path d="M413.21 251.36L392.449 213.486C392.449 213.486 461.604 212.785 460.903 213.486C460.202 214.187 441.826 250.237 441.826 250.237L426.676 253.417L413.21 251.36Z" fill="url(#paint3_linear_275_7877)"/>
<path d="M163.021 139.287C163.021 139.287 170.813 168.705 152.037 157.879L152.277 176.247L138.276 161.647L143.991 143.912C143.991 143.912 142.62 126.678 163.021 139.287Z" fill="#FFB22E"/>
<path d="M160.533 148.723C160.432 149.179 160.514 149.586 160.717 149.63C160.92 149.675 161.165 149.341 161.266 148.885C161.367 148.428 161.284 148.023 161.081 147.978C160.879 147.934 160.634 148.267 160.533 148.723Z" fill="#0B1C30"/>
<path d="M162.999 153.93C162.362 153.971 161.833 153.639 161.58 153.056C161.462 152.786 161.066 153.019 161.183 153.289C161.496 154.007 162.219 154.439 162.999 154.389C163.292 154.37 163.294 153.91 162.999 153.93Z" fill="#0B1C30"/>
<path d="M160.882 145.04C160.849 145.355 161.269 145.659 161.821 145.717C162.372 145.776 162.847 145.568 162.88 145.253C162.913 144.937 162.493 144.634 161.942 144.576C161.391 144.516 160.917 144.725 160.882 145.04Z" fill="#0B1C30"/>
<path d="M164.038 144.877L164.475 145.716L167.623 151.983L164.4 152.711L164.038 144.877Z" fill="#FFC72E"/>
<path d="M164.038 144.877L164.475 145.716L167.623 151.983L164.4 152.711L164.038 144.877Z" fill="#0B1C30"/>
<path d="M154.608 159.28L151.979 157.795L152.147 164.052L154.608 159.28Z" fill="#0B1C30"/>
<path d="M149.188 147.603C151.45 148.952 154.836 147.514 155.436 144.949C155.603 144.234 155.589 143.458 155.954 142.82C156.478 141.903 157.637 141.549 158.693 141.538C159.748 141.528 160.798 141.779 161.852 141.715C163.822 141.596 165.75 140.142 166.031 138.188C166.312 136.234 164.517 134.146 162.568 134.453C162.008 134.541 161.485 134.799 160.925 134.893C158.361 135.323 156.624 132.458 154.454 131.025C151.388 128.999 146.661 130.307 145.073 133.621C144.704 134.391 144.487 135.235 144.046 135.966C143.154 137.443 141.498 138.243 140.186 139.363C138.874 140.483 137.854 142.42 138.761 143.886C139.134 144.486 139.783 144.911 140.02 145.576C140.421 146.704 139.473 147.829 139.222 149C138.861 150.68 140.118 152.441 141.758 152.95C143.399 153.458 145.242 152.878 146.556 151.771C147.869 150.663 148.714 149.093 149.301 147.479" fill="#0B1C30"/>
<path d="M146.074 146.656C146.633 144.793 148.596 143.738 150.459 144.297C152.322 144.857 153.377 146.82 152.818 148.682C152.258 150.545 150.295 151.6 148.433 151.041C146.57 150.482 145.515 148.519 146.074 146.656Z" fill="#FFB22E"/>
<path d="M149.037 146.269C150.041 146.411 150.794 147.382 150.599 148.398C150.543 148.687 150.986 148.81 151.042 148.52C151.28 147.282 150.427 146.006 149.159 145.826C148.871 145.785 148.745 146.228 149.037 146.269Z" fill="#0B1C30"/>
<path d="M117.267 169.576C117.267 169.576 135.306 169.913 118.824 179.864C105.639 187.825 91.5455 189.544 92.5757 201.679C93.2358 209.444 113.359 213.966 126.72 211.962C135.395 210.662 136.688 230.505 108.745 228.809C78.4859 226.973 72.8247 209.354 71.1227 202.252C68.9526 193.195 74.4689 172.311 102.67 164.353C134.324 155.42 117.267 169.576 117.267 169.576Z" fill="#FFB22E"/>
<path d="M98 190.605C102.756 187.489 111.754 184.133 118.824 179.864C135.306 169.913 149.527 160.397 149.527 160.397C149.527 160.397 127.903 152.738 105.232 160.999C98.6483 163.399 91.6729 167.328 86.1262 171.94C86.1262 171.94 87.4923 176.628 90.9472 182.16C93.8851 186.866 98 190.605 98 190.605Z" fill="#168AC4"/>
<path d="M102.896 187.613C97.6072 182.395 93.7792 175.911 91.3349 168.918C91.2213 168.592 90.6994 168.732 90.8149 169.061C93.2896 176.141 97.1597 182.71 102.514 187.994C102.762 188.239 103.144 187.857 102.896 187.613Z" fill="#EEEFF2"/>
<path d="M71.9903 197.391C74.3406 197.938 76.4069 201.494 76.6076 205.333C76.7535 208.143 75.8585 210.319 74.4473 211.075C72.5554 207.646 71.6476 204.446 71.1217 202.251C70.7936 200.883 70.6458 199.24 70.7202 197.418C71.1158 197.302 71.5418 197.288 71.9903 197.391Z" fill="#0B1C30"/>
<path d="M154.348 203.085L144.303 230.003C144.303 230.003 109.35 238.842 95.5889 219.156C95.5889 219.156 92.2721 159.216 135.063 158.891C165.632 158.658 165.394 174.218 154.348 203.085Z" fill="#168AC4"/>
<path d="M163.909 390.263L153.967 389.663L153.395 404.985L157.919 404.872L157.672 403.143L163.601 405.119L187.562 405.366C187.562 405.366 182.272 400.68 174.765 398.876C170.069 397.748 166.14 394.546 163.909 390.263Z" fill="#0B1C30"/>
<path d="M108.103 389.356L99.9458 388.741L97.3361 404.43L101.969 404.315L102.728 402.544L109.81 404.568L132.321 404.82C132.321 404.82 126.855 399.98 119.115 398.15C114.369 397.029 110.406 393.774 108.151 389.448L108.103 389.356Z" fill="#0B1C30"/>
<path d="M144.692 228.833C144.692 228.833 116.634 230.694 95.5517 218.556C95.5517 218.556 87.2464 238.359 94.2737 265.83C101.301 293.301 110.395 341.589 95.7015 391.419C95.7015 391.419 106.827 397.274 116.781 393.761C116.781 393.761 138.993 340.576 137.717 306.078C137.717 306.078 155.604 337.381 147.938 392.322C147.938 392.322 159.438 396.794 169.659 392.96C169.659 392.96 177.324 367.406 177.964 339.936C178.602 312.465 172.215 281.801 162.631 261.996C153.047 242.193 147.043 234.767 144.692 228.833Z" fill="#ED4C1F"/>
<path d="M136.973 239.179C129.49 240.224 121.871 239.447 114.743 236.945C114.388 236.821 114.235 237.384 114.588 237.508C121.823 240.048 129.537 240.802 137.128 239.741C137.498 239.689 137.34 239.127 136.973 239.179Z" fill="#EEEFF2"/>
<path d="M136.36 243.509C129.261 245.364 121.34 244.486 114.624 241.628C114.283 241.483 113.986 241.985 114.33 242.132C121.195 245.053 129.255 245.969 136.516 244.072C136.877 243.977 136.724 243.414 136.36 243.509Z" fill="#EEEFF2"/>
<path d="M105.133 234.628C101.016 234.547 97.101 233.196 93.7998 230.737C93.4992 230.513 93.2083 231.019 93.506 231.24C96.8865 233.758 100.921 235.128 105.134 235.21C105.508 235.218 105.508 234.635 105.133 234.628Z" fill="#EEEFF2"/>
<path d="M101.322 238.716C98.2125 238.46 95.3119 237.282 92.9048 235.296C92.6179 235.059 92.2027 235.47 92.4926 235.709C95.0289 237.801 98.0451 239.029 101.322 239.299C101.696 239.33 101.693 238.747 101.322 238.716Z" fill="#EEEFF2"/>
<path d="M141.913 229.383C141.931 234.728 142.91 239.968 144.735 244.988C146.492 249.819 148.911 254.371 151.355 258.88C154.08 263.91 156.825 268.934 159.071 274.201C160.828 278.323 162.248 282.577 163.461 286.888C169.058 306.772 170.79 327.827 169.852 348.412C169.157 363.641 166.85 378.776 162.988 393.522C162.893 393.886 163.455 394.04 163.55 393.677C169.974 369.15 172.112 343.483 169.711 318.236C168.812 308.789 167.293 299.379 164.946 290.18C162.564 280.837 159.059 272.041 154.527 263.526C151.702 258.218 148.646 253.006 146.322 247.449C143.913 241.689 142.518 235.642 142.496 229.383C142.495 229.008 141.912 229.007 141.913 229.383Z" fill="#EEEFF2"/>
<path d="M148.304 237.421C148.425 240.232 147.61 243.504 145.022 245.015C144.699 245.204 144.992 245.707 145.316 245.518C148.082 243.902 149.017 240.44 148.886 237.421C148.871 237.047 148.288 237.045 148.304 237.421Z" fill="#EEEFF2"/>
<path d="M150.486 241.805C150.035 244.709 149.107 247.36 146.599 249.099C146.292 249.312 146.584 249.817 146.892 249.603C149.531 247.772 150.57 245.036 151.048 241.96C151.105 241.594 150.544 241.436 150.486 241.805Z" fill="#EEEFF2"/>
<path d="M108.593 232.834C107.829 236.658 107.403 240.529 107.32 244.428C107.312 244.803 107.895 244.803 107.903 244.428C107.985 240.581 108.401 236.763 109.154 232.989C109.229 232.622 108.666 232.465 108.593 232.834Z" fill="#EEEFF2"/>
<path d="M110.752 224.918C110.275 226.312 109.845 227.719 109.461 229.141C109.364 229.503 109.926 229.658 110.024 229.295C110.407 227.874 110.837 226.466 111.314 225.073C111.436 224.718 110.874 224.566 110.752 224.918Z" fill="#EEEFF2"/>
<path d="M150.462 162.338C150.462 162.338 167.63 164.175 176.38 181.856C183.38 196.001 181.864 209.335 197.245 208.917C205.228 208.699 210.733 190.356 209.831 176.542C209.235 167.417 229.736 167.142 225.494 196.339C221.029 227.078 202.555 231.351 195.156 232.481C185.723 233.921 164.871 226.501 159.158 197.023C152.746 163.937 150.462 162.338 150.462 162.338Z" fill="#FFB22E"/>
<path d="M185.608 203.751C182.834 198.627 180.133 189.441 176.38 181.856C167.63 164.175 151.659 161.75 151.659 161.75C151.659 161.75 135.843 158.694 157.683 199.578C161.067 205.911 162.756 209.86 165.49 214.566C165.49 214.566 170.394 213.572 176.338 210.519C181.394 207.921 185.608 203.751 185.608 203.751Z" fill="#168AC4"/>
<path d="M209.152 190.468C209.906 183.943 209.405 178.468 209.028 174.796C208.482 166.159 207.313 163.915 209.177 163.217C211.039 162.518 212.307 167.63 212.653 171.348C212.673 171.556 212.687 171.762 212.701 171.965L212.76 171.963C212.571 170.122 213.016 168.803 214.117 168.68C214.905 168.592 215.718 169.251 216.298 170.307C216.545 169.332 217.07 168.654 217.784 168.574C218.522 168.492 219.281 169.066 219.851 170.004C220.08 169.154 220.544 168.453 221.178 168.494C224.285 168.696 225.691 181.686 226.126 188.121" fill="#FFB22E"/>
<path d="M182.912 198.799C177.133 203.753 170.175 207.097 162.827 208.993C162.483 209.082 162.628 209.615 162.974 209.526C170.417 207.605 177.45 204.205 183.303 199.189C183.573 198.957 183.181 198.568 182.912 198.799Z" fill="#EEEFF2"/>
<path d="M190.269 231.178C191.027 228.825 194.835 227.019 198.774 227.144C201.655 227.235 203.8 228.336 204.451 229.841C200.789 231.479 197.443 232.131 195.156 232.481C193.731 232.698 192.042 232.709 190.187 232.477C190.102 232.064 190.123 231.627 190.269 231.178Z" fill="#0B1C30"/>
<path d="M156.804 197.24L152.941 191.032L149.526 215.539L156.804 197.24Z" fill="#0B1C30"/>
<path d="M98.9792 190.152C98.9792 190.152 104.629 174.86 109.451 170.039C109.451 170.039 97.6993 179.681 94.0074 186.273C95.0621 187.704 95.8505 188.726 97.9628 190.642L98.9792 190.152Z" fill="#0B1C30"/>
<path d="M89.914 324.957L93.6294 402.565C93.6294 402.565 68.9496 399.823 66.7286 408.038H125.337C125.337 408.038 121.053 402.565 99.7999 402.565L104.728 324.957H89.914Z" fill="#FFB22E"/>
<path d="M89.914 324.957L93.6294 402.565C93.6294 402.565 68.9496 399.823 66.7286 408.038H125.337C125.337 408.038 121.053 402.565 99.7999 402.565L104.728 324.957H89.914Z" fill="url(#paint4_linear_275_7877)"/>
<path d="M103.138 342.651L91.6787 362.755L90.2715 338.629L103.138 342.651Z" fill="#0B1C30"/>
<path d="M131.405 269.865C105.232 240.092 110.031 209.928 87.7228 199.73C70.4855 191.851 46.9623 196.903 37.3643 233.921C24.1362 284.942 33.2602 333.24 89.0497 341.695C113.644 345.422 136.703 335.634 143.4 322.495C150.094 309.355 154.127 295.712 131.405 269.865Z" fill="#0B1C30"/>
<path d="M98.6727 330.193C42.9321 321.746 30.1486 276.622 39.6995 226.303C38.8534 228.683 38.0661 231.206 37.362 233.921C24.1349 284.942 33.2578 333.24 89.0473 341.695C113.224 345.358 135.905 335.96 143.03 323.159C131.573 329.475 115.455 332.736 98.6727 330.193Z" fill="#F7F1E6"/>
<path d="M240.271 107.17H176.87C169.395 107.17 163.335 101.111 163.335 93.6358C163.335 86.161 169.395 80.1012 176.87 80.1012H240.271C247.745 80.1012 253.805 86.161 253.805 93.6358C253.805 101.111 247.745 107.17 240.271 107.17Z" fill="#F7F1E6"/>
<path d="M178.295 101.472L173.308 115.719L191.829 101.472H178.295Z" fill="#F7F1E6"/>
<path d="M240.448 90.4971H176.582C176.286 90.4971 176.047 90.2572 176.047 89.9615C176.047 89.6657 176.286 89.4258 176.582 89.4258H240.448C240.744 89.4258 240.983 89.6657 240.983 89.9615C240.982 90.2582 240.743 90.4971 240.448 90.4971Z" fill="#0B1C30"/>
<path d="M240.448 94.8285H176.582C176.286 94.8285 176.047 94.5886 176.047 94.2929C176.047 93.9971 176.286 93.7572 176.582 93.7572H240.448C240.744 93.7572 240.983 93.9971 240.983 94.2929C240.982 94.5886 240.743 94.8285 240.448 94.8285Z" fill="#0B1C30"/>
<path d="M210.024 99.2519H176.581C176.285 99.2519 176.046 99.0119 176.046 98.7162C176.046 98.4205 176.285 98.1805 176.581 98.1805H210.024C210.319 98.1805 210.559 98.4205 210.559 98.7162C210.559 99.0119 210.319 99.2519 210.024 99.2519Z" fill="#0B1C30"/>
<path d="M380.042 107.17H410.386C417.861 107.17 423.92 101.111 423.92 93.6358C423.92 86.161 417.861 80.1012 410.386 80.1012H380.042C372.567 80.1012 366.507 86.161 366.507 93.6358C366.506 101.111 372.566 107.17 380.042 107.17Z" fill="#168AC4"/>
<path d="M408.961 101.472L413.948 115.719L395.427 101.472H408.961Z" fill="#168AC4"/>
<path d="M378.641 91.6576H410.674C410.97 91.6576 411.21 91.4177 411.21 91.122C411.21 90.8262 410.97 90.5863 410.674 90.5863H378.641C378.345 90.5863 378.105 90.8262 378.105 91.122C378.106 91.4177 378.345 91.6576 378.641 91.6576Z" fill="#F9DFE2"/>
<path d="M394.493 95.9881H410.674C410.97 95.9881 411.21 95.7482 411.21 95.4524C411.21 95.1567 410.97 94.9167 410.674 94.9167H394.493C394.197 94.9167 393.958 95.1567 393.958 95.4524C393.958 95.7482 394.197 95.9881 394.493 95.9881Z" fill="#F9DFE2"/>
<path d="M504.267 192.8C507.324 212.066 504.002 232.189 495.115 249.539C492.633 254.384 489.716 258.995 486.41 263.32C486.19 263.609 486.68 263.89 486.898 263.605C498.781 248.059 505.454 228.738 505.926 209.19C506.06 203.654 505.68 198.119 504.812 192.651C504.755 192.292 504.212 192.444 504.267 192.8Z" fill="#EEEFF2"/>
</g>
<defs>
<filter id="filter0_d_275_7877" x="0" y="0.472656" width="550.56" height="415.566" filterUnits="userSpaceOnUse" color-interpolation-filters="sRGB">
<feFlood flood-opacity="0" result="BackgroundImageFix"/>
<feColorMatrix in="SourceAlpha" type="matrix" values="0 0 0 0 0 0 0 0 0 0 0 0 0 0 0 0 0 0 127 0" result="hardAlpha"/>
<feOffset dy="4"/>
<feGaussianBlur stdDeviation="2"/>
<feComposite in2="hardAlpha" operator="out"/>
<feColorMatrix type="matrix" values="0 0 0 0 0 0 0 0 0 0 0 0 0 0 0 0 0 0 0.15 0"/>
<feBlend mode="normal" in2="BackgroundImageFix" result="effect1_dropShadow_275_7877"/>
<feBlend mode="normal" in="SourceGraphic" in2="effect1_dropShadow_275_7877" result="shape"/>
</filter>
<linearGradient id="paint0_linear_275_7877" x1="303.276" y1="278.626" x2="303.276" y2="352.073" gradientUnits="userSpaceOnUse">
<stop stop-color="white"/>
<stop offset="1" stop-color="white" stop-opacity="0"/>
</linearGradient>
<linearGradient id="paint1_linear_275_7877" x1="464.301" y1="279.605" x2="464.301" y2="356.968" gradientUnits="userSpaceOnUse">
<stop stop-color="white"/>
<stop offset="1" stop-color="white" stop-opacity="0"/>
</linearGradient>
<linearGradient id="paint2_linear_275_7877" x1="288.602" y1="219.942" x2="288.602" y2="132.586" gradientUnits="userSpaceOnUse">
<stop stop-color="white"/>
<stop offset="1" stop-color="white" stop-opacity="0"/>
</linearGradient>
<linearGradient id="paint3_linear_275_7877" x1="426.679" y1="253.323" x2="426.679" y2="217.973" gradientUnits="userSpaceOnUse">
<stop stop-color="white"/>
<stop offset="1" stop-color="white" stop-opacity="0"/>
</linearGradient>
<linearGradient id="paint4_linear_275_7877" x1="96.0324" y1="317.797" x2="96.0324" y2="394.185" gradientUnits="userSpaceOnUse">
<stop stop-color="white"/>
<stop offset="1" stop-color="white" stop-opacity="0"/>
</linearGradient>
</defs>
</svg>
