<svg width="679" height="671" viewBox="0 0 679 671" fill="none" xmlns="http://www.w3.org/2000/svg">
<g filter="url(#filter0_d_275_7034)">
<path d="M675 513.178H4V513.514H675V513.178Z" fill="#EBEBEB"/>
<path d="M607.767 534.779H563.317V535.115H607.767V534.779Z" fill="#EBEBEB"/>
<path d="M448.497 538.421H436.831V538.757H448.497V538.421Z" fill="#EBEBEB"/>
<path d="M561.974 522.317H536.218V522.653H561.974V522.317Z" fill="#EBEBEB"/>
<path d="M132.365 524.572H74.3999V524.907H132.365V524.572Z" fill="#EBEBEB"/>
<path d="M152.813 524.572H144.314V524.907H152.813V524.572Z" fill="#EBEBEB"/>
<path d="M306.147 530.239H180.434V530.575H306.147V530.239Z" fill="#EBEBEB"/>
<path d="M322.073 453.328H62.9338C58.7105 453.328 55.2737 449.891 55.2737 445.668V81.4057C55.2737 77.1825 58.7105 73.7456 62.9338 73.7456H322.073C326.295 73.7456 329.731 77.1825 329.731 81.4057V445.668C329.731 449.891 326.295 453.328 322.073 453.328ZM62.9338 74.0824C58.8944 74.0824 55.6092 77.3677 55.6092 81.4071V445.669C55.6092 449.708 58.8944 452.993 62.9338 452.993H322.073C326.111 452.993 329.396 449.708 329.396 445.669V81.4057C329.396 77.3677 326.111 74.0811 322.073 74.0811L62.9338 74.0824Z" fill="#EBEBEB"/>
<path d="M612.342 453.328H353.204C348.981 453.328 345.546 449.891 345.546 445.668V81.4057C345.546 77.1825 348.983 73.7456 353.204 73.7456H612.342C616.567 73.7456 620.002 77.1825 620.002 81.4057V445.668C620.003 449.891 616.567 453.328 612.342 453.328ZM353.204 74.0824C349.166 74.0824 345.881 77.3677 345.881 81.4071V445.669C345.881 449.708 349.166 452.993 353.204 452.993H612.342C616.381 452.993 619.667 449.708 619.667 445.669V81.4057C619.667 77.3677 616.381 74.0811 612.342 74.0811L353.204 74.0824Z" fill="#EBEBEB"/>
<path d="M601.754 157.25H276.613V470.66H601.754V157.25Z" fill="#E0E0E0"/>
<path d="M601.754 162.942H281.83V465.194H601.754V162.942Z" fill="#F5F5F5"/>
<path d="M284.191 391.992V301.081H293.636V289.072L314.889 279.132V266.841H318.431V301.081H321.972V391.992H326.695V344.765H337.321V319.97H340.864V391.992H349.128V364.836H355.031V357.752H368.019V332.958H375.103V316.429H383.367V291.635H386.909V316.429H395.174V332.958H402.259V357.752H415.245V364.836H421.149V391.992H428.233V357.752H441.22V282.189H444.763V273.925H473.099V282.189H479.002V336.5H502.615V342.403H510.88V345.946H502.615V367.198H527.41V296.358H532.132V282.189H543.939V227.878H547.481V282.189H555.746V296.358H601.752V465.194H281.83V391.992H284.191Z" fill="#E6E6E6"/>
<path d="M577.17 300.059H573.824V303.405H577.17V300.059Z" fill="#F0F0F0"/>
<path d="M577.17 305.667H573.824V309.013H577.17V305.667Z" fill="#F0F0F0"/>
<path d="M577.17 328.1H573.824V331.446H577.17V328.1Z" fill="#F0F0F0"/>
<path d="M577.17 333.709H573.824V337.054H577.17V333.709Z" fill="#F0F0F0"/>
<path d="M577.17 339.317H573.824V342.663H577.17V339.317Z" fill="#F0F0F0"/>
<path d="M577.17 356.142H573.824V359.487H577.17V356.142Z" fill="#F0F0F0"/>
<path d="M577.17 361.75H573.824V365.095H577.17V361.75Z" fill="#F0F0F0"/>
<path d="M571.857 322.492H568.511V325.838H571.857V322.492Z" fill="#F0F0F0"/>
<path d="M571.857 328.1H568.511V331.446H571.857V328.1Z" fill="#F0F0F0"/>
<path d="M571.857 333.709H568.511V337.054H571.857V333.709Z" fill="#F0F0F0"/>
<path d="M571.857 339.317H568.511V342.663H571.857V339.317Z" fill="#F0F0F0"/>
<path d="M571.857 344.925H568.511V348.271H571.857V344.925Z" fill="#F0F0F0"/>
<path d="M571.857 356.142H568.511V359.487H571.857V356.142Z" fill="#F0F0F0"/>
<path d="M571.857 361.75H568.511V365.095H571.857V361.75Z" fill="#F0F0F0"/>
<path d="M566.544 300.059H563.198V303.405H566.544V300.059Z" fill="#F0F0F0"/>
<path d="M566.544 305.667H563.198V309.013H566.544V305.667Z" fill="#F0F0F0"/>
<path d="M566.544 311.276H563.198V314.621H566.544V311.276Z" fill="#F0F0F0"/>
<path d="M566.544 316.884H563.198V320.23H566.544V316.884Z" fill="#F0F0F0"/>
<path d="M566.544 322.492H563.198V325.838H566.544V322.492Z" fill="#F0F0F0"/>
<path d="M566.544 328.1H563.198V331.446H566.544V328.1Z" fill="#F0F0F0"/>
<path d="M566.544 333.709H563.198V337.054H566.544V333.709Z" fill="#F0F0F0"/>
<path d="M566.544 339.317H563.198V342.663H566.544V339.317Z" fill="#F0F0F0"/>
<path d="M566.544 344.925H563.198V348.271H566.544V344.925Z" fill="#F0F0F0"/>
<path d="M566.544 350.533H563.198V353.879H566.544V350.533Z" fill="#F0F0F0"/>
<path d="M566.544 361.75H563.198V365.095H566.544V361.75Z" fill="#F0F0F0"/>
<path d="M561.231 300.059H557.885V303.405H561.231V300.059Z" fill="#F0F0F0"/>
<path d="M561.231 305.667H557.885V309.013H561.231V305.667Z" fill="#F0F0F0"/>
<path d="M561.231 311.276H557.885V314.621H561.231V311.276Z" fill="#F0F0F0"/>
<path d="M561.231 316.884H557.885V320.23H561.231V316.884Z" fill="#F0F0F0"/>
<path d="M561.231 322.492H557.885V325.838H561.231V322.492Z" fill="#F0F0F0"/>
<path d="M561.231 328.1H557.885V331.446H561.231V328.1Z" fill="#F0F0F0"/>
<path d="M561.231 333.709H557.885V337.054H561.231V333.709Z" fill="#F0F0F0"/>
<path d="M561.231 384.183H557.885V387.528H561.231V384.183Z" fill="#F0F0F0"/>
<path d="M555.918 300.059H552.572V303.405H555.918V300.059Z" fill="#F0F0F0"/>
<path d="M555.918 305.667H552.572V309.013H555.918V305.667Z" fill="#F0F0F0"/>
<path d="M555.918 311.276H552.572V314.621H555.918V311.276Z" fill="#F0F0F0"/>
<path d="M555.918 316.884H552.572V320.23H555.918V316.884Z" fill="#F0F0F0"/>
<path d="M555.918 322.492H552.572V325.838H555.918V322.492Z" fill="#F0F0F0"/>
<path d="M555.918 328.1H552.572V331.446H555.918V328.1Z" fill="#F0F0F0"/>
<path d="M555.918 333.709H552.572V337.054H555.918V333.709Z" fill="#F0F0F0"/>
<path d="M555.918 339.317H552.572V342.663H555.918V339.317Z" fill="#F0F0F0"/>
<path d="M555.918 372.966H552.572V376.312H555.918V372.966Z" fill="#F0F0F0"/>
<path d="M555.918 378.574H552.572V381.92H555.918V378.574Z" fill="#F0F0F0"/>
<path d="M555.918 384.183H552.572V387.528H555.918V384.183Z" fill="#F0F0F0"/>
<path d="M555.918 389.791H552.572V393.136H555.918V389.791Z" fill="#F0F0F0"/>
<path d="M555.918 412.224H552.572V415.569H555.918V412.224Z" fill="#F0F0F0"/>
<path d="M550.605 300.059H547.259V303.405H550.605V300.059Z" fill="#F0F0F0"/>
<path d="M550.605 305.667H547.259V309.013H550.605V305.667Z" fill="#F0F0F0"/>
<path d="M550.605 311.276H547.259V314.621H550.605V311.276Z" fill="#F0F0F0"/>
<path d="M550.605 316.884H547.259V320.23H550.605V316.884Z" fill="#F0F0F0"/>
<path d="M550.605 322.492H547.259V325.838H550.605V322.492Z" fill="#F0F0F0"/>
<path d="M550.605 328.1H547.259V331.446H550.605V328.1Z" fill="#F0F0F0"/>
<path d="M550.605 333.709H547.259V337.054H550.605V333.709Z" fill="#F0F0F0"/>
<path d="M550.605 339.317H547.259V342.663H550.605V339.317Z" fill="#F0F0F0"/>
<path d="M550.605 344.925H547.259V348.271H550.605V344.925Z" fill="#F0F0F0"/>
<path d="M550.605 350.533H547.259V353.879H550.605V350.533Z" fill="#F0F0F0"/>
<path d="M550.605 367.358H547.259V370.703H550.605V367.358Z" fill="#F0F0F0"/>
<path d="M550.605 372.966H547.259V376.312H550.605V372.966Z" fill="#F0F0F0"/>
<path d="M550.605 378.574H547.259V381.92H550.605V378.574Z" fill="#F0F0F0"/>
<path d="M550.605 384.183H547.259V387.528H550.605V384.183Z" fill="#F0F0F0"/>
<path d="M550.605 389.791H547.259V393.136H550.605V389.791Z" fill="#F0F0F0"/>
<path d="M550.605 412.224H547.259V415.569H550.605V412.224Z" fill="#F0F0F0"/>
<path d="M545.29 300.059H541.945V303.405H545.29V300.059Z" fill="#F0F0F0"/>
<path d="M545.29 305.667H541.945V309.013H545.29V305.667Z" fill="#F0F0F0"/>
<path d="M545.29 311.276H541.945V314.621H545.29V311.276Z" fill="#F0F0F0"/>
<path d="M545.29 316.884H541.945V320.23H545.29V316.884Z" fill="#F0F0F0"/>
<path d="M545.29 322.492H541.945V325.838H545.29V322.492Z" fill="#F0F0F0"/>
<path d="M545.29 328.1H541.945V331.446H545.29V328.1Z" fill="#F0F0F0"/>
<path d="M545.29 333.709H541.945V337.054H545.29V333.709Z" fill="#F0F0F0"/>
<path d="M545.29 339.317H541.945V342.663H545.29V339.317Z" fill="#F0F0F0"/>
<path d="M545.29 344.925H541.945V348.271H545.29V344.925Z" fill="#F0F0F0"/>
<path d="M545.29 350.533H541.945V353.879H545.29V350.533Z" fill="#F0F0F0"/>
<path d="M545.29 356.142H541.945V359.487H545.29V356.142Z" fill="#F0F0F0"/>
<path d="M545.29 361.75H541.945V365.095H545.29V361.75Z" fill="#F0F0F0"/>
<path d="M545.29 367.358H541.945V370.703H545.29V367.358Z" fill="#F0F0F0"/>
<path d="M545.29 372.966H541.945V376.312H545.29V372.966Z" fill="#F0F0F0"/>
<path d="M545.29 378.574H541.945V381.92H545.29V378.574Z" fill="#F0F0F0"/>
<path d="M545.29 384.183H541.945V387.528H545.29V384.183Z" fill="#F0F0F0"/>
<path d="M545.29 389.791H541.945V393.136H545.29V389.791Z" fill="#F0F0F0"/>
<path d="M545.29 395.399H541.945V398.745H545.29V395.399Z" fill="#F0F0F0"/>
<path d="M539.977 300.059H536.632V303.405H539.977V300.059Z" fill="#F0F0F0"/>
<path d="M539.977 305.667H536.632V309.013H539.977V305.667Z" fill="#F0F0F0"/>
<path d="M539.977 311.276H536.632V314.621H539.977V311.276Z" fill="#F0F0F0"/>
<path d="M539.977 316.884H536.632V320.23H539.977V316.884Z" fill="#F0F0F0"/>
<path d="M539.977 322.492H536.632V325.838H539.977V322.492Z" fill="#F0F0F0"/>
<path d="M539.977 328.1H536.632V331.446H539.977V328.1Z" fill="#F0F0F0"/>
<path d="M539.977 333.709H536.632V337.054H539.977V333.709Z" fill="#F0F0F0"/>
<path d="M539.977 339.317H536.632V342.663H539.977V339.317Z" fill="#F0F0F0"/>
<path d="M539.977 344.925H536.632V348.271H539.977V344.925Z" fill="#F0F0F0"/>
<path d="M539.977 350.533H536.632V353.879H539.977V350.533Z" fill="#F0F0F0"/>
<path d="M539.977 367.358H536.632V370.703H539.977V367.358Z" fill="#F0F0F0"/>
<path d="M539.977 372.966H536.632V376.312H539.977V372.966Z" fill="#F0F0F0"/>
<path d="M539.977 378.574H536.632V381.92H539.977V378.574Z" fill="#F0F0F0"/>
<path d="M539.977 384.183H536.632V387.528H539.977V384.183Z" fill="#F0F0F0"/>
<path d="M534.664 300.059H531.319V303.405H534.664V300.059Z" fill="#F0F0F0"/>
<path d="M534.664 305.667H531.319V309.013H534.664V305.667Z" fill="#F0F0F0"/>
<path d="M534.664 311.276H531.319V314.621H534.664V311.276Z" fill="#F0F0F0"/>
<path d="M534.664 316.884H531.319V320.23H534.664V316.884Z" fill="#F0F0F0"/>
<path d="M534.664 322.492H531.319V325.838H534.664V322.492Z" fill="#F0F0F0"/>
<path d="M534.664 328.1H531.319V331.446H534.664V328.1Z" fill="#F0F0F0"/>
<path d="M534.664 333.709H531.319V337.054H534.664V333.709Z" fill="#F0F0F0"/>
<path d="M534.664 339.317H531.319V342.663H534.664V339.317Z" fill="#F0F0F0"/>
<path d="M534.664 344.925H531.319V348.271H534.664V344.925Z" fill="#F0F0F0"/>
<path d="M534.664 350.533H531.319V353.879H534.664V350.533Z" fill="#F0F0F0"/>
<path d="M534.664 367.358H531.319V370.703H534.664V367.358Z" fill="#F0F0F0"/>
<path d="M534.664 372.966H531.319V376.312H534.664V372.966Z" fill="#F0F0F0"/>
<path d="M534.664 378.574H531.319V381.92H534.664V378.574Z" fill="#F0F0F0"/>
<path d="M474.845 285.497H471.499V288.843H474.845V285.497Z" fill="#F0F0F0"/>
<path d="M474.845 291.105H471.499V294.451H474.845V291.105Z" fill="#F0F0F0"/>
<path d="M474.845 296.714H471.499V300.059H474.845V296.714Z" fill="#F0F0F0"/>
<path d="M474.845 302.322H471.499V305.668H474.845V302.322Z" fill="#F0F0F0"/>
<path d="M474.845 307.93H471.499V311.276H474.845V307.93Z" fill="#F0F0F0"/>
<path d="M474.845 313.538H471.499V316.884H474.845V313.538Z" fill="#F0F0F0"/>
<path d="M474.845 319.147H471.499V322.492H474.845V319.147Z" fill="#F0F0F0"/>
<path d="M474.845 324.755H471.499V328.1H474.845V324.755Z" fill="#F0F0F0"/>
<path d="M474.845 341.58H471.499V344.925H474.845V341.58Z" fill="#F0F0F0"/>
<path d="M474.845 347.188H471.499V350.533H474.845V347.188Z" fill="#F0F0F0"/>
<path d="M469.532 285.497H466.186V288.843H469.532V285.497Z" fill="#F0F0F0"/>
<path d="M469.532 291.105H466.186V294.451H469.532V291.105Z" fill="#F0F0F0"/>
<path d="M469.532 296.714H466.186V300.059H469.532V296.714Z" fill="#F0F0F0"/>
<path d="M469.532 302.322H466.186V305.668H469.532V302.322Z" fill="#F0F0F0"/>
<path d="M469.532 307.93H466.186V311.276H469.532V307.93Z" fill="#F0F0F0"/>
<path d="M469.532 313.538H466.186V316.884H469.532V313.538Z" fill="#F0F0F0"/>
<path d="M469.532 319.147H466.186V322.492H469.532V319.147Z" fill="#F0F0F0"/>
<path d="M469.532 324.755H466.186V328.1H469.532V324.755Z" fill="#F0F0F0"/>
<path d="M469.532 347.188H466.186V350.533H469.532V347.188Z" fill="#F0F0F0"/>
<path d="M464.219 285.497H460.873V288.843H464.219V285.497Z" fill="#F0F0F0"/>
<path d="M464.219 291.105H460.873V294.451H464.219V291.105Z" fill="#F0F0F0"/>
<path d="M464.219 296.714H460.873V300.059H464.219V296.714Z" fill="#F0F0F0"/>
<path d="M464.219 302.322H460.873V305.668H464.219V302.322Z" fill="#F0F0F0"/>
<path d="M464.219 307.93H460.873V311.276H464.219V307.93Z" fill="#F0F0F0"/>
<path d="M464.219 313.538H460.873V316.884H464.219V313.538Z" fill="#F0F0F0"/>
<path d="M464.219 319.147H460.873V322.492H464.219V319.147Z" fill="#F0F0F0"/>
<path d="M464.219 324.755H460.873V328.1H464.219V324.755Z" fill="#F0F0F0"/>
<path d="M458.906 285.497H455.56V288.843H458.906V285.497Z" fill="#F0F0F0"/>
<path d="M458.906 291.105H455.56V294.451H458.906V291.105Z" fill="#F0F0F0"/>
<path d="M458.906 296.714H455.56V300.059H458.906V296.714Z" fill="#F0F0F0"/>
<path d="M458.906 302.322H455.56V305.668H458.906V302.322Z" fill="#F0F0F0"/>
<path d="M458.906 307.93H455.56V311.276H458.906V307.93Z" fill="#F0F0F0"/>
<path d="M458.906 313.538H455.56V316.884H458.906V313.538Z" fill="#F0F0F0"/>
<path d="M458.906 324.755H455.56V328.1H458.906V324.755Z" fill="#F0F0F0"/>
<path d="M458.906 330.363H455.56V333.709H458.906V330.363Z" fill="#F0F0F0"/>
<path d="M458.906 347.188H455.56V350.533H458.906V347.188Z" fill="#F0F0F0"/>
<path d="M458.906 352.796H455.56V356.142H458.906V352.796Z" fill="#F0F0F0"/>
<path d="M458.906 358.404H455.56V361.75H458.906V358.404Z" fill="#F0F0F0"/>
<path d="M458.906 364.012H455.56V367.358H458.906V364.012Z" fill="#F0F0F0"/>
<path d="M458.906 369.621H455.56V372.966H458.906V369.621Z" fill="#F0F0F0"/>
<path d="M458.906 375.229H455.56V378.574H458.906V375.229Z" fill="#F0F0F0"/>
<path d="M458.906 380.837H455.56V384.183H458.906V380.837Z" fill="#F0F0F0"/>
<path d="M453.592 285.497H450.246V288.843H453.592V285.497Z" fill="#F0F0F0"/>
<path d="M453.592 291.105H450.246V294.451H453.592V291.105Z" fill="#F0F0F0"/>
<path d="M453.592 296.714H450.246V300.059H453.592V296.714Z" fill="#F0F0F0"/>
<path d="M453.592 302.322H450.246V305.668H453.592V302.322Z" fill="#F0F0F0"/>
<path d="M453.592 307.93H450.246V311.276H453.592V307.93Z" fill="#F0F0F0"/>
<path d="M453.592 313.538H450.246V316.884H453.592V313.538Z" fill="#F0F0F0"/>
<path d="M453.592 330.363H450.246V333.709H453.592V330.363Z" fill="#F0F0F0"/>
<path d="M453.592 335.971H450.246V339.317H453.592V335.971Z" fill="#F0F0F0"/>
<path d="M453.592 341.58H450.246V344.925H453.592V341.58Z" fill="#F0F0F0"/>
<path d="M453.592 347.188H450.246V350.533H453.592V347.188Z" fill="#F0F0F0"/>
<path d="M453.592 352.796H450.246V356.142H453.592V352.796Z" fill="#F0F0F0"/>
<path d="M453.592 358.404H450.246V361.75H453.592V358.404Z" fill="#F0F0F0"/>
<path d="M453.592 364.012H450.246V367.358H453.592V364.012Z" fill="#F0F0F0"/>
<path d="M453.592 369.621H450.246V372.966H453.592V369.621Z" fill="#F0F0F0"/>
<path d="M453.592 375.229H450.246V378.574H453.592V375.229Z" fill="#F0F0F0"/>
<path d="M453.592 380.837H450.246V384.183H453.592V380.837Z" fill="#F0F0F0"/>
<path d="M453.592 386.445H450.246V389.791H453.592V386.445Z" fill="#F0F0F0"/>
<path d="M453.592 397.662H450.246V401.007H453.592V397.662Z" fill="#F0F0F0"/>
<path d="M448.28 285.497H444.934V288.843H448.28V285.497Z" fill="#F0F0F0"/>
<path d="M448.28 291.105H444.934V294.451H448.28V291.105Z" fill="#F0F0F0"/>
<path d="M448.28 296.714H444.934V300.059H448.28V296.714Z" fill="#F0F0F0"/>
<path d="M448.28 302.322H444.934V305.668H448.28V302.322Z" fill="#F0F0F0"/>
<path d="M448.28 307.93H444.934V311.276H448.28V307.93Z" fill="#F0F0F0"/>
<path d="M448.28 313.538H444.934V316.884H448.28V313.538Z" fill="#F0F0F0"/>
<path d="M448.28 330.363H444.934V333.709H448.28V330.363Z" fill="#F0F0F0"/>
<path d="M448.28 335.971H444.934V339.317H448.28V335.971Z" fill="#F0F0F0"/>
<path d="M448.28 341.58H444.934V344.925H448.28V341.58Z" fill="#F0F0F0"/>
<path d="M448.28 347.188H444.934V350.533H448.28V347.188Z" fill="#F0F0F0"/>
<path d="M448.28 364.012H444.934V367.358H448.28V364.012Z" fill="#F0F0F0"/>
<path d="M448.28 369.621H444.934V372.966H448.28V369.621Z" fill="#F0F0F0"/>
<path d="M448.28 375.229H444.934V378.574H448.28V375.229Z" fill="#F0F0F0"/>
<path d="M448.28 380.837H444.934V384.183H448.28V380.837Z" fill="#F0F0F0"/>
<path d="M448.28 386.445H444.934V389.791H448.28V386.445Z" fill="#F0F0F0"/>
<path d="M448.28 397.662H444.934V401.007H448.28V397.662Z" fill="#F0F0F0"/>
<path d="M448.28 403.27H444.934V406.615H448.28V403.27Z" fill="#F0F0F0"/>
<path d="M400.069 337.645H396.723V340.99H400.069V337.645Z" fill="#F0F0F0"/>
<path d="M400.069 343.253H396.723V346.599H400.069V343.253Z" fill="#F0F0F0"/>
<path d="M400.069 348.861H396.723V352.207H400.069V348.861Z" fill="#F0F0F0"/>
<path d="M400.069 354.468H396.723V357.814H400.069V354.468Z" fill="#F0F0F0"/>
<path d="M400.069 360.078H396.723V363.423H400.069V360.078Z" fill="#F0F0F0"/>
<path d="M400.069 365.685H396.723V369.03H400.069V365.685Z" fill="#F0F0F0"/>
<path d="M400.069 371.294H396.723V374.64H400.069V371.294Z" fill="#F0F0F0"/>
<path d="M400.069 388.117H396.723V391.463H400.069V388.117Z" fill="#F0F0F0"/>
<path d="M400.069 393.726H396.723V397.071H400.069V393.726Z" fill="#F0F0F0"/>
<path d="M400.069 399.334H396.723V402.679H400.069V399.334Z" fill="#F0F0F0"/>
<path d="M394.756 337.645H391.41V340.99H394.756V337.645Z" fill="#F0F0F0"/>
<path d="M394.756 343.253H391.41V346.599H394.756V343.253Z" fill="#F0F0F0"/>
<path d="M394.756 348.861H391.41V352.207H394.756V348.861Z" fill="#F0F0F0"/>
<path d="M394.756 354.468H391.41V357.814H394.756V354.468Z" fill="#F0F0F0"/>
<path d="M394.756 360.078H391.41V363.423H394.756V360.078Z" fill="#F0F0F0"/>
<path d="M394.756 365.685H391.41V369.03H394.756V365.685Z" fill="#F0F0F0"/>
<path d="M394.756 371.294H391.41V374.64H394.756V371.294Z" fill="#F0F0F0"/>
<path d="M389.443 337.645H386.097V340.99H389.443V337.645Z" fill="#F0F0F0"/>
<path d="M389.443 343.253H386.097V346.599H389.443V343.253Z" fill="#F0F0F0"/>
<path d="M389.443 348.861H386.097V352.207H389.443V348.861Z" fill="#F0F0F0"/>
<path d="M389.443 354.468H386.097V357.814H389.443V354.468Z" fill="#F0F0F0"/>
<path d="M389.443 360.078H386.097V363.423H389.443V360.078Z" fill="#F0F0F0"/>
<path d="M389.443 365.685H386.097V369.03H389.443V365.685Z" fill="#F0F0F0"/>
<path d="M389.443 371.294H386.097V374.64H389.443V371.294Z" fill="#F0F0F0"/>
<path d="M384.13 337.645H380.784V340.99H384.13V337.645Z" fill="#F0F0F0"/>
<path d="M384.13 343.253H380.784V346.599H384.13V343.253Z" fill="#F0F0F0"/>
<path d="M384.13 348.861H380.784V352.207H384.13V348.861Z" fill="#F0F0F0"/>
<path d="M384.13 354.468H380.784V357.814H384.13V354.468Z" fill="#F0F0F0"/>
<path d="M384.13 360.078H380.784V363.423H384.13V360.078Z" fill="#F0F0F0"/>
<path d="M384.13 365.685H380.784V369.03H384.13V365.685Z" fill="#F0F0F0"/>
<path d="M384.13 371.294H380.784V374.64H384.13V371.294Z" fill="#F0F0F0"/>
<path d="M384.13 376.901H380.784V380.246H384.13V376.901Z" fill="#F0F0F0"/>
<path d="M384.13 382.509H380.784V385.855H384.13V382.509Z" fill="#F0F0F0"/>
<path d="M384.13 388.117H380.784V391.463H384.13V388.117Z" fill="#F0F0F0"/>
<path d="M384.13 393.726H380.784V397.071H384.13V393.726Z" fill="#F0F0F0"/>
<path d="M378.817 337.645H375.471V340.99H378.817V337.645Z" fill="#F0F0F0"/>
<path d="M378.817 343.253H375.471V346.599H378.817V343.253Z" fill="#F0F0F0"/>
<path d="M378.817 348.861H375.471V352.207H378.817V348.861Z" fill="#F0F0F0"/>
<path d="M378.817 354.468H375.471V357.814H378.817V354.468Z" fill="#F0F0F0"/>
<path d="M378.817 360.078H375.471V363.423H378.817V360.078Z" fill="#F0F0F0"/>
<path d="M378.817 365.685H375.471V369.03H378.817V365.685Z" fill="#F0F0F0"/>
<path d="M378.817 371.294H375.471V374.64H378.817V371.294Z" fill="#F0F0F0"/>
<path d="M378.817 376.901H375.471V380.246H378.817V376.901Z" fill="#F0F0F0"/>
<path d="M378.817 382.509H375.471V385.855H378.817V382.509Z" fill="#F0F0F0"/>
<path d="M378.817 388.117H375.471V391.463H378.817V388.117Z" fill="#F0F0F0"/>
<path d="M378.817 393.726H375.471V397.071H378.817V393.726Z" fill="#F0F0F0"/>
<path d="M378.817 399.334H375.471V402.679H378.817V399.334Z" fill="#F0F0F0"/>
<path d="M378.817 416.158H375.471V419.504H378.817V416.158Z" fill="#F0F0F0"/>
<path d="M378.817 421.767H375.471V425.112H378.817V421.767Z" fill="#F0F0F0"/>
<path d="M373.504 337.645H370.158V340.99H373.504V337.645Z" fill="#F0F0F0"/>
<path d="M373.504 343.253H370.158V346.599H373.504V343.253Z" fill="#F0F0F0"/>
<path d="M373.504 348.861H370.158V352.207H373.504V348.861Z" fill="#F0F0F0"/>
<path d="M373.504 365.685H370.158V369.03H373.504V365.685Z" fill="#F0F0F0"/>
<path d="M373.504 371.294H370.158V374.64H373.504V371.294Z" fill="#F0F0F0"/>
<path d="M373.504 376.901H370.158V380.246H373.504V376.901Z" fill="#F0F0F0"/>
<path d="M373.504 382.509H370.158V385.855H373.504V382.509Z" fill="#F0F0F0"/>
<path d="M373.504 388.117H370.158V391.463H373.504V388.117Z" fill="#F0F0F0"/>
<path d="M373.504 393.726H370.158V397.071H373.504V393.726Z" fill="#F0F0F0"/>
<path d="M373.504 399.334H370.158V402.679H373.504V399.334Z" fill="#F0F0F0"/>
<path d="M373.504 416.158H370.158V419.504H373.504V416.158Z" fill="#F0F0F0"/>
<path d="M373.504 421.767H370.158V425.112H373.504V421.767Z" fill="#F0F0F0"/>
<path d="M373.504 427.375H370.158V430.721H373.504V427.375Z" fill="#F0F0F0"/>
<path d="M317.815 303.995H314.469V307.341H317.815V303.995Z" fill="#F0F0F0"/>
<path d="M317.815 309.604H314.469V312.949H317.815V309.604Z" fill="#F0F0F0"/>
<path d="M317.815 315.212H314.469V318.558H317.815V315.212Z" fill="#F0F0F0"/>
<path d="M317.815 320.82H314.469V324.166H317.815V320.82Z" fill="#F0F0F0"/>
<path d="M317.815 326.428H314.469V329.774H317.815V326.428Z" fill="#F0F0F0"/>
<path d="M317.815 332.037H314.469V335.382H317.815V332.037Z" fill="#F0F0F0"/>
<path d="M317.815 337.645H314.469V340.99H317.815V337.645Z" fill="#F0F0F0"/>
<path d="M317.815 343.253H314.469V346.599H317.815V343.253Z" fill="#F0F0F0"/>
<path d="M317.815 348.861H314.469V352.207H317.815V348.861Z" fill="#F0F0F0"/>
<path d="M317.815 354.468H314.469V357.814H317.815V354.468Z" fill="#F0F0F0"/>
<path d="M317.815 360.078H314.469V363.423H317.815V360.078Z" fill="#F0F0F0"/>
<path d="M317.815 365.685H314.469V369.03H317.815V365.685Z" fill="#F0F0F0"/>
<path d="M317.815 371.294H314.469V374.64H317.815V371.294Z" fill="#F0F0F0"/>
<path d="M317.815 376.901H314.469V380.246H317.815V376.901Z" fill="#F0F0F0"/>
<path d="M317.815 382.509H314.469V385.855H317.815V382.509Z" fill="#F0F0F0"/>
<path d="M317.815 388.117H314.469V391.463H317.815V388.117Z" fill="#F0F0F0"/>
<path d="M317.815 393.726H314.469V397.071H317.815V393.726Z" fill="#F0F0F0"/>
<path d="M317.815 399.334H314.469V402.679H317.815V399.334Z" fill="#F0F0F0"/>
<path d="M317.815 404.942H314.469V408.288H317.815V404.942Z" fill="#F0F0F0"/>
<path d="M317.815 410.55H314.469V413.896H317.815V410.55Z" fill="#F0F0F0"/>
<path d="M317.815 416.158H314.469V419.504H317.815V416.158Z" fill="#F0F0F0"/>
<path d="M317.815 421.767H314.469V425.112H317.815V421.767Z" fill="#F0F0F0"/>
<path d="M317.815 427.375H314.469V430.721H317.815V427.375Z" fill="#F0F0F0"/>
<path d="M312.502 303.995H309.156V307.341H312.502V303.995Z" fill="#F0F0F0"/>
<path d="M312.502 309.604H309.156V312.949H312.502V309.604Z" fill="#F0F0F0"/>
<path d="M312.502 315.212H309.156V318.558H312.502V315.212Z" fill="#F0F0F0"/>
<path d="M312.502 320.82H309.156V324.166H312.502V320.82Z" fill="#F0F0F0"/>
<path d="M312.502 326.428H309.156V329.774H312.502V326.428Z" fill="#F0F0F0"/>
<path d="M312.502 332.037H309.156V335.382H312.502V332.037Z" fill="#F0F0F0"/>
<path d="M312.502 337.645H309.156V340.99H312.502V337.645Z" fill="#F0F0F0"/>
<path d="M312.502 343.253H309.156V346.599H312.502V343.253Z" fill="#F0F0F0"/>
<path d="M312.502 348.861H309.156V352.207H312.502V348.861Z" fill="#F0F0F0"/>
<path d="M312.502 354.468H309.156V357.814H312.502V354.468Z" fill="#F0F0F0"/>
<path d="M312.502 360.078H309.156V363.423H312.502V360.078Z" fill="#F0F0F0"/>
<path d="M312.502 365.685H309.156V369.03H312.502V365.685Z" fill="#F0F0F0"/>
<path d="M312.502 371.294H309.156V374.64H312.502V371.294Z" fill="#F0F0F0"/>
<path d="M312.502 376.901H309.156V380.246H312.502V376.901Z" fill="#F0F0F0"/>
<path d="M312.502 382.509H309.156V385.855H312.502V382.509Z" fill="#F0F0F0"/>
<path d="M312.502 388.117H309.156V391.463H312.502V388.117Z" fill="#F0F0F0"/>
<path d="M312.502 393.726H309.156V397.071H312.502V393.726Z" fill="#F0F0F0"/>
<path d="M312.502 399.334H309.156V402.679H312.502V399.334Z" fill="#F0F0F0"/>
<path d="M312.502 404.942H309.156V408.288H312.502V404.942Z" fill="#F0F0F0"/>
<path d="M307.189 303.995H303.843V307.341H307.189V303.995Z" fill="#F0F0F0"/>
<path d="M307.189 309.604H303.843V312.949H307.189V309.604Z" fill="#F0F0F0"/>
<path d="M307.189 315.212H303.843V318.558H307.189V315.212Z" fill="#F0F0F0"/>
<path d="M307.189 320.82H303.843V324.166H307.189V320.82Z" fill="#F0F0F0"/>
<path d="M307.189 326.428H303.843V329.774H307.189V326.428Z" fill="#F0F0F0"/>
<path d="M307.189 332.037H303.843V335.382H307.189V332.037Z" fill="#F0F0F0"/>
<path d="M307.189 337.645H303.843V340.99H307.189V337.645Z" fill="#F0F0F0"/>
<path d="M307.189 343.253H303.843V346.599H307.189V343.253Z" fill="#F0F0F0"/>
<path d="M307.189 348.861H303.843V352.207H307.189V348.861Z" fill="#F0F0F0"/>
<path d="M307.189 354.468H303.843V357.814H307.189V354.468Z" fill="#F0F0F0"/>
<path d="M307.189 360.078H303.843V363.423H307.189V360.078Z" fill="#F0F0F0"/>
<path d="M307.189 365.685H303.843V369.03H307.189V365.685Z" fill="#F0F0F0"/>
<path d="M307.189 371.294H303.843V374.64H307.189V371.294Z" fill="#F0F0F0"/>
<path d="M307.189 376.901H303.843V380.246H307.189V376.901Z" fill="#F0F0F0"/>
<path d="M307.189 382.509H303.843V385.855H307.189V382.509Z" fill="#F0F0F0"/>
<path d="M307.189 388.117H303.843V391.463H307.189V388.117Z" fill="#F0F0F0"/>
<path d="M307.189 393.726H303.843V397.071H307.189V393.726Z" fill="#F0F0F0"/>
<path d="M307.189 399.334H303.843V402.679H307.189V399.334Z" fill="#F0F0F0"/>
<path d="M307.189 404.942H303.843V408.288H307.189V404.942Z" fill="#F0F0F0"/>
<path d="M301.876 303.995H298.53V307.341H301.876V303.995Z" fill="#F0F0F0"/>
<path d="M301.876 309.604H298.53V312.949H301.876V309.604Z" fill="#F0F0F0"/>
<path d="M301.876 315.212H298.53V318.558H301.876V315.212Z" fill="#F0F0F0"/>
<path d="M301.876 320.82H298.53V324.166H301.876V320.82Z" fill="#F0F0F0"/>
<path d="M301.876 326.428H298.53V329.774H301.876V326.428Z" fill="#F0F0F0"/>
<path d="M301.876 332.037H298.53V335.382H301.876V332.037Z" fill="#F0F0F0"/>
<path d="M301.876 337.645H298.53V340.99H301.876V337.645Z" fill="#F0F0F0"/>
<path d="M301.876 343.253H298.53V346.599H301.876V343.253Z" fill="#F0F0F0"/>
<path d="M301.876 348.861H298.53V352.207H301.876V348.861Z" fill="#F0F0F0"/>
<path d="M301.876 354.468H298.53V357.814H301.876V354.468Z" fill="#F0F0F0"/>
<path d="M301.876 360.078H298.53V363.423H301.876V360.078Z" fill="#F0F0F0"/>
<path d="M301.876 365.685H298.53V369.03H301.876V365.685Z" fill="#F0F0F0"/>
<path d="M301.876 371.294H298.53V374.64H301.876V371.294Z" fill="#F0F0F0"/>
<path d="M301.876 376.901H298.53V380.246H301.876V376.901Z" fill="#F0F0F0"/>
<path d="M301.876 382.509H298.53V385.855H301.876V382.509Z" fill="#F0F0F0"/>
<path d="M296.563 303.995H293.217V307.341H296.563V303.995Z" fill="#F0F0F0"/>
<path d="M296.563 309.604H293.217V312.949H296.563V309.604Z" fill="#F0F0F0"/>
<path d="M296.563 315.212H293.217V318.558H296.563V315.212Z" fill="#F0F0F0"/>
<path d="M296.563 320.82H293.217V324.166H296.563V320.82Z" fill="#F0F0F0"/>
<path d="M296.563 326.428H293.217V329.774H296.563V326.428Z" fill="#F0F0F0"/>
<path d="M296.563 332.037H293.217V335.382H296.563V332.037Z" fill="#F0F0F0"/>
<path d="M296.563 337.645H293.217V340.99H296.563V337.645Z" fill="#F0F0F0"/>
<path d="M296.563 343.253H293.217V346.599H296.563V343.253Z" fill="#F0F0F0"/>
<path d="M296.563 348.861H293.217V352.207H296.563V348.861Z" fill="#F0F0F0"/>
<path d="M296.563 354.468H293.217V357.814H296.563V354.468Z" fill="#F0F0F0"/>
<path d="M296.563 360.078H293.217V363.423H296.563V360.078Z" fill="#F0F0F0"/>
<path d="M296.563 365.685H293.217V369.03H296.563V365.685Z" fill="#F0F0F0"/>
<path d="M296.563 371.294H293.217V374.64H296.563V371.294Z" fill="#F0F0F0"/>
<path d="M291.25 303.995H287.904V307.341H291.25V303.995Z" fill="#F0F0F0"/>
<path d="M291.25 309.604H287.904V312.949H291.25V309.604Z" fill="#F0F0F0"/>
<path d="M291.25 315.212H287.904V318.558H291.25V315.212Z" fill="#F0F0F0"/>
<path d="M291.25 320.82H287.904V324.166H291.25V320.82Z" fill="#F0F0F0"/>
<path d="M291.25 326.428H287.904V329.774H291.25V326.428Z" fill="#F0F0F0"/>
<path d="M291.25 332.037H287.904V335.382H291.25V332.037Z" fill="#F0F0F0"/>
<path d="M291.25 337.645H287.904V340.99H291.25V337.645Z" fill="#F0F0F0"/>
<path d="M291.25 343.253H287.904V346.599H291.25V343.253Z" fill="#F0F0F0"/>
<path d="M291.25 348.861H287.904V352.207H291.25V348.861Z" fill="#F0F0F0"/>
<path d="M291.25 354.468H287.904V357.814H291.25V354.468Z" fill="#F0F0F0"/>
<path d="M291.25 360.078H287.904V363.423H291.25V360.078Z" fill="#F0F0F0"/>
<path d="M291.25 365.685H287.904V369.03H291.25V365.685Z" fill="#F0F0F0"/>
<path d="M601.373 302.322H598.027V305.668H601.373V302.322Z" fill="#F0F0F0"/>
<path d="M601.373 307.93H598.027V311.276H601.373V307.93Z" fill="#F0F0F0"/>
<path d="M601.373 313.538H598.027V316.884H601.373V313.538Z" fill="#F0F0F0"/>
<path d="M601.373 319.147H598.027V322.492H601.373V319.147Z" fill="#F0F0F0"/>
<path d="M601.373 324.755H598.027V328.1H601.373V324.755Z" fill="#F0F0F0"/>
<path d="M601.373 330.363H598.027V333.709H601.373V330.363Z" fill="#F0F0F0"/>
<path d="M601.373 335.971H598.027V339.317H601.373V335.971Z" fill="#F0F0F0"/>
<path d="M601.373 341.58H598.027V344.925H601.373V341.58Z" fill="#F0F0F0"/>
<path d="M601.373 347.188H598.027V350.533H601.373V347.188Z" fill="#F0F0F0"/>
<path d="M601.373 352.796H598.027V356.142H601.373V352.796Z" fill="#F0F0F0"/>
<path d="M601.373 358.404H598.027V361.75H601.373V358.404Z" fill="#F0F0F0"/>
<path d="M601.373 364.012H598.027V367.358H601.373V364.012Z" fill="#F0F0F0"/>
<path d="M601.373 369.621H598.027V372.966H601.373V369.621Z" fill="#F0F0F0"/>
<path d="M601.373 375.229H598.027V378.574H601.373V375.229Z" fill="#F0F0F0"/>
<path d="M601.373 380.837H598.027V384.183H601.373V380.837Z" fill="#F0F0F0"/>
<path d="M601.373 386.445H598.027V389.791H601.373V386.445Z" fill="#F0F0F0"/>
<path d="M601.373 392.053H598.027V395.399H601.373V392.053Z" fill="#F0F0F0"/>
<path d="M601.373 403.27H598.027V406.615H601.373V403.27Z" fill="#F0F0F0"/>
<path d="M601.373 408.878H598.027V412.224H601.373V408.878Z" fill="#F0F0F0"/>
<path d="M601.373 414.486H598.027V417.832H601.373V414.486Z" fill="#F0F0F0"/>
<path d="M601.373 420.094H598.027V423.44H601.373V420.094Z" fill="#F0F0F0"/>
<path d="M601.373 425.703H598.027V429.048H601.373V425.703Z" fill="#F0F0F0"/>
<path d="M596.06 302.322H592.714V305.668H596.06V302.322Z" fill="#F0F0F0"/>
<path d="M596.06 307.93H592.714V311.276H596.06V307.93Z" fill="#F0F0F0"/>
<path d="M596.06 313.538H592.714V316.884H596.06V313.538Z" fill="#F0F0F0"/>
<path d="M596.06 319.147H592.714V322.492H596.06V319.147Z" fill="#F0F0F0"/>
<path d="M596.06 324.755H592.714V328.1H596.06V324.755Z" fill="#F0F0F0"/>
<path d="M596.06 330.363H592.714V333.709H596.06V330.363Z" fill="#F0F0F0"/>
<path d="M596.06 335.971H592.714V339.317H596.06V335.971Z" fill="#F0F0F0"/>
<path d="M596.06 341.58H592.714V344.925H596.06V341.58Z" fill="#F0F0F0"/>
<path d="M596.06 347.188H592.714V350.533H596.06V347.188Z" fill="#F0F0F0"/>
<path d="M596.06 352.796H592.714V356.142H596.06V352.796Z" fill="#F0F0F0"/>
<path d="M596.06 358.404H592.714V361.75H596.06V358.404Z" fill="#F0F0F0"/>
<path d="M596.06 364.012H592.714V367.358H596.06V364.012Z" fill="#F0F0F0"/>
<path d="M596.06 369.621H592.714V372.966H596.06V369.621Z" fill="#F0F0F0"/>
<path d="M596.06 375.229H592.714V378.574H596.06V375.229Z" fill="#F0F0F0"/>
<path d="M596.06 380.837H592.714V384.183H596.06V380.837Z" fill="#F0F0F0"/>
<path d="M596.06 386.445H592.714V389.791H596.06V386.445Z" fill="#F0F0F0"/>
<path d="M596.06 420.094H592.714V423.44H596.06V420.094Z" fill="#F0F0F0"/>
<path d="M596.06 425.703H592.714V429.048H596.06V425.703Z" fill="#F0F0F0"/>
<path d="M590.747 302.322H587.401V305.668H590.747V302.322Z" fill="#F0F0F0"/>
<path d="M590.747 307.93H587.401V311.276H590.747V307.93Z" fill="#F0F0F0"/>
<path d="M590.747 313.538H587.401V316.884H590.747V313.538Z" fill="#F0F0F0"/>
<path d="M590.747 319.147H587.401V322.492H590.747V319.147Z" fill="#F0F0F0"/>
<path d="M590.747 324.755H587.401V328.1H590.747V324.755Z" fill="#F0F0F0"/>
<path d="M590.747 330.363H587.401V333.709H590.747V330.363Z" fill="#F0F0F0"/>
<path d="M590.747 335.971H587.401V339.317H590.747V335.971Z" fill="#F0F0F0"/>
<path d="M590.747 341.58H587.401V344.925H590.747V341.58Z" fill="#F0F0F0"/>
<path d="M590.747 347.188H587.401V350.533H590.747V347.188Z" fill="#F0F0F0"/>
<path d="M590.747 352.796H587.401V356.142H590.747V352.796Z" fill="#F0F0F0"/>
<path d="M590.747 358.404H587.401V361.75H590.747V358.404Z" fill="#F0F0F0"/>
<path d="M590.747 364.012H587.401V367.358H590.747V364.012Z" fill="#F0F0F0"/>
<path d="M590.747 369.621H587.401V372.966H590.747V369.621Z" fill="#F0F0F0"/>
<path d="M590.747 375.229H587.401V378.574H590.747V375.229Z" fill="#F0F0F0"/>
<path d="M590.747 380.837H587.401V384.183H590.747V380.837Z" fill="#F0F0F0"/>
<path d="M590.747 386.445H587.401V389.791H590.747V386.445Z" fill="#F0F0F0"/>
<path d="M590.747 397.662H587.401V401.007H590.747V397.662Z" fill="#F0F0F0"/>
<path d="M590.747 403.27H587.401V406.615H590.747V403.27Z" fill="#F0F0F0"/>
<path d="M590.747 408.878H587.401V412.224H590.747V408.878Z" fill="#F0F0F0"/>
<path d="M590.747 414.486H587.401V417.832H590.747V414.486Z" fill="#F0F0F0"/>
<path d="M590.747 425.703H587.401V429.048H590.747V425.703Z" fill="#F0F0F0"/>
<path d="M498.064 341.58H494.719V344.925H498.064V341.58Z" fill="#F0F0F0"/>
<path d="M498.064 347.188H494.719V350.533H498.064V347.188Z" fill="#F0F0F0"/>
<path d="M498.064 352.796H494.719V356.142H498.064V352.796Z" fill="#F0F0F0"/>
<path d="M498.064 358.404H494.719V361.75H498.064V358.404Z" fill="#F0F0F0"/>
<path d="M498.064 364.012H494.719V367.358H498.064V364.012Z" fill="#F0F0F0"/>
<path d="M498.064 369.621H494.719V372.966H498.064V369.621Z" fill="#F0F0F0"/>
<path d="M498.064 375.229H494.719V378.574H498.064V375.229Z" fill="#F0F0F0"/>
<path d="M498.064 380.837H494.719V384.183H498.064V380.837Z" fill="#F0F0F0"/>
<path d="M498.064 386.445H494.719V389.791H498.064V386.445Z" fill="#F0F0F0"/>
<path d="M498.064 392.053H494.719V395.399H498.064V392.053Z" fill="#F0F0F0"/>
<path d="M498.064 397.662H494.719V401.007H498.064V397.662Z" fill="#F0F0F0"/>
<path d="M498.064 403.27H494.719V406.615H498.064V403.27Z" fill="#F0F0F0"/>
<path d="M498.064 408.878H494.719V412.224H498.064V408.878Z" fill="#F0F0F0"/>
<path d="M498.064 420.094H494.719V423.44H498.064V420.094Z" fill="#F0F0F0"/>
<path d="M498.064 425.703H494.719V429.048H498.064V425.703Z" fill="#F0F0F0"/>
<path d="M498.064 431.311H494.719V434.657H498.064V431.311Z" fill="#F0F0F0"/>
<path d="M498.064 436.919H494.719V440.265H498.064V436.919Z" fill="#F0F0F0"/>
<path d="M498.064 448.136H494.719V451.481H498.064V448.136Z" fill="#F0F0F0"/>
<path d="M498.064 453.744H494.719V457.09H498.064V453.744Z" fill="#F0F0F0"/>
<path d="M498.064 459.352H494.719V462.698H498.064V459.352Z" fill="#F0F0F0"/>
<path d="M492.751 341.58H489.406V344.925H492.751V341.58Z" fill="#F0F0F0"/>
<path d="M492.751 347.188H489.406V350.533H492.751V347.188Z" fill="#F0F0F0"/>
<path d="M492.751 352.796H489.406V356.142H492.751V352.796Z" fill="#F0F0F0"/>
<path d="M492.751 358.404H489.406V361.75H492.751V358.404Z" fill="#F0F0F0"/>
<path d="M492.751 364.012H489.406V367.358H492.751V364.012Z" fill="#F0F0F0"/>
<path d="M492.751 369.621H489.406V372.966H492.751V369.621Z" fill="#F0F0F0"/>
<path d="M492.751 375.229H489.406V378.574H492.751V375.229Z" fill="#F0F0F0"/>
<path d="M492.751 380.837H489.406V384.183H492.751V380.837Z" fill="#F0F0F0"/>
<path d="M492.751 386.445H489.406V389.791H492.751V386.445Z" fill="#F0F0F0"/>
<path d="M492.751 392.053H489.406V395.399H492.751V392.053Z" fill="#F0F0F0"/>
<path d="M492.751 397.662H489.406V401.007H492.751V397.662Z" fill="#F0F0F0"/>
<path d="M492.751 403.27H489.406V406.615H492.751V403.27Z" fill="#F0F0F0"/>
<path d="M492.751 408.878H489.406V412.224H492.751V408.878Z" fill="#F0F0F0"/>
<path d="M492.751 425.703H489.406V429.048H492.751V425.703Z" fill="#F0F0F0"/>
<path d="M492.751 431.311H489.406V434.657H492.751V431.311Z" fill="#F0F0F0"/>
<path d="M492.751 442.527H489.406V445.873H492.751V442.527Z" fill="#F0F0F0"/>
<path d="M492.751 448.136H489.406V451.481H492.751V448.136Z" fill="#F0F0F0"/>
<path d="M492.751 453.744H489.406V457.09H492.751V453.744Z" fill="#F0F0F0"/>
<path d="M492.751 459.352H489.406V462.698H492.751V459.352Z" fill="#F0F0F0"/>
<path d="M487.438 341.58H484.093V344.925H487.438V341.58Z" fill="#F0F0F0"/>
<path d="M487.438 347.188H484.093V350.533H487.438V347.188Z" fill="#F0F0F0"/>
<path d="M487.438 352.796H484.093V356.142H487.438V352.796Z" fill="#F0F0F0"/>
<path d="M487.438 358.404H484.093V361.75H487.438V358.404Z" fill="#F0F0F0"/>
<path d="M487.438 364.012H484.093V367.358H487.438V364.012Z" fill="#F0F0F0"/>
<path d="M487.438 369.621H484.093V372.966H487.438V369.621Z" fill="#F0F0F0"/>
<path d="M487.438 375.229H484.093V378.574H487.438V375.229Z" fill="#F0F0F0"/>
<path d="M487.438 380.837H484.093V384.183H487.438V380.837Z" fill="#F0F0F0"/>
<path d="M487.438 386.445H484.093V389.791H487.438V386.445Z" fill="#F0F0F0"/>
<path d="M487.438 392.053H484.093V395.399H487.438V392.053Z" fill="#F0F0F0"/>
<path d="M487.438 397.662H484.093V401.007H487.438V397.662Z" fill="#F0F0F0"/>
<path d="M487.438 403.27H484.093V406.615H487.438V403.27Z" fill="#F0F0F0"/>
<path d="M487.438 408.878H484.093V412.224H487.438V408.878Z" fill="#F0F0F0"/>
<path d="M487.438 414.486H484.093V417.832H487.438V414.486Z" fill="#F0F0F0"/>
<path d="M487.438 425.703H484.093V429.048H487.438V425.703Z" fill="#F0F0F0"/>
<path d="M487.438 436.919H484.093V440.265H487.438V436.919Z" fill="#F0F0F0"/>
<path d="M487.438 442.527H484.093V445.873H487.438V442.527Z" fill="#F0F0F0"/>
<path d="M487.438 448.136H484.093V451.481H487.438V448.136Z" fill="#F0F0F0"/>
<path d="M487.438 453.744H484.093V457.09H487.438V453.744Z" fill="#F0F0F0"/>
<path d="M487.438 459.352H484.093V462.698H487.438V459.352Z" fill="#F0F0F0"/>
<path d="M519.709 373.557H516.364V376.902H519.709V373.557Z" fill="#F0F0F0"/>
<path d="M519.709 379.165H516.364V382.51H519.709V379.165Z" fill="#F0F0F0"/>
<path d="M519.709 384.773H516.364V388.119H519.709V384.773Z" fill="#F0F0F0"/>
<path d="M519.709 390.381H516.364V393.727H519.709V390.381Z" fill="#F0F0F0"/>
<path d="M519.709 395.99H516.364V399.335H519.709V395.99Z" fill="#F0F0F0"/>
<path d="M519.709 401.598H516.364V404.943H519.709V401.598Z" fill="#F0F0F0"/>
<path d="M519.709 418.422H516.364V421.768H519.709V418.422Z" fill="#F0F0F0"/>
<path d="M519.709 424.031H516.364V427.376H519.709V424.031Z" fill="#F0F0F0"/>
<path d="M519.709 429.637H516.364V432.983H519.709V429.637Z" fill="#F0F0F0"/>
<path d="M519.709 435.247H516.364V438.593H519.709V435.247Z" fill="#F0F0F0"/>
<path d="M519.709 440.854H516.364V444.2H519.709V440.854Z" fill="#F0F0F0"/>
<path d="M519.709 446.462H516.364V449.808H519.709V446.462Z" fill="#F0F0F0"/>
<path d="M519.709 452.07H516.364V455.416H519.709V452.07Z" fill="#F0F0F0"/>
<path d="M514.396 373.557H511.051V376.902H514.396V373.557Z" fill="#F0F0F0"/>
<path d="M514.396 379.165H511.051V382.51H514.396V379.165Z" fill="#F0F0F0"/>
<path d="M514.396 384.773H511.051V388.119H514.396V384.773Z" fill="#F0F0F0"/>
<path d="M514.396 390.381H511.051V393.727H514.396V390.381Z" fill="#F0F0F0"/>
<path d="M514.396 395.99H511.051V399.335H514.396V395.99Z" fill="#F0F0F0"/>
<path d="M514.396 401.598H511.051V404.943H514.396V401.598Z" fill="#F0F0F0"/>
<path d="M514.396 418.422H511.051V421.768H514.396V418.422Z" fill="#F0F0F0"/>
<path d="M514.396 424.031H511.051V427.376H514.396V424.031Z" fill="#F0F0F0"/>
<path d="M514.396 429.637H511.051V432.983H514.396V429.637Z" fill="#F0F0F0"/>
<path d="M514.396 435.247H511.051V438.593H514.396V435.247Z" fill="#F0F0F0"/>
<path d="M514.396 440.854H511.051V444.2H514.396V440.854Z" fill="#F0F0F0"/>
<path d="M514.396 446.462H511.051V449.808H514.396V446.462Z" fill="#F0F0F0"/>
<path d="M514.396 457.679H511.051V461.024H514.396V457.679Z" fill="#F0F0F0"/>
<path d="M337.887 348.861H334.542V352.207H337.887V348.861Z" fill="#F0F0F0"/>
<path d="M337.887 354.468H334.542V357.814H337.887V354.468Z" fill="#F0F0F0"/>
<path d="M337.887 360.078H334.542V363.423H337.887V360.078Z" fill="#F0F0F0"/>
<path d="M337.887 365.685H334.542V369.03H337.887V365.685Z" fill="#F0F0F0"/>
<path d="M337.887 371.294H334.542V374.64H337.887V371.294Z" fill="#F0F0F0"/>
<path d="M337.887 376.901H334.542V380.246H337.887V376.901Z" fill="#F0F0F0"/>
<path d="M337.887 382.509H334.542V385.855H337.887V382.509Z" fill="#F0F0F0"/>
<path d="M337.887 388.117H334.542V391.463H337.887V388.117Z" fill="#F0F0F0"/>
<path d="M337.887 393.726H334.542V397.071H337.887V393.726Z" fill="#F0F0F0"/>
<path d="M337.887 399.334H334.542V402.679H337.887V399.334Z" fill="#F0F0F0"/>
<path d="M337.887 404.942H334.542V408.288H337.887V404.942Z" fill="#F0F0F0"/>
<path d="M337.887 416.158H334.542V419.504H337.887V416.158Z" fill="#F0F0F0"/>
<path d="M337.887 421.767H334.542V425.112H337.887V421.767Z" fill="#F0F0F0"/>
<path d="M337.887 427.375H334.542V430.721H337.887V427.375Z" fill="#F0F0F0"/>
<path d="M337.887 432.983H334.542V436.329H337.887V432.983Z" fill="#F0F0F0"/>
<path d="M337.887 438.591H334.542V441.937H337.887V438.591Z" fill="#F0F0F0"/>
<path d="M337.887 444.199H334.542V447.545H337.887V444.199Z" fill="#F0F0F0"/>
<path d="M337.887 449.808H334.542V453.153H337.887V449.808Z" fill="#F0F0F0"/>
<path d="M337.887 455.416H334.542V458.762H337.887V455.416Z" fill="#F0F0F0"/>
<path d="M332.574 348.861H329.229V352.207H332.574V348.861Z" fill="#F0F0F0"/>
<path d="M332.574 354.468H329.229V357.814H332.574V354.468Z" fill="#F0F0F0"/>
<path d="M332.574 360.078H329.229V363.423H332.574V360.078Z" fill="#F0F0F0"/>
<path d="M332.574 365.685H329.229V369.03H332.574V365.685Z" fill="#F0F0F0"/>
<path d="M332.574 371.294H329.229V374.64H332.574V371.294Z" fill="#F0F0F0"/>
<path d="M332.574 376.901H329.229V380.246H332.574V376.901Z" fill="#F0F0F0"/>
<path d="M332.574 382.509H329.229V385.855H332.574V382.509Z" fill="#F0F0F0"/>
<path d="M332.574 388.117H329.229V391.463H332.574V388.117Z" fill="#F0F0F0"/>
<path d="M332.574 393.726H329.229V397.071H332.574V393.726Z" fill="#F0F0F0"/>
<path d="M332.574 399.334H329.229V402.679H332.574V399.334Z" fill="#F0F0F0"/>
<path d="M332.574 404.942H329.229V408.288H332.574V404.942Z" fill="#F0F0F0"/>
<path d="M332.574 410.55H329.229V413.896H332.574V410.55Z" fill="#F0F0F0"/>
<path d="M332.574 416.158H329.229V419.504H332.574V416.158Z" fill="#F0F0F0"/>
<path d="M332.574 421.767H329.229V425.112H332.574V421.767Z" fill="#F0F0F0"/>
<path d="M332.574 427.375H329.229V430.721H332.574V427.375Z" fill="#F0F0F0"/>
<path d="M332.574 432.983H329.229V436.329H332.574V432.983Z" fill="#F0F0F0"/>
<path d="M332.574 438.591H329.229V441.937H332.574V438.591Z" fill="#F0F0F0"/>
<path d="M332.574 444.199H329.229V447.545H332.574V444.199Z" fill="#F0F0F0"/>
<path d="M332.574 449.808H329.229V453.153H332.574V449.808Z" fill="#F0F0F0"/>
<path d="M332.574 455.416H329.229V458.762H332.574V455.416Z" fill="#F0F0F0"/>
<path d="M364.058 370.704H360.712V374.049H364.058V370.704Z" fill="#F0F0F0"/>
<path d="M364.058 376.311H360.712V379.656H364.058V376.311Z" fill="#F0F0F0"/>
<path d="M364.058 381.92H360.712V385.266H364.058V381.92Z" fill="#F0F0F0"/>
<path d="M364.058 387.527H360.712V390.872H364.058V387.527Z" fill="#F0F0F0"/>
<path d="M364.058 393.136H360.712V396.482H364.058V393.136Z" fill="#F0F0F0"/>
<path d="M364.058 398.743H360.712V402.089H364.058V398.743Z" fill="#F0F0F0"/>
<path d="M364.058 404.352H360.712V407.697H364.058V404.352Z" fill="#F0F0F0"/>
<path d="M364.058 409.96H360.712V413.305H364.058V409.96Z" fill="#F0F0F0"/>
<path d="M364.058 415.568H360.712V418.913H364.058V415.568Z" fill="#F0F0F0"/>
<path d="M364.058 421.176H360.712V424.522H364.058V421.176Z" fill="#F0F0F0"/>
<path d="M358.746 370.704H355.4V374.049H358.746V370.704Z" fill="#F0F0F0"/>
<path d="M358.746 376.311H355.4V379.656H358.746V376.311Z" fill="#F0F0F0"/>
<path d="M358.746 381.92H355.4V385.266H358.746V381.92Z" fill="#F0F0F0"/>
<path d="M358.746 387.527H355.4V390.872H358.746V387.527Z" fill="#F0F0F0"/>
<path d="M358.746 393.136H355.4V396.482H358.746V393.136Z" fill="#F0F0F0"/>
<path d="M358.746 398.743H355.4V402.089H358.746V398.743Z" fill="#F0F0F0"/>
<path d="M358.746 404.352H355.4V407.697H358.746V404.352Z" fill="#F0F0F0"/>
<path d="M358.746 409.96H355.4V413.305H358.746V409.96Z" fill="#F0F0F0"/>
<path d="M358.746 415.568H355.4V418.913H358.746V415.568Z" fill="#F0F0F0"/>
<path d="M390.358 157.872H384.743V470.66H390.358V157.872Z" fill="#E0E0E0"/>
<path d="M495.977 157.872H490.362V470.66H495.977V157.872Z" fill="#E0E0E0"/>
<path d="M601.597 157.872H595.982V470.66H601.597V157.872Z" fill="#E0E0E0"/>
<path d="M242.885 513.021H196.466V446.149C196.466 442.884 199.112 440.236 202.378 440.236H236.974C240.239 440.236 242.887 442.883 242.887 446.149L242.885 513.021Z" fill="#F0F0F0"/>
<path d="M242.887 450.076H196.467V455.29H242.887V450.076Z" fill="#E6E6E6"/>
<path d="M234.425 504.205H222.861C221.102 504.205 219.676 505.632 219.676 507.391V513.022H237.611V507.391C237.611 505.631 236.185 504.205 234.425 504.205Z" fill="#E0E0E0"/>
<path d="M237.672 513.021H224.807C223.668 513.021 222.745 512.098 222.745 510.958C222.745 509.819 223.668 508.896 224.807 508.896H237.672C238.811 508.896 239.734 509.819 239.734 510.958C239.734 512.098 238.811 513.021 237.672 513.021Z" fill="#E6E6E6"/>
<path d="M443.774 143.151C460.764 139.139 471.285 122.114 467.273 105.125C463.261 88.1349 446.236 77.6143 429.247 81.626C412.257 85.6378 401.737 102.663 405.748 119.652C409.76 136.642 426.785 147.162 443.774 143.151Z" fill="#E0E0E0"/>
<path d="M440.839 138.937C455.491 136.56 465.441 122.754 463.063 108.102C460.685 93.4505 446.88 83.5005 432.228 85.8784C417.576 88.2563 407.626 102.062 410.004 116.713C412.382 131.365 426.188 141.315 440.839 138.937Z" fill="#F0F0F0"/>
<path d="M437.795 93.9775V112.766L450.246 105.72" fill="#F0F0F0"/>
<path d="M437.795 93.9775V112.766L450.246 105.72" stroke="#E0E0E0" stroke-width="2" stroke-miterlimit="10" stroke-linecap="round" stroke-linejoin="round"/>
<path d="M134.081 420.906C131.666 416.929 127.688 420.388 127.688 420.388C128.256 412.766 121.244 407.552 121.244 407.552C121.244 407.552 129.392 407.552 130.529 399.777C131.666 392.001 127.688 395.618 123.956 395.565C120.224 395.512 116.323 406.415 121.244 412.548C126.165 418.68 124.847 429.148 113.48 439.214C110.708 441.67 108.822 444.939 107.549 448.476C108.406 439.227 108.891 426.196 106.169 417.496C101.546 402.721 110.355 398.743 112.913 391.355C115.471 383.968 106.169 377.717 106.169 377.717C106.169 377.717 114.902 373.739 110.639 369.192C106.377 364.646 97.5682 365.264 97.5682 371.207C97.5682 377.148 103.535 379.421 103.535 379.421C103.535 379.421 110.353 386.524 110.353 390.219C110.353 393.913 103.535 401.869 103.535 401.869C103.535 401.869 106.66 395.059 100.409 394.771C94.1582 394.481 92.1694 402.721 94.7259 406.415C97.2824 410.11 101.545 406.983 101.545 406.983C101.545 406.983 102.041 414.938 103.497 419.77C104.137 421.894 103.837 430.228 103.299 438.9C102.04 435.769 100.259 432.901 97.7642 430.689C86.3988 420.622 85.0796 410.156 90.0007 404.024C94.9218 397.892 91.0206 386.989 87.2885 387.042C83.5564 387.095 79.5787 383.478 80.7154 391.254C81.8521 399.029 90.0007 399.029 90.0007 399.029C90.0007 399.029 82.9888 404.243 83.5564 411.865C83.5564 411.865 79.5787 408.406 77.1631 412.385C72.8513 419.486 82.8452 423.892 84.5253 420.396C84.5253 420.396 105.72 435.4 100.605 456.994L101.793 458.748C101.64 460.491 101.545 461.541 101.545 461.541L103.202 460.827L105.087 463.611C104.989 469.009 105.571 472.999 105.571 472.999L110.638 465.518C105.524 443.924 126.716 428.921 126.716 428.921C128.399 432.413 138.393 428.008 134.081 420.906Z" fill="#E0E0E0"/>
<path opacity="0.2" d="M134.081 420.906C131.666 416.929 127.688 420.388 127.688 420.388C128.256 412.766 121.244 407.552 121.244 407.552C121.244 407.552 129.392 407.552 130.529 399.777C131.666 392.001 127.688 395.618 123.956 395.565C120.224 395.512 116.323 406.415 121.244 412.548C126.165 418.68 124.847 429.148 113.48 439.214C110.708 441.67 108.822 444.939 107.549 448.476C108.406 439.227 108.891 426.196 106.169 417.496C101.546 402.721 110.355 398.743 112.913 391.355C115.471 383.968 106.169 377.717 106.169 377.717C106.169 377.717 114.902 373.739 110.639 369.192C106.377 364.646 97.5682 365.264 97.5682 371.207C97.5682 377.148 103.535 379.421 103.535 379.421C103.535 379.421 110.353 386.524 110.353 390.219C110.353 393.913 103.535 401.869 103.535 401.869C103.535 401.869 106.66 395.059 100.409 394.771C94.1582 394.481 92.1694 402.721 94.7259 406.415C97.2824 410.11 101.545 406.983 101.545 406.983C101.545 406.983 102.041 414.938 103.497 419.77C104.137 421.894 103.837 430.228 103.299 438.9C102.04 435.769 100.259 432.901 97.7642 430.689C86.3988 420.622 85.0796 410.156 90.0007 404.024C94.9218 397.892 91.0206 386.989 87.2885 387.042C83.5564 387.095 79.5787 383.478 80.7154 391.254C81.8521 399.029 90.0007 399.029 90.0007 399.029C90.0007 399.029 82.9888 404.243 83.5564 411.865C83.5564 411.865 79.5787 408.406 77.1631 412.385C72.8513 419.486 82.8452 423.892 84.5253 420.396C84.5253 420.396 105.72 435.4 100.605 456.994L101.793 458.748C101.64 460.491 101.545 461.541 101.545 461.541L103.202 460.827L105.087 463.611C104.989 469.009 105.571 472.999 105.571 472.999L110.638 465.518C105.524 443.924 126.716 428.921 126.716 428.921C128.399 432.413 138.393 428.008 134.081 420.906Z" fill="#E0E0E0"/>
<path d="M129.936 513.021H81.3891L76.1526 459.87H135.174L129.936 513.021Z" fill="#E6E6E6"/>
<path d="M137.765 454.005H73.5598V465.734H137.765V454.005Z" fill="#F0F0F0"/>
<path d="M339.5 573.787C483.204 573.787 599.699 566.984 599.699 558.591C599.699 550.199 483.204 543.396 339.5 543.396C195.796 543.396 79.301 550.199 79.301 558.591C79.301 566.984 195.796 573.787 339.5 573.787Z" fill="#F5F5F5"/>
<path d="M554.82 516.29C555.024 514.916 559.721 482.509 550.312 471.321C548.229 468.845 545.602 467.55 542.5 467.474C523.507 467.029 520.909 482.284 520.886 482.44L523.126 482.785C523.213 482.238 525.465 469.328 542.445 469.739C544.902 469.798 546.909 470.794 548.578 472.779C557.337 483.194 552.628 515.629 552.579 515.955L554.82 516.29Z" fill="#407BFF"/>
<path d="M555.97 514.813L558.235 514.742C558.226 514.444 557.482 484.882 572.048 478.775C586.323 472.795 592.745 485.09 593.01 485.617L595.035 484.599C594.962 484.451 587.426 469.869 571.172 476.685C555.171 483.394 555.93 513.534 555.97 514.813Z" fill="#407BFF"/>
<path d="M555.903 517.136C555.904 516.665 556.04 469.911 565.155 456.236C573.907 443.107 588.026 449.288 588.622 449.559L589.559 447.495C589.395 447.422 573.102 440.228 563.269 454.978C553.774 469.221 553.638 515.183 553.636 517.133L555.903 517.136Z" fill="#407BFF"/>
<path d="M539.783 468.597C539.783 468.597 548.075 471.654 545.61 478.871C543.144 486.089 516.92 497.968 516.92 497.968C516.92 497.968 505.937 487.902 516.024 471.53C526.11 455.159 539.559 463.432 539.783 468.597Z" fill="#407BFF"/>
<path d="M565.566 453.775C565.566 453.775 559.679 453.142 560.153 449.557C560.627 445.971 583.039 436.741 596.263 451.666C596.263 451.666 587.797 466.211 575.556 466.401C563.316 466.589 565.566 453.775 565.566 453.775Z" fill="#407BFF"/>
<path d="M571.61 477.731C571.61 477.731 567.546 474.449 571.932 472.848C576.317 471.247 597.834 471.702 598.058 493.016C598.058 493.016 572.998 497.18 569.896 489.063C566.793 480.945 571.61 477.731 571.61 477.731Z" fill="#407BFF"/>
<path opacity="0.2" d="M539.783 468.597C539.783 468.597 548.075 471.654 545.61 478.871C543.144 486.089 516.92 497.968 516.92 497.968C516.92 497.968 505.937 487.902 516.024 471.53C526.11 455.159 539.559 463.432 539.783 468.597Z" fill="black"/>
<path opacity="0.2" d="M565.566 453.775C565.566 453.775 559.679 453.142 560.153 449.557C560.627 445.971 583.039 436.741 596.263 451.666C596.263 451.666 587.797 466.211 575.556 466.401C563.316 466.589 565.566 453.775 565.566 453.775Z" fill="black"/>
<path opacity="0.2" d="M571.61 477.731C571.61 477.731 567.546 474.449 571.932 472.848C576.317 471.247 597.834 471.702 598.058 493.016C598.058 493.016 572.998 497.18 569.896 489.063C566.793 480.945 571.61 477.731 571.61 477.731Z" fill="black"/>
<path d="M535.326 559.711H574.214L578.409 517.134H531.131L535.326 559.711Z" fill="#407BFF"/>
<path opacity="0.5" d="M535.326 559.711H574.214L578.409 517.134H531.131L535.326 559.711Z" fill="white"/>
<path d="M529.055 521.832H580.486V512.436H529.055V521.832Z" fill="#407BFF"/>
<path opacity="0.2" d="M529.055 521.832H580.486V512.436H529.055V521.832Z" fill="white"/>
<path d="M491.312 529.191L452.645 525.39V471.05H437.321V525.376L398.498 529.191C394.644 529.569 391.707 532.81 391.707 536.683V542.49H443.485H446.325H498.103V536.683C498.104 532.81 495.165 529.569 491.312 529.191Z" fill="#263238"/>
<path opacity="0.2" d="M491.312 529.191L452.645 525.39V471.05H437.321V525.376L398.498 529.191C394.644 529.569 391.707 532.81 391.707 536.683V542.49H443.485H446.325H498.103V536.683C498.104 532.81 495.165 529.569 491.312 529.191Z" fill="white"/>
<path d="M395.798 559.711C401.332 559.711 405.818 555.225 405.818 549.691C405.818 544.158 401.332 539.672 395.798 539.672C390.265 539.672 385.779 544.158 385.779 549.691C385.779 555.225 390.265 559.711 395.798 559.711Z" fill="#263238"/>
<path d="M494.011 559.711C499.545 559.711 504.03 555.225 504.03 549.691C504.03 544.158 499.545 539.672 494.011 539.672C488.478 539.672 483.992 544.158 483.992 549.691C483.992 555.225 488.478 559.711 494.011 559.711Z" fill="#263238"/>
<path d="M449.737 482.729H440.228C437.164 482.729 434.681 480.247 434.681 477.183V434.329H455.284V477.183C455.284 480.247 452.801 482.729 449.737 482.729Z" fill="#263238"/>
<path opacity="0.3" d="M449.737 482.729H440.228C437.164 482.729 434.681 480.247 434.681 477.183V434.329H455.284V477.183C455.284 480.247 452.801 482.729 449.737 482.729Z" fill="white"/>
<path d="M481.619 349.39C481.619 349.39 484.539 421.854 464.365 434.329H487.398C487.398 434.329 505.244 409.641 500.2 349.39H481.619Z" fill="#263238"/>
<path opacity="0.3" d="M481.619 349.39C481.619 349.39 484.539 421.854 464.365 434.329H487.398C487.398 434.329 505.244 409.641 500.2 349.39H481.619Z" fill="white"/>
<path d="M398.725 424.195H488.533C492.24 424.195 495.243 427.2 495.243 430.905V439.882H392.015V430.905C392.015 427.199 395.02 424.195 398.725 424.195Z" fill="#263238"/>
<path d="M390.411 432.039H496.847C498.338 432.039 499.546 433.247 499.546 434.738V437.183C499.546 438.674 498.338 439.882 496.847 439.882H390.411C388.92 439.882 387.713 438.674 387.713 437.183V434.738C387.713 433.247 388.92 432.039 390.411 432.039Z" fill="#263238"/>
<path opacity="0.6" d="M390.411 432.039H496.847C498.338 432.039 499.546 433.247 499.546 434.738V437.183C499.546 438.674 498.338 439.882 496.847 439.882H390.411C388.92 439.882 387.713 438.674 387.713 437.183V434.738C387.713 433.247 388.92 432.039 390.411 432.039Z" fill="white"/>
<path d="M505.846 364.113H468.949C458.139 364.113 449.377 355.351 449.377 344.541V330.112C449.377 319.302 458.139 310.54 468.949 310.54H505.847C516.657 310.54 525.419 319.302 525.419 330.112V344.541C525.419 355.351 516.656 364.113 505.846 364.113Z" fill="#263238"/>
<path d="M357.015 251.328L349.652 231.91C349.652 231.91 352.81 228.987 350.644 226.022C348.478 223.058 334.889 214.715 332.412 216.181C329.934 217.647 324.435 223.177 327.409 226.245C330.381 229.313 343.546 234.434 343.546 234.434L350.059 259.912L357.015 251.328Z" fill="#E4897B"/>
<path d="M408.456 288.249C408.456 288.249 374.946 281.361 371.312 279.717C367.679 278.073 354.188 238.566 354.188 238.566L343.849 243.397C343.849 243.397 352.172 283.041 360.682 292.469C369.193 301.896 405.493 309.869 405.493 309.869L408.456 288.249Z" fill="#407BFF"/>
<path opacity="0.2" d="M405.489 309.864C405.489 309.864 405.28 309.819 404.874 309.721C403.041 309.309 397.319 307.959 390.509 305.969C379.458 302.76 365.542 297.854 360.677 292.474C352.179 283.041 343.845 243.394 343.845 243.394L354.182 238.569C354.182 238.569 367.671 278.076 371.318 279.718C374.95 281.357 408.457 288.247 408.457 288.247L405.489 309.864Z" fill="black"/>
<path d="M354.352 237.79L356.488 241.909L343.203 246.484L343.715 241.45L354.352 237.79Z" fill="#407BFF"/>
<path opacity="0.2" d="M405.745 309.323C403.885 309.055 398.076 308.152 391.132 306.695C395.091 299.861 406.685 296.346 406.685 296.346L405.745 309.323Z" fill="black"/>
<path d="M455.695 260.902C455.695 260.902 457.666 279.462 450.788 284.02C443.911 288.577 410.091 283.239 406.253 275.773C402.416 268.308 416.853 248.031 416.853 248.031L455.695 260.902Z" fill="#263238"/>
<path d="M318.824 505.122L327.649 507.248L332.115 495.065L336.171 483.984L326.119 479.697L322.254 493.145L318.824 505.122Z" fill="#E4897B"/>
<path opacity="0.2" d="M322.254 493.145L332.115 495.065L336.171 483.984L326.119 479.697L322.254 493.145Z" fill="black"/>
<path d="M323.141 486.714L335.38 491.263C335.38 491.263 368.031 409.63 374.741 409.348C381.451 409.066 449.772 440.469 466.896 423.05C484.02 405.644 459.26 363.679 459.26 363.679C459.26 363.679 418.074 357.801 414.974 367.102C414.37 368.9 413.713 372.429 413.23 375.449C412.76 378.294 412.438 380.683 412.438 380.683C412.438 380.683 412.424 380.683 412.411 380.669C411.136 380.347 369.789 369.678 353.497 380.683C336.95 391.875 323.141 486.714 323.141 486.714Z" fill="#407BFF"/>
<path opacity="0.6" d="M323.141 486.714L335.38 491.263C335.38 491.263 368.031 409.63 374.741 409.348C381.451 409.066 449.772 440.469 466.896 423.05C484.02 405.644 459.26 363.679 459.26 363.679C459.26 363.679 418.074 357.801 414.974 367.102C414.37 368.9 413.713 372.429 413.23 375.449C412.76 378.294 412.438 380.683 412.438 380.683C412.438 380.683 412.424 380.683 412.411 380.669C411.136 380.347 369.789 369.678 353.497 380.683C336.95 391.875 323.141 486.714 323.141 486.714Z" fill="white"/>
<path d="M393.538 539.946L402.331 537.692L400.639 525.079L399.069 513.508L388.195 514.484L391.018 527.966L393.538 539.946Z" fill="#E4897B"/>
<path opacity="0.2" d="M391.088 528.237L400.701 525.319L399.1 513.629L388.211 514.544L391.088 528.237Z" fill="black"/>
<path d="M340.434 486.735L322.608 480.676L321.846 487.979L335.368 492.76L340.434 486.735Z" fill="#407BFF"/>
<path d="M437.319 427.238C437.319 427.238 434.53 427.303 391.33 425.29C391.33 425.29 397.786 479.299 401.307 519.731L388.389 521.933C388.389 521.933 357.523 435.357 357.859 421.601C358.194 407.846 373.963 403.82 373.963 403.82C373.963 403.82 404.74 421.6 437.319 427.238Z" fill="#407BFF"/>
<path opacity="0.6" d="M437.319 427.238C437.319 427.238 434.53 427.303 391.33 425.29C391.33 425.29 397.786 479.299 401.307 519.731L388.389 521.933C388.389 521.933 357.523 435.357 357.859 421.601C358.194 407.846 373.963 403.82 373.963 403.82C373.963 403.82 404.74 421.6 437.319 427.238Z" fill="white"/>
<path opacity="0.1" d="M437.319 427.238C437.319 427.238 434.53 427.303 391.33 425.29C391.33 425.29 397.786 479.299 401.307 519.731L388.389 521.933C388.389 521.933 357.523 435.357 357.859 421.601C358.194 407.846 373.963 403.82 373.963 403.82C373.963 403.82 404.74 421.6 437.319 427.238Z" fill="black"/>
<path d="M403.197 515.812L385.442 517.832L388.867 524.792L403.24 522.949L403.197 515.812Z" fill="#407BFF"/>
<path opacity="0.1" d="M412.438 380.683L436.527 385.702C436.527 385.702 423.214 378.347 413.23 375.449C412.76 378.294 412.438 380.683 412.438 380.683Z" fill="black"/>
<path d="M458.266 357.277L459.256 363.684L414.972 367.099L413.8 359.522L458.266 357.277Z" fill="#263238"/>
<path opacity="0.2" d="M458.266 357.277L459.256 363.684L414.972 367.099L413.8 359.522L458.266 357.277Z" fill="black"/>
<path d="M444.271 368L446.459 367.775L445.313 356.631L443.125 356.856L444.271 368Z" fill="#407BFF"/>
<path d="M424.661 366.878L434.363 366.255L433.891 358.897L424.188 359.52L424.661 366.878Z" fill="white"/>
<path d="M417.145 369.203L419.333 368.978L418.187 357.834L415.999 358.059L417.145 369.203Z" fill="#407BFF"/>
<path opacity="0.6" d="M444.271 368L446.459 367.775L445.313 356.631L443.125 356.856L444.271 368Z" fill="white"/>
<path opacity="0.6" d="M417.145 369.203L419.333 368.978L418.187 357.834L415.999 358.059L417.145 369.203Z" fill="white"/>
<path d="M407.652 287.638C407.652 287.638 418.959 291.185 433.168 290.455C447.377 289.725 464.365 296.626 464.365 296.626L458.266 357.277L413.8 359.522C413.8 359.522 398.859 308.875 407.652 287.638Z" fill="#407BFF"/>
<path d="M414.796 253.388C414.796 253.388 417.296 223.934 441.915 234.637C472.817 248.07 448.244 283.944 433.148 276.579C418.051 269.215 414.796 253.388 414.796 253.388Z" fill="#263238"/>
<path opacity="0.2" d="M421.698 292.1L422.405 308.742L427.927 300.913C427.927 300.913 425.957 319.32 427.11 329.342C427.11 329.342 428.165 311.37 430.666 300.913L436.527 308.742L444.948 292.202C444.948 292.202 431.322 287.308 421.698 292.1Z" fill="black"/>
<path d="M429.323 295.196L442.053 291.599C434.209 286.2 438.164 274.129 438.164 274.129L425.553 278.563C426.227 280.655 426.651 282.433 426.906 283.951C428.224 291.818 424.671 292.446 424.671 292.446L429.323 295.196Z" fill="#E4897B"/>
<path opacity="0.2" d="M425.554 278.563C426.228 280.655 426.652 282.433 426.907 283.951C432.943 281.531 438.165 274.129 438.165 274.129L425.554 278.563Z" fill="black"/>
<path d="M433.784 240.821C422.614 238.349 417.696 243.533 414.33 254.862C410.124 269.02 411.051 279.945 425.697 279.964C445.588 279.988 452.333 244.926 433.784 240.821Z" fill="#E4897B"/>
<path d="M421.688 255.836C421.688 255.836 419.495 258.412 417.413 259.75C417.413 259.75 418.033 261.481 420.078 261.665L421.688 255.836Z" fill="#DE5753"/>
<path d="M428.727 256.436C428.503 257.349 428.814 258.21 429.422 258.359C430.03 258.508 430.706 257.891 430.931 256.978C431.155 256.066 430.843 255.204 430.235 255.054C429.627 254.904 428.952 255.522 428.727 256.436Z" fill="#263238"/>
<path d="M430.478 255.16L428.684 253.893C428.684 253.893 429.262 255.807 430.478 255.16Z" fill="#263238"/>
<path d="M417.427 253.454C417.203 254.367 417.514 255.229 418.122 255.379C418.732 255.529 419.407 254.911 419.631 253.998C419.855 253.085 419.544 252.224 418.936 252.075C418.326 251.923 417.651 252.542 417.427 253.454Z" fill="#263238"/>
<path d="M419.178 252.179L417.386 250.913C417.386 250.913 417.963 252.826 419.178 252.179Z" fill="#263238"/>
<path d="M430.547 248.748C430.547 248.748 433.775 249.035 435.017 251.508" stroke="#263238" stroke-width="0.7247" stroke-miterlimit="10" stroke-linecap="round" stroke-linejoin="round"/>
<path d="M422.532 246.479C422.532 246.479 420.721 245.311 417.878 246.411" stroke="#263238" stroke-width="0.7247" stroke-miterlimit="10" stroke-linecap="round" stroke-linejoin="round"/>
<path d="M441.825 262.348C441.825 262.348 438.634 252.016 440.993 245.106C440.993 245.106 420.86 231.165 414.796 253.39C414.796 253.39 417.048 232.962 436.347 236.767C455.615 240.566 449.347 268.643 437.579 274.818C437.579 274.818 443.786 268.801 441.825 262.348Z" fill="#263238"/>
<path d="M439.479 264.302C439.951 262.52 442.481 259.887 445.745 260.992C449.123 262.136 449.199 269.607 440.212 269.409C438.922 269.381 438.493 268.019 439.479 264.302Z" fill="#E4897B"/>
<path d="M418.08 265.908C418.475 267.386 418.658 270.059 418.658 270.059C418.904 270.086 419.149 270.113 419.395 270.127C422.73 270.41 424.37 269.44 425.177 268.279C425.616 267.642 425.8 266.939 425.873 266.358C425.964 265.688 425.875 265.189 425.875 265.189C424.018 266.095 420.888 266.07 419.218 265.986C418.518 265.959 418.08 265.908 418.08 265.908Z" fill="#263238"/>
<path d="M419.218 265.986L419.42 267.206C422.562 267.465 424.808 267.226 425.872 266.358C425.964 265.688 425.875 265.189 425.875 265.189C424.018 266.095 420.888 266.069 419.218 265.986Z" fill="white"/>
<path d="M419.395 270.126C422.73 270.409 424.37 269.439 425.177 268.278C424.038 268.226 422.657 268.289 421.412 268.697C420.459 269.007 419.831 269.554 419.395 270.126Z" fill="#DE5753"/>
<path d="M433.828 241.714C433.828 241.714 434.26 261.089 445.884 263.415C457.509 265.74 444.801 238.518 444.801 238.518C444.801 238.518 427.494 227.213 415.956 235.18C404.419 243.148 414.796 253.39 414.796 253.39C414.796 253.39 417.233 238.998 433.828 241.714Z" fill="#263238"/>
<path d="M434.229 240.434C434.229 240.434 430.086 252.681 438.267 259.111" stroke="#263238" stroke-width="0.5" stroke-miterlimit="10" stroke-linecap="round" stroke-linejoin="round"/>
<path d="M449.278 267.4C447.799 271.34 444.003 273.557 440.797 272.355C437.592 271.151 436.192 266.983 437.671 263.044C439.15 259.104 442.947 256.887 446.153 258.089C449.357 259.292 450.757 263.46 449.278 267.4Z" fill="#407BFF"/>
<path opacity="0.4" d="M449.278 267.4C447.799 271.34 444.003 273.557 440.797 272.355C437.592 271.151 436.192 266.983 437.671 263.044C439.15 259.104 442.947 256.887 446.153 258.089C449.357 259.292 450.757 263.46 449.278 267.4Z" fill="black"/>
<path d="M445.577 260.94C445.577 260.94 450.39 239.374 439.589 233.721C439.589 233.721 441.84 234.025 443.235 234.431C444.631 234.838 453.259 243.584 448.899 262.966L445.577 260.94Z" fill="#407BFF"/>
<path opacity="0.2" d="M445.577 260.94C445.577 260.94 450.39 239.374 439.589 233.721C439.589 233.721 441.84 234.025 443.235 234.431C444.631 234.838 453.259 243.584 448.899 262.966L445.577 260.94Z" fill="black"/>
<path d="M425.319 273.282C425.052 273.247 424.784 273.207 424.513 273.162L424.73 271.838C434.456 273.422 441.692 268.275 441.764 268.222L442.557 269.305C442.256 269.526 435.218 274.584 425.319 273.282Z" fill="#407BFF"/>
<g opacity="0.2">
<path d="M425.319 273.282C425.052 273.247 424.784 273.207 424.513 273.162L424.73 271.838C434.456 273.422 441.692 268.275 441.764 268.222L442.557 269.305C442.256 269.526 435.218 274.584 425.319 273.282Z" fill="black"/>
</g>
<path d="M448.825 266.861C447.846 269.466 445.337 270.931 443.218 270.137C441.099 269.341 440.174 266.586 441.151 263.981C442.129 261.376 444.639 259.911 446.758 260.705C448.877 261.501 449.802 264.256 448.825 266.861Z" fill="#407BFF"/>
<path d="M424.12 273.722L423.042 273.58C422.242 273.476 421.68 272.741 421.785 271.942C421.889 271.142 422.624 270.579 423.422 270.684L424.5 270.826C425.299 270.931 425.862 271.665 425.757 272.465C425.654 273.265 424.92 273.827 424.12 273.722Z" fill="#407BFF"/>
<path opacity="0.4" d="M424.12 273.722L423.042 273.58C422.242 273.476 421.68 272.741 421.785 271.942C421.889 271.142 422.624 270.579 423.422 270.684L424.5 270.826C425.299 270.931 425.862 271.665 425.757 272.465C425.654 273.265 424.92 273.827 424.12 273.722Z" fill="black"/>
<path d="M438.64 286.984L430.666 294.816L433.855 304.413L444.948 292.202L438.64 286.984Z" fill="#407BFF"/>
<path d="M427.11 288.621L428.399 294.65L424.27 303.174L421.698 292.1L427.11 288.621Z" fill="#407BFF"/>
<path d="M436.933 293.783L441.565 276.833C441.565 276.833 439.321 272.611 439.805 271.727C440.29 270.844 442.7 259.464 444.419 258.224C446.137 256.985 453.201 259.1 453.916 260.254C454.632 261.408 447.146 276.832 447.146 276.832L444.418 295.194L436.933 293.783Z" fill="#E4897B"/>
<path d="M464.365 296.626C477.108 309.669 451.568 339.217 436.933 337.959C422.299 336.7 437.298 283.12 437.298 283.12L446.67 284.662C446.67 284.662 443.382 307.849 444.418 309.669C445.456 311.488 460.083 292.242 464.365 296.626Z" fill="#407BFF"/>
<path opacity="0.2" d="M464.365 296.626C477.108 309.669 451.568 339.217 436.933 337.959C422.299 336.7 437.298 283.12 437.298 283.12L446.67 284.662C446.67 284.662 443.382 307.849 444.418 309.669C445.456 311.488 460.083 292.242 464.365 296.626Z" fill="black"/>
<path d="M436.528 281.407L435.14 285.831L448.198 286.984V283.12L436.528 281.407Z" fill="#407BFF"/>
<path opacity="0.6" d="M416.743 328.554H411.453C410.866 328.554 410.391 328.079 410.391 327.492V317.509C410.391 316.923 410.866 316.448 411.453 316.448H416.743C417.329 316.448 417.805 316.923 417.805 317.509V327.492C417.805 328.079 417.329 328.554 416.743 328.554Z" fill="white"/>
<path opacity="0.2" d="M416.85 317.243H410.833V325.473H416.85V317.243Z" fill="black"/>
<path d="M414.638 313.526H413.31V318.376H414.638V313.526Z" fill="#263238"/>
<path d="M304.212 522.264C305.554 521.646 306.997 521.28 308.472 521.182C308.472 521.182 313.569 518.181 318.62 506.527L324.301 506.494C326.267 506.516 328.011 507.765 328.665 509.619C328.759 509.871 328.812 510.137 328.826 510.406C328.768 511.778 328.623 513.146 328.39 514.5C327.878 518.749 325.068 527.865 325.068 527.865L324.106 527.619L325.856 519.143C326.438 516.263 323.412 519.045 322.008 521.949C320.605 524.854 318.452 527.776 312.178 526.342C304.867 524.631 301.92 523.579 304.212 522.264Z" fill="#407BFF"/>
<path d="M319.648 503.473C319.648 503.473 312.556 518.317 308.47 521.18C308.47 521.18 313.946 524.446 319.648 517.179C327.021 507.781 328.825 510.406 328.825 510.406C328.825 510.406 328.512 507.19 327.936 505.616C326.83 502.583 319.648 503.473 319.648 503.473Z" fill="#E4897B"/>
<path d="M382.345 557.629C383.502 556.711 384.817 556.012 386.226 555.568C386.226 555.568 390.465 551.444 392.61 538.924L398.12 537.545C400.037 537.101 402.025 537.901 403.1 539.547C403.251 539.77 403.366 540.016 403.443 540.273C403.712 541.621 403.895 542.983 403.989 544.354C404.5 548.603 403.932 558.126 403.932 558.126L402.939 558.116L402.629 549.467C402.511 546.531 400.231 549.952 399.556 553.105C398.881 556.259 397.483 559.61 391.048 559.704C383.543 559.774 380.431 559.449 382.345 557.629Z" fill="#407BFF"/>
<path d="M392.885 535.713C392.885 535.713 389.514 551.816 386.226 555.567C386.226 555.567 392.32 557.44 396.135 549.028C401.068 538.15 403.444 540.272 403.444 540.272C403.444 540.272 402.378 537.221 401.445 535.828C399.65 533.146 392.885 535.713 392.885 535.713Z" fill="#E4897B"/>
<path d="M517.664 244.538H470.807C467.053 244.538 464.01 241.494 464.01 237.741V217.69C464.01 213.936 467.053 210.893 470.807 210.893H517.664C521.418 210.893 524.461 213.936 524.461 217.69V237.741C524.461 241.494 521.418 244.538 517.664 244.538Z" fill="#407BFF"/>
<path d="M480.21 240.702L466.094 259.89L488.869 241.989L480.21 240.702Z" fill="#407BFF"/>
<path d="M480.737 227.715C480.737 228.808 479.852 229.694 478.758 229.694C477.664 229.694 476.779 228.807 476.779 227.715C476.779 226.621 477.664 225.735 478.758 225.735C479.85 225.735 480.737 226.621 480.737 227.715Z" fill="white"/>
<path d="M491.056 227.715C491.056 228.808 490.169 229.694 489.077 229.694C487.984 229.694 487.097 228.807 487.097 227.715C487.097 226.621 487.984 225.735 489.077 225.735C490.169 225.735 491.056 226.621 491.056 227.715Z" fill="white"/>
<path d="M501.375 227.715C501.375 228.808 500.489 229.694 499.395 229.694C498.301 229.694 497.416 228.807 497.416 227.715C497.416 226.621 498.303 225.735 499.395 225.735C500.489 225.735 501.375 226.621 501.375 227.715Z" fill="white"/>
<path d="M511.693 227.715C511.693 228.808 510.806 229.694 509.714 229.694C508.62 229.694 507.734 228.807 507.734 227.715C507.734 226.621 508.62 225.735 509.714 225.735C510.808 225.735 511.693 226.621 511.693 227.715Z" fill="white"/>
<path d="M329.342 218.082L295.927 200.084C295.023 199.597 294.685 198.471 295.172 197.567L305.829 177.779C306.316 176.876 307.442 176.537 308.347 177.023L341.763 195.021C342.666 195.508 343.004 196.634 342.518 197.538L331.861 217.326C331.373 218.229 330.245 218.568 329.342 218.082Z" fill="#407BFF"/>
<path opacity="0.7" d="M329.342 218.082L295.927 200.084C295.023 199.597 294.685 198.471 295.172 197.567L305.829 177.779C306.316 176.876 307.442 176.537 308.347 177.023L341.763 195.021C342.666 195.508 343.004 196.634 342.518 197.538L331.861 217.326C331.373 218.229 330.245 218.568 329.342 218.082Z" fill="white"/>
<path opacity="0.2" d="M304.948 179.415L315.402 198.937C316.216 200.457 317.864 201.337 319.581 201.167L341.34 199.016L319.19 202.277C317.204 202.569 315.262 201.523 314.413 199.704L304.948 179.415Z" fill="black"/>
<path d="M279.569 175.778C279.924 168.311 285.451 153.267 292.176 148.667C298.9 144.065 294.476 150.437 294.476 150.437C294.476 150.437 300.846 144.244 304.209 144.421C307.572 144.598 304.209 148.491 304.209 148.491C304.209 148.491 311.111 144.237 314.297 144.417C317.483 144.598 314.297 148.314 314.297 148.314C314.297 148.314 319.96 144.244 322.261 146.191C324.561 148.138 292.884 169.02 289.345 177.514C285.805 186.007 279.209 183.335 279.569 175.778Z" fill="#407BFF"/>
<path opacity="0.4" d="M279.569 175.778C279.924 168.311 285.451 153.267 292.176 148.667C298.9 144.065 294.476 150.437 294.476 150.437C294.476 150.437 300.846 144.244 304.209 144.421C307.572 144.598 304.209 148.491 304.209 148.491C304.209 148.491 311.111 144.237 314.297 144.417C317.483 144.598 314.297 148.314 314.297 148.314C314.297 148.314 319.96 144.244 322.261 146.191C324.561 148.138 292.884 169.02 289.345 177.514C285.805 186.007 279.209 183.335 279.569 175.778Z" fill="white"/>
<path d="M306.775 174.676L311.007 177.386C311.311 177.58 311.153 178.053 310.792 178.024L306.347 177.678L306.73 181.089C306.771 181.46 306.311 181.664 306.064 181.385L303.501 178.482L306.775 174.676Z" fill="#407BFF"/>
<path opacity="0.3" d="M306.775 174.676L311.007 177.386C311.311 177.58 311.153 178.053 310.792 178.024L306.347 177.678L306.73 181.089C306.771 181.46 306.311 181.664 306.064 181.385L303.501 178.482L306.775 174.676Z" fill="white"/>
<path d="M247.404 157.872C247.404 157.872 253.244 153.799 262.092 156.453C262.092 156.453 264.636 168.133 271.593 172.026C275.414 174.164 284.774 173.98 292.177 171.583C300.968 168.736 305.272 168.736 306.865 172.026C308.374 175.14 306.688 178.75 299.963 180.343C293.238 181.936 287.93 193.616 275.719 193.793C263.508 193.97 257.081 181.727 260.146 170.964C260.146 170.964 256.429 162.942 247.404 157.872Z" fill="#407BFF"/>
<path opacity="0.5" d="M247.404 157.872C247.404 157.872 253.244 153.799 262.092 156.453C262.092 156.453 264.636 168.133 271.593 172.026C275.414 174.164 284.774 173.98 292.177 171.583C300.968 168.736 305.272 168.736 306.865 172.026C308.374 175.14 306.688 178.75 299.963 180.343C293.238 181.936 287.93 193.616 275.719 193.793C263.508 193.97 257.081 181.727 260.146 170.964C260.146 170.964 256.429 162.942 247.404 157.872Z" fill="white"/>
<path d="M303.502 174.239C303.502 174.569 303.235 174.836 302.905 174.836C302.575 174.836 302.308 174.569 302.308 174.239C302.308 173.908 302.575 173.641 302.905 173.641C303.235 173.641 303.502 173.908 303.502 174.239Z" fill="#263238"/>
<path d="M272.884 184.068C265.673 186.034 249.659 185.42 243.206 180.444C236.754 175.468 244.179 177.709 244.179 177.709C244.179 177.709 236.322 173.561 235.452 170.308C234.582 167.055 239.324 169.052 239.324 169.052C239.324 169.052 233.147 163.801 232.335 160.715C231.523 157.63 236.041 159.513 236.041 159.513C236.041 159.513 230.422 155.382 231.563 152.594C232.704 149.805 262.344 173.49 271.517 174.233C280.69 174.979 280.184 182.077 272.884 184.068Z" fill="#407BFF"/>
<path opacity="0.4" d="M272.884 184.068C265.673 186.034 249.659 185.42 243.206 180.444C236.754 175.468 244.179 177.709 244.179 177.709C244.179 177.709 236.322 173.561 235.452 170.308C234.582 167.055 239.324 169.052 239.324 169.052C239.324 169.052 233.147 163.801 232.335 160.715C231.523 157.63 236.041 159.513 236.041 159.513C236.041 159.513 230.422 155.382 231.563 152.594C232.704 149.805 262.344 173.49 271.517 174.233C280.69 174.979 280.184 182.077 272.884 184.068Z" fill="white"/>
<path d="M225.649 150.92C224.387 150.471 223.111 150.052 221.824 149.661" stroke="#407BFF" stroke-width="0.75" stroke-linecap="round" stroke-linejoin="round"/>
<path d="M213.979 147.66C209.275 146.675 204.493 146.037 199.744 145.706C186.696 144.798 166.241 143.506 158.248 156.508C150.965 168.357 163.495 188.573 167.943 199.573C173.39 213.045 179.866 229.705 173.43 243.968C160.203 273.276 103.584 258.057 84.4851 231.064" stroke="#407BFF" stroke-width="0.75" stroke-linecap="round" stroke-linejoin="round" stroke-dasharray="6.03 6.03"/>
<path d="M82.3137 227.656C81.6413 226.472 81.0428 225.27 80.5234 224.051" stroke="#407BFF" stroke-width="0.75" stroke-linecap="round" stroke-linejoin="round"/>
<path d="M245.302 334.214H194.363V344.662H245.302V334.214Z" fill="white"/>
<path opacity="0.1" d="M245.302 334.214H194.363V344.662H245.302V334.214Z" fill="black"/>
<path opacity="0.1" d="M215.817 334.214H194.363V344.662H215.817V334.214Z" fill="black"/>
<path opacity="0.1" d="M194.363 335.719H239.707L194.363 337.002V335.719Z" fill="black"/>
<path opacity="0.1" d="M245.302 337.533L205.995 338.506H245.302V337.533Z" fill="black"/>
<path opacity="0.1" d="M196.439 340.453L215.817 339.656L244.308 340.453L215.817 340.895L196.439 340.453Z" fill="black"/>
<path opacity="0.1" d="M194.363 342.665H227.939L194.363 343.461V342.665Z" fill="black"/>
<path opacity="0.1" d="M245.23 343.461L222.806 343.877H245.302L245.23 343.461Z" fill="black"/>
<path d="M238.213 323.767H187.273V334.214H238.213V323.767Z" fill="white"/>
<path opacity="0.1" d="M238.213 323.767H187.273V334.214H238.213V323.767Z" fill="black"/>
<path opacity="0.1" d="M208.728 323.767H187.273V334.214H208.728V323.767Z" fill="black"/>
<path opacity="0.1" d="M187.273 325.271H232.618L187.273 326.554V325.271Z" fill="black"/>
<path opacity="0.1" d="M238.214 327.086L198.906 328.059H238.214V327.086Z" fill="black"/>
<path opacity="0.1" d="M189.35 330.006L208.727 329.209L237.219 330.006L208.727 330.447L189.35 330.006Z" fill="black"/>
<path opacity="0.1" d="M187.273 332.218H220.85L187.273 333.013V332.218Z" fill="black"/>
<path opacity="0.1" d="M238.14 333.013L215.718 333.429H238.214L238.14 333.013Z" fill="black"/>
<path d="M244.029 313.319H193.089V323.767H244.029V313.319Z" fill="white"/>
<path opacity="0.1" d="M244.029 313.319H193.089V323.767H244.029V313.319Z" fill="black"/>
<path opacity="0.1" d="M214.544 313.319H193.089V323.767H214.544V313.319Z" fill="black"/>
<path opacity="0.1" d="M193.089 314.824H238.434L193.089 316.107V314.824Z" fill="black"/>
<path opacity="0.1" d="M244.03 316.638L204.722 317.611H244.03V316.638Z" fill="black"/>
<path opacity="0.1" d="M195.167 319.557L214.544 318.761L243.036 319.557L214.544 320L195.167 319.557Z" fill="black"/>
<path opacity="0.1" d="M193.089 321.77H226.666L193.089 322.566V321.77Z" fill="black"/>
<path opacity="0.1" d="M243.956 322.566L221.534 322.982H244.03L243.956 322.566Z" fill="black"/>
<path d="M277.964 344.443L279.288 339.438H333.709L358.77 341.94L359.723 344.443H277.964Z" fill="#263238"/>
<path opacity="0.4" d="M333.709 339.438V344.443H277.964L279.288 339.438H333.709Z" fill="black"/>
<path d="M322.776 315.476C323.018 318.12 321.085 320.267 318.455 320.267H235.09C232.446 320.267 230.111 318.12 229.869 315.476L224.917 262.105C224.864 261.554 224.904 261.031 225.025 260.548C225.494 258.669 227.145 257.314 229.239 257.314H312.604C315.247 257.314 317.582 259.461 317.824 262.105L322.776 315.476Z" fill="#263238"/>
<path opacity="0.4" d="M318.161 320.267H235.091C232.447 320.267 230.112 318.12 229.871 315.476L224.919 262.105C224.865 261.554 224.905 261.031 225.026 260.548H308.096C310.726 260.548 313.061 262.695 313.316 265.339L318.268 318.71C318.322 319.26 318.28 319.784 318.161 320.267Z" fill="black"/>
<path d="M260.887 287.533H278.133L273.535 336.909L300.807 341.004V344.443H243.37V341.004L255.137 336.909L260.887 287.533Z" fill="#263238"/>
<path opacity="0.1" d="M278.133 287.533L265.356 343.658L255.136 343.355L260.887 287.533H278.133Z" fill="white"/>
<path d="M278.054 559.711H269.833L255.061 354.053H265.969L278.054 559.711Z" fill="#263238"/>
<path opacity="0.4" d="M278.059 559.711H269.833L255.782 364.269L255.057 354.385H265.968L266.558 364.269L278.059 559.711Z" fill="white"/>
<path opacity="0.2" d="M266.558 363.779H255.782L255.057 354.385H265.968L266.558 363.779Z" fill="black"/>
<path d="M338.389 559.711H330.168L328.826 354.053H339.732L338.389 559.711Z" fill="#263238"/>
<path opacity="0.5" d="M339.737 354.385L339.523 387.566L338.395 559.711H330.169L329.042 387.566L328.827 354.385H339.737Z" fill="white"/>
<path opacity="0.2" d="M339.737 354.385L339.523 387.935H329.042L328.827 354.385H339.737Z" fill="black"/>
<path d="M425.674 559.711H417.453L402.681 354.053H413.589L425.674 559.711Z" fill="#263238"/>
<path opacity="0.5" d="M425.679 559.711H417.453L403.402 364.269L402.677 354.385H413.588L414.178 364.269L425.679 559.711Z" fill="white"/>
<path opacity="0.2" d="M414.178 363.779H403.402L402.677 354.385H413.588L414.178 363.779Z" fill="black"/>
<path d="M184.005 559.711H175.783L187.869 354.053H198.775L184.005 559.711Z" fill="#263238"/>
<path opacity="0.5" d="M198.774 354.385L198.049 364.269L183.998 559.711H175.785L187.273 364.269L187.863 354.385H198.774Z" fill="white"/>
<path opacity="0.2" d="M187.863 354.385H198.774L198.049 363.779H187.273L187.863 354.385Z" fill="black"/>
<path d="M419.333 359.204H182.125C180.523 359.204 179.224 357.905 179.224 356.302V348.903H422.234V356.301C422.234 357.905 420.935 359.204 419.333 359.204Z" fill="#407BFF"/>
<path opacity="0.6" d="M419.333 359.204H182.125C180.523 359.204 179.224 357.905 179.224 356.302V348.903H422.234V356.301C422.234 357.905 420.935 359.204 419.333 359.204Z" fill="white"/>
<path opacity="0.2" d="M422.234 348.903H179.224V354.053H422.234V348.903Z" fill="black"/>
<path d="M427.33 350.246H174.128C172.526 350.246 171.227 348.947 171.227 347.345C171.227 345.742 172.526 344.443 174.128 344.443H427.331C428.934 344.443 430.233 345.742 430.233 347.345C430.231 348.947 428.932 350.246 427.33 350.246Z" fill="#407BFF"/>
<path opacity="0.6" d="M427.33 350.246H174.128C172.526 350.246 171.227 348.947 171.227 347.345C171.227 345.742 172.526 344.443 174.128 344.443H427.331C428.934 344.443 430.233 345.742 430.233 347.345C430.231 348.947 428.932 350.246 427.33 350.246Z" fill="white"/>
<path d="M367.422 335.504L370.54 330.835C371.162 329.904 372.207 329.346 373.328 329.346H377.277C377.606 329.346 377.935 329.394 378.249 329.489L392.324 333.756C393.124 333.998 393.805 334.531 394.232 335.249L396.252 338.644L367.422 335.504Z" fill="#407BFF"/>
<path opacity="0.2" d="M396.252 338.646L375.76 336.418L367.426 335.505L370.539 330.835C371.157 329.909 372.203 329.346 373.331 329.346H377.276C377.612 329.346 377.934 329.399 378.256 329.493L378.564 329.587L392.32 333.761C393.125 334.002 393.81 334.526 394.239 335.25L396.252 338.646Z" fill="black"/>
<path opacity="0.2" d="M396.252 338.646L375.76 336.418L378.564 329.587L392.32 333.761C393.125 334.002 393.809 334.526 394.239 335.25L396.252 338.646Z" fill="black"/>
<path d="M405.993 343.999V344.442H388.131H362.486L364.096 338.148C364.727 335.786 366.874 334.135 369.317 334.135H388.615C389.259 334.135 389.889 334.243 390.493 334.471L392.909 335.37L402.491 338.94C404.599 339.733 405.993 341.746 405.993 343.999Z" fill="#407BFF"/>
<path opacity="0.2" d="M405.994 343.999V344.442H388.132L389.084 337.638C389.339 335.84 391.205 334.739 392.909 335.37L402.491 338.94C404.599 339.733 405.994 341.746 405.994 343.999Z" fill="black"/>
<path d="M390.913 339.817L396.595 322.763C396.841 322.026 397.685 321.684 398.375 322.04C398.901 322.311 399.168 322.912 399.018 323.484L394.232 341.691C394.232 341.691 391.046 342.979 390.913 339.817Z" fill="#263238"/>
<path opacity="0.2" d="M367.422 343.026H364.9L365.386 340.549H367.908L367.422 343.026Z" fill="black"/>
<path opacity="0.2" d="M371.182 342.929H368.66L369.146 340.452H371.669L371.182 342.929Z" fill="black"/>
</g>
<defs>
<filter id="filter0_d_275_7034" x="0" y="0" width="679" height="679" filterUnits="userSpaceOnUse" color-interpolation-filters="sRGB">
<feFlood flood-opacity="0" result="BackgroundImageFix"/>
<feColorMatrix in="SourceAlpha" type="matrix" values="0 0 0 0 0 0 0 0 0 0 0 0 0 0 0 0 0 0 127 0" result="hardAlpha"/>
<feOffset dy="4"/>
<feGaussianBlur stdDeviation="2"/>
<feComposite in2="hardAlpha" operator="out"/>
<feColorMatrix type="matrix" values="0 0 0 0 0 0 0 0 0 0 0 0 0 0 0 0 0 0 0.15 0"/>
<feBlend mode="normal" in2="BackgroundImageFix" result="effect1_dropShadow_275_7034"/>
<feBlend mode="normal" in="SourceGraphic" in2="effect1_dropShadow_275_7034" result="shape"/>
</filter>
</defs>
</svg>
