<svg xmlns="http://www.w3.org/2000/svg" enable-background="new 0 0 64 64" viewBox="0 0 64 64" id="article-writing"><path fill="#ebebeb" d="M61,63.58H3c-1.66,0-3-1.34-3-3V3.42c0-1.66,1.34-3,3-3h58c1.66,0,3,1.34,3,3v57.16
		C64,62.24,62.66,63.58,61,63.58z"></path><path fill="#6691ad" d="M64,14.78H0V3.42c0-1.66,1.34-3,3-3h58c1.66,0,3,1.34,3,3V14.78z"></path><rect width="55.11" height="39.47" x="4.44" y="19.45" fill="#fff"></rect><path fill="#dadde1" d="M12.22,7.6c0,1.33-1.08,2.41-2.41,2.41c-1.33,0-2.41-1.08-2.41-2.41c0-1.33,1.08-2.41,2.41-2.41
		C11.14,5.19,12.22,6.27,12.22,7.6z"></path><path fill="#ff7058" d="M19.93,7.6c0,1.33-1.08,2.41-2.41,2.41c-1.33,0-2.41-1.08-2.41-2.41c0-1.33,1.08-2.41,2.41-2.41
		C18.85,5.19,19.93,6.27,19.93,7.6z"></path><path fill="#ffd15c" d="M27.64,7.6c0,1.33-1.08,2.41-2.41,2.41c-1.33,0-2.41-1.08-2.41-2.41c0-1.33,1.08-2.41,2.41-2.41
		C26.56,5.19,27.64,6.27,27.64,7.6z"></path><path fill="#dadde1" d="M55.03,9.41H36.33c-0.99,0-1.78-0.8-1.78-1.78V7.58c0-0.99,0.8-1.78,1.78-1.78h18.69
		c0.99,0,1.78,0.8,1.78,1.78v0.04C56.81,8.61,56.01,9.41,55.03,9.41z"></path><path fill="#f4c95a" d="M33 27.18H11c-.83 0-1.5-.67-1.5-1.5s.67-1.5 1.5-1.5h22c.83 0 1.5.67 1.5 1.5S33.83 27.18 33 27.18zM53 36.18H11c-.83 0-1.5-.67-1.5-1.5 0-.83.67-1.5 1.5-1.5h42c.83 0 1.5.67 1.5 1.5C54.5 35.51 53.83 36.18 53 36.18z"></path><path fill="#ff7058" d="M45,45.18H11c-0.83,0-1.5-0.67-1.5-1.5c0-0.83,0.67-1.5,1.5-1.5h34c0.83,0,1.5,0.67,1.5,1.5
				C46.5,44.51,45.83,45.18,45,45.18z"></path><path fill="#f4c95a" d="M53,54.18H11c-0.83,0-1.5-0.67-1.5-1.5c0-0.83,0.67-1.5,1.5-1.5h42c0.83,0,1.5,0.67,1.5,1.5
				C54.5,53.51,53.83,54.18,53,54.18z"></path></svg>