<svg width="32" height="24" viewBox="0 0 32 24" fill="none" xmlns="http://www.w3.org/2000/svg">
<g clip-path="url(#clip0_275_7861)">
<path d="M7.27275 23.8818V11.5821L3.43837 8.09242L0 6.15588V21.7112C0 22.9122 0.978125 23.8818 2.18187 23.8818H7.27275Z" fill="#4285F4"/>
<path d="M24.7273 23.8818H29.8182C31.0255 23.8818 32 22.9086 32 21.7112V6.15601L28.1055 8.37408L24.7273 11.5821V23.8818Z" fill="#34A853"/>
<path d="M7.27273 11.5821L6.75098 6.7763L7.27273 2.17664L16 8.68822L24.7272 2.17664L25.3109 6.52797L24.7272 11.5821L16 18.0937L7.27273 11.5821Z" fill="#EA4335"/>
<path d="M24.7273 2.17662V11.5821L32 6.1559V3.26185C32 0.577703 28.92 -0.952453 26.7638 0.657288L24.7273 2.17662Z" fill="#FBBC04"/>
<path d="M0 6.15596L3.34488 8.65171L7.27275 11.5822V2.17668L5.23625 0.657345C3.07625 -0.95252 0 0.577759 0 3.26178V6.15583V6.15596Z" fill="#C5221F"/>
</g>
<defs>
<clipPath id="clip0_275_7861">
<rect width="32" height="24" fill="white"/>
</clipPath>
</defs>
</svg>
