<svg width="35" height="35" viewBox="0 0 35 35" fill="none" xmlns="http://www.w3.org/2000/svg">
<path d="M34.271 24.7917L26.9793 32.0834L21.8752 26.9792L24.0627 24.7917L26.9793 27.7084L32.0835 22.6042L34.271 24.7917ZM19.0897 29.1667H8.75016V5.83335H18.9585V13.125H26.2502V19.0896C26.7314 19.0167 27.2127 18.9584 27.7085 18.9584C28.2043 18.9584 28.6856 19.0167 29.1668 19.0896V11.6667L20.4168 2.91669H8.75016C7.97661 2.91669 7.23475 3.22398 6.68777 3.77096C6.14079 4.31794 5.8335 5.05981 5.8335 5.83335V29.1667C5.8335 30.7854 7.13141 32.0834 8.75016 32.0834H20.1397C19.6293 31.1938 19.2647 30.2167 19.0897 29.1667Z" fill="black"/>
</svg>
