<svg width="35" height="35" viewBox="0 0 35 35" fill="none" xmlns="http://www.w3.org/2000/svg">
<path d="M29.1667 13.125L26.2573 29.6713C26.1386 30.347 25.7855 30.9593 25.26 31.4004C24.7346 31.8416 24.0705 32.0834 23.3844 32.0834H11.6156C10.9295 32.0834 10.2654 31.8416 9.73995 31.4004C9.21451 30.9593 8.8614 30.347 8.74271 29.6713L5.83333 13.125M30.625 8.75002H22.4219M22.4219 8.75002V5.83335C22.4219 5.05981 22.1146 4.31794 21.5676 3.77096C21.0206 3.22398 20.2788 2.91669 19.5052 2.91669H15.4948C14.7212 2.91669 13.9794 3.22398 13.4324 3.77096C12.8854 4.31794 12.5781 5.05981 12.5781 5.83335V8.75002M22.4219 8.75002H12.5781M4.375 8.75002H12.5781" stroke="black" stroke-width="1.5" stroke-linecap="round" stroke-linejoin="round"/>
</svg>
