<svg width="24" height="29" viewBox="0 0 24 29" fill="none" xmlns="http://www.w3.org/2000/svg">
<path d="M22.7682 9.63231C22.6043 9.75946 19.7109 11.3898 19.7109 15.015C19.7109 19.2081 23.3926 20.6915 23.5028 20.7283C23.4859 20.8187 22.9179 22.7598 21.5617 24.7377C20.3523 26.4783 19.0893 28.216 17.1679 28.216C15.2466 28.216 14.7521 27.0999 12.534 27.0999C10.3725 27.0999 9.60393 28.2527 7.84644 28.2527C6.08894 28.2527 4.86265 26.6421 3.4527 24.6643C1.81953 22.3416 0.5 18.7334 0.5 15.3088C0.5 9.81597 4.0715 6.90283 7.58649 6.90283C9.45418 6.90283 11.0111 8.12912 12.1837 8.12912C13.2998 8.12912 15.0403 6.82936 17.1651 6.82936C17.9704 6.82936 20.8638 6.90283 22.7682 9.63231ZM16.1564 4.50393C17.0351 3.4613 17.6568 2.01462 17.6568 0.567936C17.6568 0.367322 17.6398 0.163882 17.6031 0C16.1733 0.0536855 14.4724 0.952211 13.4467 2.14177C12.6414 3.05725 11.8898 4.50393 11.8898 5.97039C11.8898 6.19079 11.9265 6.41118 11.9435 6.48182C12.0339 6.49877 12.1808 6.51855 12.3278 6.51855C13.6106 6.51855 15.224 5.65958 16.1564 4.50393Z" fill="black"/>
</svg>
