<svg width="35" height="35" viewBox="0 0 35 35" fill="none" xmlns="http://www.w3.org/2000/svg">
<path d="M14.5835 29.1667H8.75016V5.83335H18.9585V13.125H26.2502V17.6459L29.1668 14.7292V11.6667L20.4168 2.91669H8.75016C7.146 2.91669 5.8335 4.22919 5.8335 5.83335V29.1667C5.8335 30.7709 7.146 32.0834 8.75016 32.0834H14.5835V29.1667ZM29.4585 18.9584C29.6043 18.9584 29.896 19.1042 30.0418 19.25L31.9377 21.1459C32.2293 21.4375 32.2293 22.0209 31.9377 22.3125L30.4793 23.7709L27.4168 20.7084L28.8752 19.25C29.021 19.1042 29.1668 18.9584 29.4585 18.9584ZM29.4585 24.6459L20.5627 33.5417H17.5002V30.4792L26.396 21.5834L29.4585 24.6459Z" fill="black"/>
</svg>
