<svg width="59" height="59" viewBox="0 0 59 59" fill="none" xmlns="http://www.w3.org/2000/svg">
<g clip-path="url(#clip0_275_8322)">
<path d="M32.9362 3.67863C32.9362 1.65902 31.3045 0.027359 29.2849 0.027359C27.2653 0.027359 25.6336 1.65902 25.6336 3.67863V31.3713L17.2585 22.9962C15.8322 21.5699 13.516 21.5699 12.0897 22.9962C10.6634 24.4224 10.6634 26.7387 12.0897 28.165L26.6948 42.7701C28.1211 44.1964 30.4373 44.1964 31.8636 42.7701L46.4687 28.165C47.895 26.7387 47.895 24.4224 46.4687 22.9962C45.0424 21.5699 42.7262 21.5699 41.2999 22.9962L32.9362 31.3713V3.67863ZM7.37726 40.1914C3.34944 40.1914 0.074707 43.4661 0.074707 47.4939V51.1452C0.074707 55.173 3.34944 58.4478 7.37726 58.4478H51.1926C55.2204 58.4478 58.4951 55.173 58.4951 51.1452V47.4939C58.4951 43.4661 55.2204 40.1914 51.1926 40.1914H39.6112L34.4423 45.3602C31.5898 48.2128 26.9686 48.2128 24.1161 45.3602L18.9586 40.1914H7.37726ZM49.3669 46.5811C50.0932 46.5811 50.7897 46.8696 51.3033 47.3832C51.8169 47.8967 52.1054 48.5933 52.1054 49.3196C52.1054 50.0458 51.8169 50.7424 51.3033 51.2559C50.7897 51.7695 50.0932 52.058 49.3669 52.058C48.6406 52.058 47.9441 51.7695 47.4305 51.2559C46.917 50.7424 46.6285 50.0458 46.6285 49.3196C46.6285 48.5933 46.917 47.8967 47.4305 47.3832C47.9441 46.8696 48.6406 46.5811 49.3669 46.5811Z" fill="#699BF7"/>
</g>
<defs>
<clipPath id="clip0_275_8322">
<rect width="58.4204" height="58.4204" fill="white" transform="translate(0.074707 0.027359)"/>
</clipPath>
</defs>
</svg>
