<svg width="36" height="36" viewBox="0 0 36 36" fill="none" xmlns="http://www.w3.org/2000/svg">
<path d="M20.715 33H9C7.335 33 6 31.665 6 30V6C6 5.20435 6.31607 4.44129 6.87868 3.87868C7.44129 3.31607 8.20435 3 9 3H21L30 12V19.635C29.505 19.56 29.01 19.5 28.5 19.5C27.99 19.5 27.495 19.56 27 19.635V13.5H19.5V6H9V30H19.635C19.815 31.08 20.19 32.085 20.715 33ZM33.81 31.68L30.615 28.5L33.81 25.32L31.68 23.205L28.5 26.385L25.32 23.205L23.205 25.32L26.385 28.5L23.205 31.68L25.32 33.81L28.5 30.615L31.68 33.81L33.81 31.68Z" fill="black"/>
</svg>
