<svg width="31" height="31" viewBox="0 0 31 31" fill="none" xmlns="http://www.w3.org/2000/svg">
<g clip-path="url(#clip0_323_474)">
<path d="M4.76923 0C2.14615 0 0 2.14615 0 4.76923V25.0385C0 27.6615 2.14615 29.8077 4.76923 29.8077H17.8846C18.3615 29.8077 18.7192 29.6956 19.0769 29.6956C17.4077 29.3379 15.9841 28.4962 14.7918 27.4231H4.76923C3.45769 27.4231 2.38462 26.35 2.38462 25.0385V4.76923C2.38462 3.45769 3.45769 2.38462 4.76923 2.38462H12.2963C13.1309 2.62308 13.1154 3.69615 13.1154 4.76923V8.34615C13.1154 9.06154 13.5923 9.53846 14.3077 9.53846H17.8846C19.0769 9.53846 20.2692 9.53846 20.2692 10.7308V11.9231H20.8654C21.4615 11.9231 22.0577 12.028 22.6538 12.1472V9.53846C22.6538 8.22692 21.4758 7.02031 19.4489 4.99219C19.0912 4.75373 18.8385 4.41154 18.4808 4.17308C18.2423 3.81538 17.8989 3.56142 17.6605 3.20373C15.6347 1.178 14.4269 0 13.1154 0H4.76923ZM20.8654 14.3077C17.2885 14.3077 14.3077 17.2885 14.3077 20.8654C14.3077 24.4423 17.2885 27.4231 20.8654 27.4231C22.3832 27.4231 23.7687 26.8615 24.8894 25.9697L25.2626 26.3428C25.1134 26.564 25.0465 26.8306 25.0738 27.096C25.101 27.3614 25.2206 27.6088 25.4117 27.7951L28.3924 30.7758C28.8693 31.2528 29.5549 31.2528 30.0318 30.7758L30.628 30.1797C31.1049 29.7028 31.1049 28.9802 30.628 28.5033L27.6472 25.5225C27.4725 25.3396 27.2408 25.2216 26.9901 25.1878C26.7394 25.154 26.4847 25.2064 26.2677 25.3365L25.9327 24.9633C26.8543 23.833 27.4231 22.4118 27.4231 20.8654C27.4231 17.2885 24.4423 14.3077 20.8654 14.3077ZM20.8654 16.0962C23.4885 16.0962 25.6346 18.2423 25.6346 20.8654C25.6346 23.4885 23.4885 25.6346 20.8654 25.6346C18.2423 25.6346 16.0962 23.4885 16.0962 20.8654C16.0962 18.2423 18.2423 16.0962 20.8654 16.0962Z" fill="black"/>
</g>
<defs>
<clipPath id="clip0_323_474">
<rect width="31" height="31" fill="white"/>
</clipPath>
</defs>
</svg>
