<svg width="374" height="280" viewBox="0 0 374 280" fill="none" xmlns="http://www.w3.org/2000/svg">
<g clip-path="url(#clip0_184_162)">
<rect width="374" height="280" fill="white"/>
<path d="M341.741 249.604L342.302 237.014C348.154 233.894 354.682 232.246 361.318 232.214C352.185 239.661 353.326 254.016 347.134 264.031C345.179 267.14 342.547 269.77 339.434 271.726C336.321 273.682 332.807 274.915 329.151 275.333L321.508 280C320.46 274.169 320.691 268.181 322.186 262.447C323.681 256.714 326.405 251.372 330.17 246.79C332.307 244.24 334.758 241.969 337.465 240.03C339.295 244.844 341.741 249.604 341.741 249.604Z" fill="#F2F2F2"/>
<path d="M79.3455 137.68C78.8405 137.22 78.4427 136.655 78.1801 136.026C77.9175 135.396 77.7965 134.717 77.8256 134.036C77.8547 133.355 78.0333 132.688 78.3486 132.083C78.664 131.478 79.1085 130.949 79.6509 130.534L74.4148 114.804L82.7551 117.039L86.4488 131.634C87.0876 132.589 87.353 133.744 87.1946 134.881C87.0363 136.018 86.4652 137.058 85.5897 137.803C84.7141 138.549 83.5949 138.948 82.444 138.925C81.2932 138.902 80.1907 138.459 79.3455 137.68V137.68Z" fill="#A0616A"/>
<path d="M94.4615 52.2139C95.8454 53.0051 104.033 51.0446 105.632 51.6023C104.75 56.9737 109.544 54.958 104.338 62.012C99.1315 69.066 88.6456 90.2159 86.2635 98.1206C83.8814 106.025 86.2391 117.165 85.8824 120.911C85.71 123.082 85.7207 125.263 85.9145 127.432C83.1017 127.397 80.3292 127.979 77.4724 127.607C74.4258 119.009 72.3774 106.771 70.9864 100.008C69.5955 93.2443 69.5446 96.1045 70.1825 92.7226C70.8205 89.3406 70.975 91.7982 70.3048 88.5628C69.6346 85.3274 72.3449 81.2623 74.8491 78.9445C75.9288 75.8472 77.3242 72.9593 78.3931 69.8944C86.2264 63.0792 86.7414 59.1424 94.4615 52.2139Z" fill="#6C63FF"/>
<path d="M322.047 271.276H315.127L311.834 244.654H322.049L322.047 271.276Z" fill="#FFB6B6"/>
<path d="M323.813 277.967L301.498 277.966V277.685C301.498 275.387 302.413 273.184 304.042 271.559C305.671 269.935 307.88 269.022 310.183 269.022H310.184L314.26 265.938L321.865 269.023L323.813 269.023L323.813 277.967Z" fill="#2F2E41"/>
<path d="M289.895 271.276H282.975L279.683 244.654H289.897L289.895 271.276Z" fill="#FFB6B6"/>
<path d="M291.66 277.967L269.345 277.966V277.685C269.346 275.387 270.261 273.184 271.89 271.559C273.518 269.935 275.728 269.022 278.031 269.022H278.032L282.108 265.938L289.713 269.023L291.661 269.023L291.66 277.967Z" fill="#2F2E41"/>
<path d="M286.9 125.729L331.915 126.851C340.464 131.482 340.594 141.506 337.793 153.406C337.793 153.406 338.738 160.48 336.847 162.366C334.956 164.252 334.01 164.252 334.956 167.553C335.901 170.854 330.905 176.246 331.512 176.851C332.119 177.456 333.537 180.757 333.537 180.757L328.809 207.636C328.809 207.636 325.499 254.32 324.554 255.263C323.608 256.207 322.662 255.263 323.608 257.621C324.554 259.979 325.499 259.036 324.554 259.979C323.716 260.88 322.927 261.824 322.189 262.808H310.758C310.758 262.808 309.896 258.093 309.896 257.621C309.896 257.15 308.95 254.32 308.95 253.849C308.95 253.377 309.786 252.544 309.786 252.544C310.075 251.585 310.27 250.601 310.369 249.605C310.369 248.662 313.206 212.351 313.206 212.351L307.532 165.195L293.82 211.408C293.82 211.408 293.82 251.963 292.874 252.906C291.929 253.849 291.929 253.377 292.402 255.263C292.874 257.15 294.766 256.678 293.347 258.093C291.929 259.508 291.456 257.15 291.929 259.507L292.402 261.865L278.217 262.068C278.217 262.068 276.326 258.093 277.271 256.678C278.217 255.263 278.16 255.65 277.006 253.335C275.853 251.019 275.38 250.548 275.853 250.076C276.326 249.605 276.326 247.097 276.326 247.097L278.69 201.977C278.69 201.977 279.163 154.35 279.163 152.935C279.198 152.207 279.064 151.481 278.77 150.813V148.893L280.581 142.089L286.9 125.729Z" fill="#2F2E41"/>
<path d="M313.941 32.3775C321.665 32.3775 327.927 26.1323 327.927 18.4285C327.927 10.7247 321.665 4.47952 313.941 4.47952C306.217 4.47952 299.955 10.7247 299.955 18.4285C299.955 26.1323 306.217 32.3775 313.941 32.3775Z" fill="#FFB6B6"/>
<path d="M306.948 41.5968C303.935 43.3834 302.132 46.666 301.097 50.0063C299.182 56.1904 298.029 62.5843 297.664 69.0466L296.571 88.3935L283.036 129.589C294.766 139.488 338.859 131.838 338.859 131.838C338.859 131.838 340.213 131.388 338.859 130.039C337.506 128.689 336.188 129.885 337.542 128.535C338.895 127.185 337.962 128.689 337.511 127.339C337.06 125.989 337.511 126.889 337.962 126.439C338.413 125.989 334.469 121.939 334.469 121.939L338.079 98.2927L342.59 50.5961C337.176 43.8466 326.288 39.8678 326.288 39.8678L323.474 34.8172L309.407 35.9395L306.948 41.5968Z" fill="#3F3D56"/>
<path d="M305.03 10.2422C305.571 10.2464 306.109 10.3169 306.633 10.4521C307.666 10.6997 308.715 10.8751 309.773 10.9771C313.01 11.2809 316.053 12.658 318.414 14.8886C320.775 17.1192 322.318 20.0745 322.798 23.2825C323.61 22.5758 325.46 21.2759 326.975 22.4841C326.999 22.5032 327.012 22.5131 327.065 22.4879C328.072 22.0117 329.859 16.1494 329.913 10.9878C329.942 8.24816 329.509 4.74982 327.288 3.64198L327.171 3.58361L327.14 3.45674C326.991 2.84048 325.333 1.78854 322.451 0.969786C317.213 -0.518116 309.56 -0.733219 305.163 3.53237C304.83 4.9704 303.594 5.36444 302.5 5.71326C301.289 6.09935 300.244 6.43254 300.079 7.91386C299.941 10.0219 299.951 12.137 300.109 14.2436C300.519 12.9545 301.325 11.8262 302.412 11.0176C303.184 10.4987 304.098 10.2281 305.03 10.2422Z" fill="#2F2E41"/>
<path d="M278.997 87.3165L301.843 72.7238L290.336 57.468L278.974 71.4077L243.57 73.5733C242.639 72.6553 241.46 72.0273 240.177 71.7659C238.894 71.5046 237.563 71.6211 236.345 72.1014C235.128 72.5816 234.077 73.4048 233.32 74.4706C232.563 75.5364 232.134 76.7986 232.084 78.1035C232.035 79.4084 232.367 80.6996 233.04 81.8195C233.714 82.9395 234.699 83.8398 235.877 84.4108C237.054 84.9818 238.373 85.1987 239.672 85.0352C240.971 84.8716 242.194 84.3347 243.192 83.4897L278.997 87.3165Z" fill="#FFB6B6"/>
<path d="M323.049 52.3555C324.375 60.3589 299.334 75.6419 299.334 75.6419C299.333 73.7634 284.388 87.945 283.713 86.387C281.796 81.9591 280.448 71.4714 277.769 69.7928C276.237 68.8328 286.996 59.8145 286.996 59.8145C286.996 59.8145 292.629 54.1557 300.02 47.0179C302.072 44.9612 304.612 43.4558 307.404 42.6418C310.197 41.8278 313.15 41.7316 315.99 42.3622C315.99 42.3622 321.722 44.3521 323.049 52.3555Z" fill="#3F3D56"/>
<path d="M297.591 144.248C297.601 152.813 296.163 161.318 293.337 169.406C293.208 169.782 293.073 170.152 292.938 170.528C287.153 186.195 276.395 199.548 262.299 208.554C261.337 209.171 260.364 209.76 259.373 210.333C248.112 216.843 235.364 220.364 222.349 220.557C221.921 220.563 221.493 220.569 221.066 220.569C220.514 220.569 219.969 220.563 219.423 220.552C206.39 220.293 193.642 216.703 182.398 210.125C181.408 209.547 180.432 208.947 179.472 208.324C163.823 198.206 152.413 182.742 147.381 164.832C142.349 146.922 144.042 127.796 152.142 111.043C152.323 110.667 152.508 110.296 152.7 109.92C159.079 97.2938 168.849 86.682 180.92 79.2675C192.991 71.853 206.889 67.927 221.066 67.927C235.243 67.927 249.141 71.853 261.212 79.2675C273.283 86.682 283.053 97.2938 289.432 109.92C289.623 110.296 289.809 110.667 289.989 111.043C295.009 121.395 297.609 132.748 297.591 144.248Z" fill="#F2F2F2"/>
<path d="M273.913 169.406V170.528H280.767V169.406H273.913ZM260.206 169.406V170.528H267.06V169.406H260.206ZM246.499 169.406V170.528H253.353V169.406H246.499ZM232.792 169.406V170.528H239.646V169.406H232.792ZM219.085 169.406V170.528H225.939V169.406H219.085ZM205.378 169.406V170.528H212.232V169.406H205.378ZM191.671 169.406V170.528H198.525V169.406H191.671ZM177.97 169.406V170.528H184.818V169.406H177.97ZM164.263 169.406V170.528H171.116V169.406H164.263ZM150.556 169.406V170.528H157.409V169.406H150.556ZM293.337 169.406H287.62V170.528H292.938L293.337 169.406Z" fill="#E6E6E6"/>
<path d="M287.62 161.549V162.671H294.474V161.549H287.62ZM273.913 161.549V162.671H280.767V161.549H273.913ZM260.206 161.549V162.671H267.06V161.549H260.206ZM246.499 161.549V162.671H253.353V161.549H246.499ZM232.792 161.549V162.671H239.646V161.549H232.792ZM219.085 161.549V162.671H225.939V161.549H219.085ZM205.378 161.549V162.671H212.232V161.549H205.378ZM191.671 161.549V162.671H198.525V161.549H191.671ZM177.97 161.549V162.671H184.818V161.549H177.97ZM164.263 161.549V162.671H171.116V161.549H164.263ZM150.556 161.549V162.671H157.409V161.549H150.556Z" fill="#E6E6E6"/>
<path d="M287.62 145.275V146.397H294.474V145.275H287.62ZM273.913 145.275V146.397H280.767V145.275H273.913ZM260.206 145.275V146.397H267.06V145.275H260.206ZM246.499 145.275V146.397H253.353V145.275H246.499ZM232.792 145.275V146.397H239.646V145.275H232.792ZM219.085 145.275V146.397H225.939V145.275H219.085ZM205.378 145.275V146.397H212.232V145.275H205.378ZM191.671 145.275V146.397H198.525V145.275H191.671ZM177.97 145.275V146.397H184.818V145.275H177.97ZM164.263 145.275V146.397H171.116V145.275H164.263ZM150.556 145.275V146.397H157.409V145.275H150.556Z" fill="#E6E6E6"/>
<path d="M287.62 134.051V135.173H294.474V134.051H287.62ZM273.913 134.051V135.173H280.767V134.051H273.913ZM260.206 134.051V135.173H267.06V134.051H260.206ZM246.499 134.051V135.173H253.353V134.051H246.499ZM232.792 134.051V135.173H239.646V134.051H232.792ZM219.085 134.051V135.173H225.939V134.051H219.085ZM205.378 134.051V135.173H212.232V134.051H205.378ZM191.671 134.051V135.173H198.525V134.051H191.671ZM177.97 134.051V135.173H184.818V134.051H177.97ZM164.263 134.051V135.173H171.116V134.051H164.263ZM150.556 134.051V135.173H157.409V134.051H150.556Z" fill="#E6E6E6"/>
<path d="M289.432 109.92H287.62V111.043H289.989C289.809 110.667 289.623 110.296 289.432 109.92ZM273.913 109.92V111.043H280.767V109.92H273.913ZM260.206 109.92V111.043H267.06V109.92H260.206ZM246.499 109.92V111.043H253.353V109.92H246.499ZM232.792 109.92V111.043H239.646V109.92H232.792ZM219.085 109.92V111.043H225.939V109.92H219.085ZM205.378 109.92V111.043H212.231V109.92H205.378ZM191.671 109.92V111.043H198.524V109.92H191.671ZM177.97 109.92V111.043H184.817V109.92H177.97ZM164.263 109.92V111.043H171.116V109.92H164.263ZM152.699 109.92C152.508 110.296 152.322 110.667 152.142 111.043H157.409V109.92H152.699Z" fill="#E6E6E6"/>
<path d="M262.299 113.703V208.554C261.337 209.171 260.364 209.76 259.373 210.333V113.703H262.299Z" fill="#3F3D56"/>
<path d="M222.349 145.129V220.557C221.921 220.563 221.494 220.569 221.066 220.569C220.514 220.569 219.969 220.563 219.423 220.552V145.129H222.349Z" fill="#3F3D56"/>
<path d="M182.398 113.703V210.125C181.408 209.547 180.432 208.946 179.472 208.324V113.703H182.398Z" fill="#3F3D56"/>
<path d="M39.0243 242.802L37.9081 227.319C30.5969 223.674 22.5041 221.864 14.3323 222.047C25.8289 230.909 24.908 248.623 32.87 260.746C35.3823 264.508 38.7113 267.657 42.6102 269.962C46.5091 272.266 50.8779 273.666 55.393 274.058L64.9609 279.548C66.0554 272.333 65.5686 264.967 63.5341 257.958C61.4996 250.95 57.9657 244.464 53.1759 238.948C50.4581 235.881 47.3638 233.166 43.966 230.87C41.8746 236.858 39.0243 242.802 39.0243 242.802Z" fill="#F2F2F2"/>
<path d="M260.454 121.239C266.358 121.239 271.145 116.466 271.145 110.577C271.145 104.688 266.358 99.9144 260.454 99.9144C254.549 99.9144 249.763 104.688 249.763 110.577C249.763 116.466 254.549 121.239 260.454 121.239Z" fill="#6C63FF"/>
<path d="M265.942 106.133C265.781 105.98 265.567 105.895 265.345 105.895C265.123 105.895 264.909 105.98 264.748 106.133C262.48 107.937 260.442 110.013 258.681 112.313C258.249 111.479 257.817 110.645 257.385 109.811C256.886 108.848 255.429 109.699 255.927 110.661C256.559 111.881 257.192 113.101 257.824 114.321C257.9 114.445 258.007 114.548 258.135 114.62C258.262 114.691 258.406 114.729 258.553 114.729C258.699 114.729 258.843 114.691 258.97 114.62C259.098 114.548 259.205 114.445 259.281 114.321C261.158 111.685 263.4 109.329 265.942 107.324C266.099 107.165 266.187 106.951 266.187 106.728C266.187 106.505 266.099 106.292 265.942 106.133Z" fill="white"/>
<path d="M221.066 152.665C226.97 152.665 231.757 147.892 231.757 142.003C231.757 136.114 226.97 131.341 221.066 131.341C215.161 131.341 210.375 136.114 210.375 142.003C210.375 147.892 215.161 152.665 221.066 152.665Z" fill="#6C63FF"/>
<path d="M226.554 137.559C226.393 137.406 226.179 137.321 225.957 137.321C225.735 137.321 225.521 137.406 225.36 137.559C223.092 139.364 221.054 141.439 219.294 143.739C218.861 142.905 218.429 142.071 217.997 141.237C217.498 140.274 216.041 141.125 216.539 142.087C217.171 143.307 217.804 144.527 218.436 145.747C218.512 145.872 218.619 145.974 218.747 146.046C218.874 146.117 219.018 146.155 219.165 146.155C219.311 146.155 219.455 146.117 219.583 146.046C219.71 145.974 219.817 145.872 219.893 145.747C221.77 143.111 224.012 140.755 226.554 138.75C226.711 138.591 226.799 138.377 226.799 138.154C226.799 137.932 226.711 137.718 226.554 137.559Z" fill="white"/>
<path d="M181.115 123.484C187.02 123.484 191.806 118.71 191.806 112.822C191.806 106.933 187.02 102.159 181.115 102.159C175.211 102.159 170.424 106.933 170.424 112.822C170.424 118.71 175.211 123.484 181.115 123.484Z" fill="#6C63FF"/>
<path d="M186.603 108.378C186.442 108.225 186.229 108.139 186.006 108.139C185.784 108.139 185.57 108.225 185.41 108.378C183.141 110.182 181.104 112.258 179.343 114.558C178.911 113.724 178.478 112.89 178.046 112.056C177.547 111.093 176.09 111.943 176.589 112.905C177.221 114.125 177.853 115.345 178.485 116.565C178.561 116.69 178.669 116.793 178.796 116.864C178.924 116.936 179.068 116.973 179.214 116.973C179.36 116.973 179.504 116.936 179.632 116.864C179.759 116.793 179.867 116.69 179.943 116.565C181.819 113.93 184.062 111.574 186.603 109.568C186.76 109.41 186.848 109.196 186.848 108.973C186.848 108.75 186.76 108.536 186.603 108.378Z" fill="white"/>
<path d="M334.434 105.239L341.472 79.1074L322.664 75.5566L323.676 93.4932L298.964 118.87C297.656 118.817 296.36 119.144 295.235 119.813C294.11 120.481 293.205 121.461 292.629 122.634C292.053 123.807 291.832 125.121 291.992 126.417C292.152 127.713 292.687 128.935 293.531 129.933C294.376 130.931 295.493 131.663 296.747 132.038C298.001 132.414 299.337 132.418 300.593 132.049C301.849 131.681 302.971 130.955 303.821 129.962C304.671 128.969 305.213 127.75 305.38 126.455L334.434 105.239Z" fill="#FFB6B6"/>
<path d="M343.397 49.8083C349.781 54.8347 341.587 82.9502 341.587 82.9502C340.318 81.5617 338.844 102.083 337.293 101.385C332.886 99.3986 324.808 92.5503 321.694 93.1085C319.914 93.4278 321.779 79.5345 321.779 79.5345C321.779 79.5345 322.122 71.5685 322.767 61.3278C322.896 58.4292 323.758 55.6102 325.272 53.1331C326.787 50.6561 328.906 48.6015 331.431 47.1607C331.431 47.1607 337.013 44.7819 343.397 49.8083Z" fill="#3F3D56"/>
<path d="M122.895 108.477L130.633 142.915L81.0503 139.839L94.5333 106.017L122.895 108.477Z" fill="#A0616A"/>
<path d="M114.639 267.42L120.209 267.419L122.858 245.994H114.638L114.639 267.42Z" fill="#A0616A"/>
<path d="M112.753 264.679L121.558 264.155V267.917L129.928 273.683C130.342 273.968 130.653 274.377 130.817 274.851C130.981 275.324 130.988 275.838 130.839 276.316C130.689 276.795 130.39 277.213 129.986 277.51C129.581 277.807 129.092 277.967 128.589 277.967H118.107L116.3 274.246L115.595 277.967H111.643L112.753 264.679Z" fill="#2F2E41"/>
<path d="M61.9978 264.656L67.4412 265.833L74.5851 245.455L66.5516 243.717L61.9978 264.656Z" fill="#A0616A"/>
<path d="M60.7374 261.579L69.4531 262.929L68.6534 266.605L75.6082 274.01C75.9517 274.375 76.1691 274.841 76.2285 275.339C76.288 275.836 76.1863 276.34 75.9385 276.776C75.6907 277.212 75.3096 277.557 74.851 277.762C74.3924 277.966 73.8801 278.019 73.3891 277.913L63.1453 275.697L62.1707 271.678L60.6902 275.166L56.8279 274.33L60.7374 261.579Z" fill="#2F2E41"/>
<path d="M131.899 171.712C127.99 193.137 127.013 202.387 127.013 202.387C127.013 202.387 129.945 205.796 127.99 207.745C126.036 209.694 127.99 213.587 127.99 213.587L123.595 260.82L120.058 260.248L111.536 258.882L108.462 258.386L110.417 214.077C110.417 214.077 108.462 210.179 109.44 209.204C110.417 208.23 108.462 202.387 108.462 202.387L106.022 156.129L90.8834 206.77C90.8834 206.77 92.3519 208.72 90.8834 210.179C89.4203 211.638 86.4942 218.945 86.4942 218.945L77.4918 250.361L76.7275 253.028L72.0325 252.152L66.9226 251.194L65.9836 251.019L64.3131 250.704L63.2376 250.502L62.8718 250.437L61.103 250.105L61.6381 247.736L61.9165 246.489L69.5322 212.754L69.7069 211.975L69.8925 211.153C69.8925 211.153 68.9153 208.72 70.3784 207.255C70.8064 206.809 71.119 206.265 71.2893 205.671C71.4596 205.077 71.4823 204.451 71.3556 203.847C71.3077 203.796 71.2639 203.741 71.2246 203.683C71.0518 203.447 70.9325 203.175 70.8752 202.888C70.7441 202.278 70.8588 201.424 71.8469 200.438C72.1252 200.143 72.3588 199.809 72.5403 199.447C74.0252 196.643 74.7731 190.703 74.7731 190.703C74.7731 190.703 76.0943 143.655 80.418 136.468C80.6473 136.093 85.2373 128.88 85.4775 128.733C90.3581 125.815 128.382 129.846 128.382 129.846C128.382 129.846 130.686 136.016 130.789 136.659C131.352 140.269 135.213 153.538 131.899 171.712Z" fill="#2F2E41"/>
<path d="M120.345 58.3869C120.345 58.3869 121.168 54.1274 113.262 46.2425C109.076 44.851 101.824 45.662 99.31 46.2425C87.6834 61.5485 89.7651 58.8479 86.7387 67.3998C85.9539 69.6175 85.5615 71.7481 85.9103 73.4875C87.3055 80.4448 89.5705 116.158 89.1055 118.014C88.6404 119.869 85.385 122.188 88.6404 122.188C91.8958 122.188 133.877 121.455 132.947 120.064C132.017 118.672 120.345 58.3869 120.345 58.3869Z" fill="#6C63FF"/>
<path d="M170.204 114.979C169.567 115.226 168.883 115.329 168.201 115.284C167.519 115.238 166.855 115.043 166.256 114.714C165.658 114.384 165.139 113.928 164.736 113.377C164.334 112.826 164.057 112.193 163.926 111.524L147.472 109.193L153.193 102.741L167.941 105.944C169.083 105.799 170.238 106.077 171.189 106.724C172.139 107.372 172.818 108.345 173.097 109.459C173.376 110.573 173.235 111.75 172.702 112.767C172.169 113.785 171.281 114.572 170.204 114.98L170.204 114.979Z" fill="#A0616A"/>
<path d="M100.593 55.6451C101.919 54.7618 103.426 54.347 104.639 53.1676C109.068 56.3482 109.394 51.1695 113.408 58.9602C117.421 66.7509 131.738 85.5344 137.773 91.1823C143.808 96.8301 154.859 99.6866 158.063 101.674C159.935 102.795 161.898 103.757 163.931 104.549C162.646 107.045 161.934 109.78 160.328 112.166C151.252 111.057 139.354 107.435 132.662 105.664C125.971 103.894 128.516 105.213 125.764 103.137C123.012 101.061 125.287 102.018 122.084 101.175C118.881 100.333 116.439 96.1019 115.474 92.8334C113.174 90.4897 111.203 87.9574 108.928 85.6378C106.299 75.6077 103.374 65.6247 100.593 55.6451Z" fill="#6C63FF"/>
<path d="M110.982 40.306C118.42 40.306 124.449 34.2929 124.449 26.8753C124.449 19.4578 118.42 13.4447 110.982 13.4447C103.545 13.4447 97.5156 19.4578 97.5156 26.8753C97.5156 34.2929 103.545 40.306 110.982 40.306Z" fill="#A0616A"/>
<path d="M119.98 51.4259C119.341 50.5168 114.569 41.5023 113.15 38.0934C113.004 38.8316 112.912 39.5794 112.875 40.3308L112.861 40.6109L112.582 40.6469C112.163 40.7003 102.258 41.8993 97.1035 36.0701C94.0496 32.6173 93.357 27.4382 95.0423 20.6736C94.7358 20.6136 94.4421 20.5008 94.1744 20.3402C93.7287 20.0326 93.3556 19.6316 93.0812 19.1654C92.8068 18.6991 92.6377 18.1788 92.5857 17.6407L92.3003 17.717C83.1301 13.2666 91.0304 0.247842 99.4064 6.72052C100.141 6.55679 100.907 6.60069 101.618 6.84727C102.304 7.12552 102.901 7.58363 103.347 8.17305C103.793 8.76248 104.071 9.46124 104.151 10.1953C108.478 7.92504 114.206 8.29447 117.168 9.9978C118.409 10.7111 119.121 11.6094 119.247 12.6116C122.746 12.8064 126.509 16.2056 126.509 21.0215V21.3568H126.173C124.765 21.3867 123.392 21.7979 122.201 22.5463C121.01 23.2947 120.045 24.3522 119.41 25.6055C118.55 27.1558 118.124 28.9087 118.177 30.6799C118.231 32.4512 118.762 34.1753 119.714 35.6712C120.751 37.2579 121.459 39.0354 121.796 40.8991C122.133 42.7627 122.093 44.6749 121.678 46.5229L120.414 52.0449L119.98 51.4259Z" fill="#2F2E41"/>
<path d="M159.054 278.078C159.055 278.165 159.037 278.252 159.004 278.334C158.97 278.415 158.921 278.488 158.859 278.55C158.796 278.613 158.723 278.662 158.641 278.695C158.56 278.729 158.473 278.746 158.385 278.745H0.669597C0.492009 278.745 0.321693 278.675 0.196119 278.55C0.0705455 278.425 0 278.255 0 278.078C0 277.901 0.0705455 277.731 0.196119 277.605C0.321693 277.48 0.492009 277.41 0.669597 277.41H158.385C158.473 277.41 158.56 277.427 158.641 277.46C158.723 277.494 158.796 277.543 158.859 277.605C158.921 277.667 158.97 277.741 159.004 277.822C159.037 277.903 159.055 277.99 159.054 278.078Z" fill="#CCCCCC"/>
<path d="M374 278.078C374 278.165 373.983 278.252 373.95 278.334C373.916 278.415 373.867 278.488 373.805 278.55C373.742 278.613 373.668 278.662 373.587 278.695C373.506 278.729 373.418 278.746 373.33 278.745H215.615C215.438 278.745 215.268 278.675 215.142 278.55C215.016 278.425 214.946 278.255 214.946 278.078C214.946 277.901 215.016 277.731 215.142 277.605C215.268 277.48 215.438 277.41 215.615 277.41H373.331C373.419 277.41 373.506 277.427 373.587 277.46C373.668 277.494 373.742 277.543 373.805 277.605C373.867 277.667 373.916 277.741 373.95 277.822C373.983 277.903 374 277.99 374 278.078Z" fill="#CCCCCC"/>
<path d="M180.783 229.95C184.074 229.95 186.742 227.289 186.742 224.006C186.742 220.724 184.074 218.063 180.783 218.063C177.492 218.063 174.824 220.724 174.824 224.006C174.824 227.289 177.492 229.95 180.783 229.95Z" fill="#E6E6E6"/>
<path d="M220.734 236.123C224.025 236.123 226.693 233.462 226.693 230.179C226.693 226.897 224.025 224.236 220.734 224.236C217.442 224.236 214.774 226.897 214.774 230.179C214.774 233.462 217.442 236.123 220.734 236.123Z" fill="#E6E6E6"/>
<path d="M260.684 228.827C263.975 228.827 266.643 226.166 266.643 222.884C266.643 219.602 263.975 216.941 260.684 216.941C257.393 216.941 254.725 219.602 254.725 222.884C254.725 226.166 257.393 228.827 260.684 228.827Z" fill="#E6E6E6"/>
</g>
<defs>
<clipPath id="clip0_184_162">
<rect width="374" height="280" fill="white"/>
</clipPath>
</defs>
</svg>
