<svg width="24" height="23" viewBox="0 0 24 23" fill="none" xmlns="http://www.w3.org/2000/svg">
<g clip-path="url(#clip0_187_217)">
<path d="M23.4878 11.7152C23.4878 10.7729 23.4095 10.0852 23.2402 9.37216H12.229V13.6252H18.6923C18.5621 14.6822 17.8584 16.2739 16.2946 17.3435L16.2727 17.4859L19.7543 20.1215L19.9955 20.145C22.2107 18.1458 23.4878 15.2042 23.4878 11.7152Z" fill="#4285F4"/>
<path d="M12.2289 22.921C15.3954 22.921 18.0537 21.9022 19.9954 20.145L16.2945 17.3435C15.3042 18.0184 13.975 18.4895 12.2289 18.4895C9.12754 18.4895 6.4953 16.4904 5.55698 13.7271L5.41945 13.7386L1.7993 16.4763L1.75195 16.605C3.68052 20.3487 7.64195 22.921 12.2289 22.921Z" fill="#34A853"/>
<path d="M5.55695 13.7271C5.30937 13.0141 5.16608 12.25 5.16608 11.4605C5.16608 10.671 5.30937 9.90695 5.54393 9.19387L5.53737 9.042L1.87185 6.26022L1.75192 6.31597C0.957066 7.86952 0.500977 9.6141 0.500977 11.4605C0.500977 13.3069 0.957066 15.0514 1.75192 16.605L5.55695 13.7271Z" fill="#FBBC05"/>
<path d="M12.2289 4.43136C14.4311 4.43136 15.9166 5.36093 16.7637 6.13775L20.0735 2.97973C18.0407 1.13332 15.3954 0 12.2289 0C7.64195 0 3.68052 2.57222 1.75195 6.31596L5.54396 9.19385C6.49531 6.4306 9.12755 4.43136 12.2289 4.43136Z" fill="#EB4335"/>
</g>
<defs>
<clipPath id="clip0_187_217">
<rect width="23" height="23" fill="white" transform="translate(0.5)"/>
</clipPath>
</defs>
</svg>
